<svg height="528" viewBox="0 0 422.66666 528" width="422.66666" xmlns="http://www.w3.org/2000/svg" xmlns:xlink="http://www.w3.org/1999/xlink"><clipPath id="a"><path d="m254.705 274.932.875-.5c-11.109-5.493-17.977-16.977-18.852-28.839l-.25-133.958-.621-6.492c-2.625-10.114-12.484-19.353-22.472-21.974-20.602-5.742-48.818 4.995-62.675-15.855-13.857 20.85-42.073 10.113-62.675 15.855-9.988 2.621-19.847 11.86-22.472 21.974l-.621 6.492-.25 133.958c-.875 11.862-7.742 23.346-18.852 28.839l.875.5z"/></clipPath><g transform="matrix(1.3333333 0 0 -1.3333333 0 528)"><g fill-rule="evenodd"><path d="m300.389 74.064c.125-5.995-4.243-11.112-8.989-15.233-5.992-3.496-13.484-7.115-16.48-14.107 7.367-3.122 12.984-11.735 20.727-14.732 4.121-2.621 5.242-7.24 7.113-11.11-.25-.375-.121-1.247-.871-1.125-2.996 1-5.492 3.496-8.364 5.12-7.617 4.994-16.98 1-23.597-3.371-4.371-.624-8.988-1.249-13.485-.624-1.246-1.872.75-3.996.5-6.242-3.121-8.615-12.859-10.613-21.222-11.112-19.352-1.622-35.208 6.991-52.438 11.112-.873-2.247-.748-4.869-2.121-6.867-1.998-1.873-4.619-2.496-7.117-2.996-13.235-.25-27.965.623-40.449-.875-5.618.125-10.737 2.373-14.108 7.117-.999 1.249-.25 5.117-2.996 3.621-14.232-5.244-28.589-9.863-44.071-11.987-11.485-1.372-21.224 4.745-28.714 12.611-.25 2.497 1.373 4.371 1.997 6.617-8.614-1.499-16.978 1.247-25.467 1.997-7.117.499-12.735-2.872-19.477-3.496.5 1.874 2.372 3.995 2.996 6.242 6.367 8.989 16.629 9.626 24.97 16.481.999.372 1.997.747 2.996 1.497-2.871 2.122-6.492 4.121-8.99 6.867-3.87 8.49-13.732 11.361-17.727 19.849l.25 1.5c2.497-1 4.868-1.999 7.49-2.499 8.614.125 16.605-1.622 23.097-6.492 15.231-2.746 28.714 10.362 42.821 1.499 1.999-1.749 2.622-4.245 1.874-6.616-2.997-3.495-3.621-7.991-4.495-12.361l.624-.497c18.602.997 35.081 7.489 51.437 13.982 6.782 1.291 12.234 1.747 15.355-3.496 1.623-4.744-4.993-6.868-5.368-11.111 1.748-1.375 4.744-1 7.116-1.5l16.229.25c1.874.875.125 2.997.251 4.496-1.248 2.621-3.497 6.367-.876 8.987 6.7 6.04 17.479 1.999 24.221-1.747 13.236-6.243 28.342-9.861 43.197-10.236.375 6.992-9.988 13.857-1.746 19.849 11.485 6.492 24.094-.5 34.958-3.371 12.484 0 20.222 11.113 32.707 10.863 2.371.372 4.371 1.872 6.242 3.246" fill="#231f20"/><path d="m153.072 7.271c9.238-.125 19.85-1.623 27.84 2.372-.375-1.622-1.125-3.745-2.996-4.245-14.732-3.371-30.962.5-45.319-1.998-5.119.5-10.987 3.371-12.485 8.615l.25 1.499c7.241-11.112 21.348-5.12 32.71-6.243" fill="#231f20"/><path d="m246.83 8.394c2.871 1.749 5.617 4.246 7.742 6.992.496-1.622.496-2.872 0-4.493-7.867-9.74-21.351-7.743-33.211-7.493-13.356 1.998-25.219 7.615-38.078 10.986-1.123.25-.375 1.874-.625 2.749 20.101-5.992 42.199-16.107 64.172-8.741" fill="#231f20"/><path d="m116.741 14.386c-21.972-5.243-51.435-22.971-71.037-1.122v2.621c9.114-10.862 23.971-13.858 36.954-9.239 12.236 3.747 24.845 6.743 36.83 11.361 0-1.497-.875-3.493-2.747-3.621" fill="#231f20"/><path d="m46.704 24.374c1.248-2.746-2.123-2.496-3.622-3.371-9.737-1.247-18.102 3.621-27.84 2.124-3.87-.75-7.615-1.624-11.486-2.371l.999 2.121c10.487 4.369 21.474 2.746 32.585.5 3.246-.125 6.367.25 9.364.997" fill="#231f20"/><path d="m298.018 24.874c1.25-.875 1.25-2.497 1.5-3.871-6.493 4.495-15.606 7.991-23.348 3.871-5.492-4.868-13.61-5.493-20.973-4.118l-.875 2.621c13.485-4.995 20.848 9.362 34.457 5.117 3.246-.748 6.368-1.996 9.239-3.62" fill="#231f20"/><path d="m173.047 38.106 5.992 2.124c0-4.37-1.123-9.988-.25-14.981.375-4.871 2.871-8.864 2.373-14.106-9.988-4.872-19.974-2.499-31.461-2.749-9.239.375-23.721-4.244-28.714 6.367 2.62 7.491 2.62 17.353 1.122 25.469 15.732-4.745 34.332-4.995 50.938-2.124" fill="#be9905"/><path d="m180.287 44.724c-.125-5.493-6.742-4.119-10.236-5.993-15.856-3.121-33.459-1.122-48.192 2.996l-.249 2.997c17.603-6.368 40.949-6.368 58.677 0" fill="#231f20"/><path d="m177.916 45.848c-4.244-1.621-8.99-2.371-13.484-3.246-.748.125-.5 1.25-.873 1.747 4.869-.747 9.736 1.499 14.357 1.499" fill="#be9905"/><path d="m137.091 44.974-.499-1.747c-4.369.5-8.864 1.122-12.361 2.996 4.621.5 8.616-.875 12.86-1.249" fill="#be9905"/><path d="m120.112 19.506c-16.23-5.867-32.709-11.362-50.437-13.733-9.363 0-17.105 4.245-23.346 11.362 4.12 7.989 3.62 17.6 2.746 26.964 18.602-12.235 43.572-5.493 62.548 1.249l7.49 2.622c1.749-8.865 3.371-19.349.999-28.464" fill="#be9905"/><path d="m250.076 49.219c-5.117-5.12-12.859-5.12-20.098-5.742-.25 2.247-1.875 3.871-2 5.992 7.118-2.371 14.735.75 22.098-.25" fill="#be9905"/><path d="m179.664 48.595v-1.497c-5.869.622-10.986-2.374-16.48-.875-.125.875-.748 1.497-.874 2.372 5.743-1.747 11.075 2.405 17.354 0" fill="#231f20"/><path d="m252.822 43.227c-2.371-7.992-2.371-17.479 1.125-24.845.25-2.497-1.5-4.118-3.246-5.742-10.613-8.865-26.594-5.994-39.199-3.621-9.864 2.746-19.23 6.866-29.092 9.363-2.873 7.366-2.496 16.853-.375 24.47-.375 2.496 1 5.618-1.123 7.242 21.097-8.989 48.816-18.48 71.91-6.867" fill="#be9905"/><path d="m139.213 48.595c-.249-3.746-4.743-1.622-6.866-1.747-2.996.622-6.992.997-9.863 0-.749.372-.625 1.122-.625 1.747 5.119 3.745 11.237-.997 17.354 0" fill="#231f20"/><path d="m75.667 50.094-1.123-5.995c-8.739-1.372-16.355 1.749-23.097 5.995 7.242 3.994 15.981-1.375 24.22 0" fill="#be9905"/><path d="m139.838 50.966c-2.078-1.216-9.706-.339-12.328.784 1.75 1 9.25 1.75 12.328-.784" fill="#be9905"/><path d="m177.385 51.625c-3.375-1.25-8.75-2.625-13.826-1.284 2.326 3.534 9.076 3.409 13.826 1.284" fill="#be9905"/><path d="m251.947 51.591-.371-1.497c-7.742 1.247-16.48-2.374-24.219.625l-.875 2.371c8.489-2.749 16.231 1.623 24.469-.625z" fill="#231f20"/><path d="m76.916 53.713c.125-2.497-2.122-2.372-3.871-2.747-7.614.5-15.98 4.369-23.096.375-.5.375-.25 1.124-.25 1.749 8.49 5.991 17.354-1.374 27.217.623" fill="#231f20"/><path d="m197.017 47.098c15.231-4.246 32.836-8.367 48.567-3.246l7.238 4.493c.5-.747.125-1.872.25-2.747-5.242-4.743-12.484-4.868-19.101-6.243-21.348-1.621-39.075 7.118-57.305 13.735-4.742 1.123-10.736 2.245-14.356-2.124-.875 1.249-.875 2.374 0 3.622 12.61 6.242 23.346-4.494 34.707-7.49" fill="#231f20"/><path d="m141.96 53.34v-1.749c-5.743 3.247-11.7 2.534-18.852.249-15.855-7.613-32.46-13.484-51.56-13.109-8.365-.375-15.232 2.746-21.849 6.617-1.373.75-.749 2.497-.999 3.871 23.721-15.106 54.184-3.246 76.781 5.991 5.118 1.125 12.734 3.246 16.479-1.87" fill="#231f20"/><path d="m44.831 56.96c10.736 1.746 23.346 7.116 33.832 1.249.749-1.375-1.123-1.999-1.997-2.374-9.863-2.87-18.477 5.62-27.342-.375-4.868-6.491-.748-15.105-1.123-22.721-.872-3.12.809-7.489-4.691-7.614-12.735-.998-25.147 4.494-37.257-.501 6.242 7.49 16.604 9.114 24.221 15.606 1.748.747 4.244.625 5.368 2.372-.374 1.375-1.873 1.497-2.996 1.747-9.239 3.371-11.986 13.61-20.351 18.603 5.3 1.377 9.395-1.176 13.39-3.202 5.792-2.939 11.262-5.82 18.946-2.79" fill="#be9905"/><path d="m296.268 66.323c-5.993-10.113-19.848-10.488-23.719-22.471 8.738-3.247 14.98-12.485 23.348-16.231-7.993 3.993-21.227 3.121-28.715-2.747-3.997-1.497-9.114-.875-13.235 0-5.492 10.361 7.493 21.599-2.996 29.714-7.988 1.622-17.105-2.123-24.469.872.25 1.124 1.121 2.124 1.996 2.749 15.981 7.988 28.465-9.115 44.946-1.499 6.867 4.12 13.98 7.988 21.848 9.613z" fill="#be9905"/><path d="m33.719 60.83c14.981-4.246 28.465 8.488 43.197 1.872l2.122-2.747c-2.747 1.375-7.241 1.997-11.111 2.122-14.732.749-27.417-10.702-43.696.875-6.846 3.423-10.596.048-15.605 4.495 8.739-1.25 18.477-.375 25.093-6.617" fill="#231f20"/><path d="m298.268 70.443c-.125-1.249-1-2.746-2.371-2.996-7.618-1.749-14.985-4.245-21.227-9.238-15.605-8.365-28.715 8.363-44.692 1.746-1.625-.749-3.496-1.746-4.496-3.62-1 .375-.375 2.246-.5 2.746 3.496 5.745 11.489 5.245 17.356 5.12 9.488-1.749 18.727-9.363 29.086-3.871 7.617 4.368 15.359 8.364 24.473 9.238.871.125 1.496.75 2.371.875" fill="#231f20"/><path d="m153.072 7.271c9.238-.125 19.85-1.623 27.84 2.372-.375-1.622-1.125-3.745-2.996-4.245-14.732-3.371-30.962.5-45.319-1.998-5.119.5-10.987 3.371-12.485 8.615l.25 1.499c7.241-11.112 21.348-5.12 32.71-6.243z" fill="#be9905" stroke="#231f20" stroke-miterlimit="3.864" stroke-width=".5"/><path d="m246.83 8.394c2.871 1.749 5.617 4.246 7.742 6.992.496-1.622.496-2.872 0-4.493-7.867-9.74-21.351-7.743-33.211-7.493-13.356 1.998-25.219 7.615-38.078 10.986-1.123.25-.375 1.874-.625 2.749 20.101-5.992 42.199-16.107 64.172-8.741z" fill="#be9905" stroke="#231f20" stroke-miterlimit="3.864" stroke-width=".5"/><path d="m116.741 14.386c-21.972-5.243-51.435-22.971-71.037-1.122v2.621c9.114-10.862 23.971-13.858 36.954-9.239 12.236 3.747 24.845 6.743 36.83 11.361 0-1.497-.875-3.493-2.747-3.621z" fill="#be9905" stroke="#231f20" stroke-miterlimit="3.864" stroke-width=".5"/><path d="m46.704 24.374c1.248-2.746-2.123-2.496-3.622-3.371-9.737-1.247-18.102 3.621-27.84 2.124-3.87-.75-7.615-1.624-11.486-2.371l.999 2.121c10.487 4.369 21.474 2.746 32.585.5 3.246-.125 6.367.25 9.364.997z" fill="#be9905" stroke="#231f20" stroke-miterlimit="3.864" stroke-width=".5"/><path d="m298.018 24.874c1.25-.875 1.25-2.497 1.5-3.871-6.493 4.495-15.606 7.991-23.348 3.871-5.492-4.868-13.61-5.493-20.973-4.118l-.875 2.621c13.485-4.995 20.848 9.362 34.457 5.117 3.246-.748 6.368-1.996 9.239-3.62z" fill="#be9905" stroke="#231f20" stroke-miterlimit="3.864" stroke-width=".5"/><path d="m180.287 44.724c-.125-5.493-6.742-4.119-10.236-5.993-15.856-3.121-33.459-1.122-48.192 2.996l-.249 2.997c17.603-6.368 40.949-6.368 58.677 0z" fill="#be9905" stroke="#231f20" stroke-miterlimit="3.864" stroke-width=".5"/><path d="m139.213 48.595c-.249-3.746-4.743-1.622-6.866-1.747-2.996.622-6.992.997-9.863 0-.749.372-.625 1.122-.625 1.747 5.119 3.745 11.237-.997 17.354 0z" fill="#be9905" stroke="#231f20" stroke-miterlimit="3.864" stroke-width=".5"/><path d="m251.947 51.591-.371-1.497c-7.742 1.247-16.48-2.374-24.219.625l-.875 2.371c8.489-2.749 16.231 1.623 24.469-.625z" fill="#be9905" stroke="#231f20" stroke-miterlimit="3.864" stroke-width=".5"/><path d="m76.916 53.713c.125-2.497-2.122-2.372-3.871-2.747-7.614.5-15.98 4.369-23.096.375-.5.375-.25 1.124-.25 1.749 8.49 5.991 17.354-1.374 27.217.623z" fill="#be9905" stroke="#231f20" stroke-miterlimit="3.864" stroke-width=".5"/><path d="m197.017 47.098c15.231-4.246 32.836-8.367 48.567-3.246l7.238 4.493c.5-.747.125-1.872.25-2.747-5.242-4.743-12.484-4.868-19.101-6.243-21.348-1.621-39.075 7.118-57.305 13.735-4.742 1.123-10.736 2.245-14.356-2.124-.875 1.249-.875 2.374 0 3.622 11.075 7.162 23.346-4.494 34.707-7.49z" fill="#be9905" stroke="#231f20" stroke-miterlimit="3.864" stroke-width=".5"/><path d="m141.96 53.34v-1.749c-5.743 3.247-11.2 2.409-18.852.249-15.855-7.613-32.46-13.484-51.56-13.109-8.365-.375-15.232 2.746-21.849 6.617-1.373.75-.749 2.497-.999 3.871 23.721-15.106 54.184-3.246 76.781 5.991 5.118 1.125 12.734 3.246 16.479-1.87z" fill="#be9905" stroke="#231f20" stroke-miterlimit="3.864" stroke-width=".5"/><path d="m298.268 70.443c-.125-1.249-1-2.746-2.371-2.996-7.618-1.749-14.985-4.245-21.227-9.238-15.605-8.365-28.715 8.363-44.692 1.746-1.625-.749-3.496-1.746-4.496-3.62-1 .375-.375 2.246-.5 2.746 3.496 5.745 11.489 5.245 17.356 5.12 9.488-1.749 18.727-9.363 29.086-3.871 7.617 4.368 15.359 8.364 24.473 9.238.871.125 1.496.75 2.371.875z" fill="#be9905" stroke="#231f20" stroke-miterlimit="3.864" stroke-width=".5"/><path d="m33.719 60.83c14.981-4.246 28.465 8.488 43.197 1.872l2.122-2.747c-2.747 1.375-7.241 1.997-11.111 2.122-14.732.749-27.417-10.702-43.696.875-6.846 3.423-10.596.048-15.605 4.495 8.739-1.25 18.477-.375 25.093-6.617z" fill="#be9905" stroke="#231f20" stroke-miterlimit="3.864" stroke-width=".5"/><path d="m179.592 48.48v-1.499c-5.869.624-10.986-2.372-16.481-.875-.125.875-.747 1.499-.872 2.374 5.742-1.749 11.449 2.28 17.353 0z" fill="#be9905" stroke="#231f20" stroke-miterlimit="3.864" stroke-width=".5"/></g><path d="m254.705 274.932.875-.5c-11.109-5.493-17.977-16.977-18.852-28.839l-.25-133.958-.621-6.492c-2.625-10.114-12.484-19.353-22.472-21.974-20.602-5.742-48.818 4.995-62.675-15.855-13.857 20.85-42.073 10.113-62.675 15.855-9.988 2.621-19.847 11.86-22.472 21.974l-.621 6.492-.25 133.958c-.875 11.862-7.742 23.346-18.852 28.839l.875.5z" fill="none" stroke="#231f20" stroke-miterlimit="3.864" stroke-width="2"/><g clip-path="url(#a)" stroke="#231f20" stroke-miterlimit="3.864" stroke-width="2"><path d="m150.71 67.314c13.857 20.85 42.073 10.113 62.675 15.855 9.988 2.621 19.847 11.86 22.472 21.974l.621 6.492.25 133.958c.875 11.862 7.743 23.346 18.852 28.839l-.875.5-103.995-.25z" fill="#ed192d"/><path d="m150.71 67.314c-13.857 20.85-42.073 10.113-62.675 15.855-9.988 2.621-19.847 11.86-22.472 21.974l-.621 6.492-.25 133.958c-.875 11.862-7.742 23.346-18.852 28.839l.875.5 103.178.568z" fill="#543097"/></g><path d="m254.705 274.932.875-.5c-11.109-5.493-17.977-16.977-18.852-28.839l-.25-133.958-.621-6.492c-2.625-10.114-12.484-19.353-22.472-21.974-20.602-5.742-48.818 4.995-62.675-15.855-13.857 20.85-42.073 10.113-62.675 15.855-9.988 2.621-19.847 11.86-22.472 21.974l-.621 6.492-.25 133.958c-.875 11.862-7.742 23.346-18.852 28.839l.875.5z" fill="none" stroke="#231f20" stroke-miterlimit="3.864" stroke-width="2"/><path d="m197.89 167.643h-28.497v27.687l-1.057.73h-34.408l-.732-.875v-27.542h-28.856l-.957-1.078v-35.522l.957-.733h28.856v-29.586l.732-.804h34.408l1.057.804v29.586h28.497l1.056.88v35.357z" fill="#be9905" stroke="#231f20" stroke-width="2"/><path d="m90.584 199.316 5.481 19.133-15.98 12.091 20.051.174 6.359 18.631 6.546-18.631 19.467-.174-15.463-12.091 6.52-19.133-17.07 11.708z" fill="#231f20"/><path d="m111.123 229.621-4.244-5.995v19.727z" fill="#be9905"/><path d="m115.444 220.153-7.049 2.061 18.651 6.423z" fill="#be9905"/><path d="m107.805 212.924-.218 7.341 11.872-15.754z" fill="#be9905"/><path d="m98.238 218.136 6.957 2.354-11.594-15.959z" fill="#be9905"/><path d="m100.349 228.439 4.389-5.889-18.761 6.096z" fill="#be9905"/><path d="m143.682 139.301c-.555-.369-5.079 2.124-6.926 3.232s-2.678 2.585-4.248 2.678c-1.569.092-3.693 0-4.063.369-.369.369-.369.462-.369.462h44.324s1.478 1.108 1.201 2.678c-.278 1.57-1.108 1.386-1.108 1.386s2.677.922.647 4.247c-1.137 1.86-2.586.091-3.14.923-.391.585.461 2.216 3.231 2.216 2.771 0 3.971-3.048 3.971-5.448s-1.846-7.85-5.356-8.864c-3.508-1.016-5.078-.555-5.078-.555s1.015 0 1.015 1.569c0 .924-1.933.74-1.933.74h-29.556s1.755-2.401 4.525-3.509c2.77-1.109 3.417-1.755 2.863-2.124" fill="#fff" fill-rule="evenodd"/><path d="m127.018 162.904s.999-2.229.379-4.712c-.621-2.482-2.234-3.62-2.743-5.355-.845-2.89.078-6.399.078-6.399h6.464s1.064.952.355 2.814c-.71 1.862-1.696 3.635-1.253 4.698.443 1.065 2.127 3.812.798 5.852-1.33 2.038-4.078 3.102-4.078 3.102" fill="#231f20" fill-rule="evenodd"/><path d="m128.968 153.345s-1.52-1.434-2.14-2.852c-.621-1.419-.355-2.926-.355-2.926h3.413s.524.69-.089 1.952c-.918 1.886-.829 3.826-.829 3.826" fill="#ed192d" fill-rule="evenodd"/><path d="m128.32 160.893s.743-1.416.028-3.485c-.767-2.217-1.801-3.234-2.245-4.386-.443-1.153-.326-3.002-.326-3.002s.234 1.86 2.748 4.374c1.332 1.333 2.216 2.482 1.861 3.989-.354 1.507-2.066 2.51-2.066 2.51" fill="#ed192d" fill-rule="evenodd"/><path d="m138.049 130.667h25.948c.816 0 1.478-.59 1.478-1.315v-.001c0-.727-.662-1.316-1.478-1.316h-25.948c-.816 0-1.478.589-1.478 1.316v.001c0 .725.662 1.315 1.478 1.315z" style="fill:#231f20;stroke:#231f20;stroke-width:.5;stroke-linecap:round;stroke-linejoin:round;stroke-miterlimit:3.864"/><path d="m142.48 134.498c3.51.74 2.614 1.767 4.526 1.939h7.571c1.912-.172 1.017-1.199 4.526-1.938.408 0 .739-.331.739-.738v-.693c0-.408-.331-.739-.739-.739h-16.622c-.408 0-.738.331-.738.739v.693c0 .407.339.653.737.737z" style="fill:#231f20;stroke:#231f20;stroke-width:.5;stroke-linecap:round;stroke-linejoin:round;stroke-miterlimit:3.864"/><path d="m144.19 154.953h5.245l-.351.462c-1.247.276-1.154 1.195-1.154 1.616 0 .792.798 1.468 1.92 1.73l-.004.093c0 .532.398.969.912 1.032l.126.008c.533-.045.948-.496.948-1.04l-.004-.093c1.121-.262 1.92-.938 1.92-1.73 0-.421.092-1.34-1.154-1.616l-.353-.462h5.245c.817 0 1.479-.6 1.479-1.339s-.662-1.339-1.479-1.339h-13.296c-.816 0-1.478.6-1.478 1.339s.662 1.339 1.478 1.339z" style="fill:#231f20;stroke:#231f20;stroke-width:.5;stroke-linecap:round;stroke-linejoin:round;stroke-miterlimit:3.864"/><path d="m121.981 147.52h12.744s2.73 1.699 4.616 2.492c1.333.561 3.51 1.201 3.51 1.201h15.513s2.585-1.478 4.802-1.662c2.216-.185 4.155.277 4.155.831 0 .553-2.308 1.386-2.123 4.433.184 3.046 4.509 6.325 7.018 6.279 5.078-.092 8.772-3.879 8.403-8.866-.369-4.986-3.141-13.389-13.851-14.128-10.712-.739-24.01-.461-24.01-.461s-7.11 2.955-10.435 4.525c-3.324 1.569-4.894 1.2-7.202 1.847-2.309.645-3.14 3.509-3.14 3.509" fill="#231f20" fill-rule="evenodd"/><path d="m143.682 139.301c-.555-.369-5.079 2.124-6.926 3.232s-2.678 2.585-4.248 2.678c-1.569.092-3.693 0-4.063.369-.369.369-.369.462-.369.462h44.324s1.478 1.108 1.201 2.678c-.278 1.57-1.108 1.386-1.108 1.386s2.677.922.647 4.247c-1.137 1.86-2.586.091-3.14.923-.391.585.461 2.216 3.231 2.216 2.771 0 3.971-3.048 3.971-5.448s-1.846-7.85-5.356-8.864c-3.508-1.016-5.078-.555-5.078-.555s1.015 0 1.015 1.569c0 .924-1.933.74-1.933.74h-29.556s1.755-2.401 4.525-3.509c2.77-1.109 3.417-1.755 2.863-2.124" fill="#be9905" fill-rule="evenodd"/><path d="m192.419 180.78c0 2.577 2.089 4.667 4.666 4.667 2.578 0 4.667-2.09 4.667-4.667s-2.089-4.666-4.667-4.666c-2.577 0-4.666 2.089-4.666 4.666z" fill="#be9905" stroke="#231f20" stroke-miterlimit="3.864" stroke-width="2"/><path d="m201.481 246.62v-41.712h-8.725v41.712c0 3.725 4.251 9.493 4.251 9.493s4.474-5.63 4.474-9.493z" fill="#be9905" stroke="#231f20" stroke-miterlimit="3.864" stroke-width="2"/><path d="m192.451 205.88h9.343c.672 0 1.216-.494 1.216-1.103v-1.355c0-.609-.544-1.103-1.216-1.103h-9.343c-.672 0-1.216.494-1.216 1.103v1.355c0 .609.544 1.103 1.216 1.103z" fill="#be9905" stroke="#231f20" stroke-miterlimit="3.864" stroke-width="2"/><path d="m194.085 189.189h6.175v-3.5h-6.175z" fill="#be9905" stroke="#231f20" stroke-miterlimit="3.864" stroke-width="2"/><path d="m205.215 202.32v-2.722c0-1.503-1.634-2.721-3.647-2.721h-8.965c-2.013 0-3.647 1.218-3.647 2.721v2.722z" fill="#be9905" stroke="#231f20" stroke-miterlimit="3.864" stroke-width="2"/><path d="m194.085 196.66h5.925v-3.5h-5.925z" fill="#be9905" stroke="#231f20" stroke-miterlimit="3.864" stroke-width="2"/><path d="m194.085 192.954h6.175v-3.5h-6.175z" fill="#be9905" stroke="#231f20" stroke-miterlimit="3.864" stroke-width="2"/><g fill="#231f20"><path d="m159.563 394.666c-.125-.374-.498-.249-.873-.374-.624.374 0 .998.375 1.248.125-.25.623-.499.498-.874" fill-rule="evenodd"/><path d="m144.956 394.042v-.625c-.374.125-.499-.125-.624-.25-.499.375-.624.625-.249 1.125.249 0 .624.125.873-.25" fill-rule="evenodd"/><path d="m159.065 391.294c-.126-.374.125-.874-.375-1.124h-.25v1.124z" fill-rule="evenodd"/><path d="m144.956 390.17h-.873c-.25.625.249 1.124.873.875z" fill-rule="evenodd"/><path d="m158.69 386.8c0-.25.125-.624-.25-.874-.75 0-.624.749-.624 1.248.373 0 .748 0 .874-.374" fill-rule="evenodd"/><path d="m223.986 386.8c0-.25.121-.624-.25-.874h-.625v1.248c.375 0 .746 0 .875-.374" fill-rule="evenodd"/><path d="m79.662 386.301c-.125-.375 0-.749-.375-.999h-.624v1.248c.375 0 .749.125.999-.249" fill-rule="evenodd"/><path d="m145.206 386.55c0-.374.125-.749-.25-.873h-.624v.873z" fill-rule="evenodd"/><path d="m234.221 384.428c.25-.874-.375-.874-.871-1.124v1.498c.25 0 .621 0 .871-.374" fill-rule="evenodd"/><path d="m69.176 383.304c0-.374-.125-.499-.375-.624h-.874v.874c.375-.125.999.25 1.249-.25" fill-rule="evenodd"/><path d="m82.034 382.306c-.25.125-.499-.125-.624-.25-.623.375-.623.999-.25 1.498.5-.25 1.124-.25.874-1.248" fill-rule="evenodd"/><path d="m220.986 383.304c0-.374.129-.748-.25-.998h-.621v1.248c.375 0 .75.125.871-.25" fill-rule="evenodd"/><path d="m158.066 382.93c-.376-9.737-1.5-19.975-2.373-29.963h-.625c.375 9.863 1.623 19.976 2.498 29.963z" fill-rule="evenodd"/><path d="m145.58 382.056c.5-9.613 1.374-19.351 1.499-28.715h-.624l-2.123 28.965c.499.374.749.25 1.248-.25" fill-rule="evenodd"/><path d="m121.859 380.807c.125-.249-.124-.374-.249-.499h-.623v1.124c.373.124.623-.375.872-.625" fill-rule="evenodd"/><path d="m229.978 381.182h.996v-1.248h-.996z"/><path d="m182.41 380.558c.125-.499-.375-.874-.623-1.248-.127.249-.377.499-.625.374-.25.499.748 1.748 1.248.874" fill-rule="evenodd"/><path d="m71.797 380.308v-.998h-.874c-.624.374.125.873.25 1.248.375.125.5-.125.624-.25" fill-rule="evenodd"/><path d="m194.396 379.684c0-.249-.125-.499-.375-.624h-.5v.874c.25 0 .625.125.875-.25" fill-rule="evenodd"/><path d="m218.365 379.684v-.624c-.371.125-.5-.125-.621-.25-.375.25-1 .749-.25 1.124.25 0 .621.125.871-.25" fill-rule="evenodd"/><path d="m84.656 379.31c0-.25.125-.625-.25-.875-.374-.125-.624.375-.873.625.124.624.748.874 1.123.25" fill-rule="evenodd"/><path d="m109.25 379.31c.125-.375-.374-.5-.624-.875-.499.375-.624.5-.499 1.249.375-.125.999.25 1.123-.374" fill-rule="evenodd"/><path d="m228.478 378.186c0-.375.25-.999-.25-1.248-.375.124-1-.25-1.25.374-.371.749.625.749 1 1.123.125-.125.25-.374.5-.249" fill-rule="evenodd"/><path d="m75.168 376.314c0-.25-.125-.375-.374-.5h-.625v1.124c.5.124.625-.375.999-.624" fill-rule="evenodd"/><path d="m123.108 376.688c-.125-.374 0-.749-.374-.874-.375-.125-.625.375-.875.5-.124.748.875.873 1.249.374" fill-rule="evenodd"/><path d="m120.987 331.994c-.25-.125-.375-.25-.375-.624h-.5c-11.111 15.105-23.096 29.713-34.208 44.694l.625.624c11.236-14.732 23.221-29.589 34.458-44.694" fill-rule="evenodd"/><path d="m180.912 376.314c0-.25 0-.625-.375-.875-.25 0-.623 0-.873.375 0 .375.748 1.373 1.248.5" fill-rule="evenodd"/><path d="m215.369 376.064v-.875l-32.334-41.697h-1l.375 1.248c10.861 13.857 21.974 27.965 32.584 41.574z" fill-rule="evenodd"/><path d="m111.123 375.439c-.124-.25 0-.624-.374-.874h-.624v1.249c.374 0 .749 0 .998-.375" fill-rule="evenodd"/><path d="m191.398 375.814h.625v-1.249h-.625z"/><path d="m224.982 374.316-.625-1.498c-11.234-11.112-20.973-23.471-31.835-34.208-.374.25-.25.624-.25.874 10.862 11.735 21.476 23.971 32.335 35.081z" fill-rule="evenodd"/><path d="m77.79 373.692c10.861-12.111 22.222-24.595 33.333-36.829l-.624-.625-33.833 36.83c.25.499.5.624 1.124.624" fill-rule="evenodd"/><path d="m179.039 370.696-10.113-28.216h-.623v1.873c3.994 9.238 6.492 19.102 10.486 28.465 1.125-.125.375-1.498.25-2.122" fill-rule="evenodd"/><path d="m124.606 371.819c3.372-9.988 7.117-20.225 9.864-30.213h-.874c-2.997 9.988-6.243 19.727-9.989 29.339-.249.624.375 1.123.999.874" fill-rule="evenodd"/><path d="m189.9 370.321c-5.742-10.363-10.236-21.599-16.228-31.711-.5.25-.25.874-.25 1.249l15.855 31.71h.623z" fill-rule="evenodd"/><path d="m129.351 337.736-.624-.624c-5.993 10.611-10.613 22.347-16.73 33.209-.25.624.25 1.248.874.999z" fill-rule="evenodd"/><path d="m276.17 370.321c.125-.374-.375-.499-.625-.874-.75 0-.625.749-.625 1.249.375-.125 1 .249 1.25-.375" fill-rule="evenodd"/><path d="m27.477 369.822h.874v-1.249h-.874z"/><path d="m60.686 369.197v-.874c-.374 0-.998-.249-1.124.25 0 .499.75 1.374 1.124.624" fill-rule="evenodd"/><path d="m240.213 368.323h.875v-.998h-.875z"/><g fill-rule="evenodd"><path d="m271.924 367.699c-.125-.124-.375-.374-.25-.624-.375 0-.746-.125-.871.25-.25.749.871 1.373 1.121.374"/><path d="m280.912 367.699c0-.374.129-.749-.25-.873-.371 0-.746-.125-.871.249-.25.749.375.375.5.874.25-.125.371-.374.621-.25"/><path d="m31.972 367.325c0-.25.125-.624-.25-.874h-.999c-.374.874.624 1.748 1.249.874"/><path d="m21.484 367.075c0-.374.125-.749-.25-.874h-.624v1.124c.25 0 .624.125.874-.25"/><path d="m167.43 367.075c0-.249-.127-.374-.377-.624h-.498v.874c.25 0 .625.125.875-.25"/><path d="m135.593 366.826c.125-.375-.125-.5-.249-.625h-.874v.874c.374-.125.998.25 1.123-.249"/><path d="m53.57 366.201c-.25-.125-.375-.375-.375-.624h-.874c.124.249-.125.499-.25.624.374.749 1.124.749 1.499 0"/><path d="m249.205 366.451c0-.25.121-.625-.25-.874h-1c-.375.874.625 1.623 1.25.874"/><path d="m64.681 365.826c-.125-.249.125-.374.25-.499-.25-.249-.5-.749-.874-.624-1.248.375-.375 1.748.624 1.123"/><path d="m268.053 365.577v-.624h-1.121c-.5.873.75 1.248 1.121.624"/><path d="m277.045 365.327c.125-.374-.125-.499-.25-.624h-.875v.874c.375-.125.875.249 1.125-.25"/><path d="m237.467 365.327c.25-.624-.25-.873-.5-1.248-.746-.125-.625.749-.625 1.248z"/><path d="m36.216 364.703c-.124-.374 0-.749-.374-.874h-.874v1.124c.375 0 .999.249 1.248-.25"/><path d="m196.517 364.703c-.125-.374.125-.999-.375-1.248h-.871c.121.624-.25 1.373.621 1.498.125-.125.25-.375.625-.25"/><path d="m25.979 363.829c-.624-.125-1.499 0-1.249.874h1.249z"/><path d="m107.128 363.455c-.124-.5-.749-.125-1.123-.25-.749 1.249 1.623 1.748 1.123.25"/><path d="m166.18 364.079c-.25-5.12-1.871-10.363-2.996-15.607h-.874l3.247 15.607z"/><path d="m57.439 363.455c0-.25.126-.625-.249-.874-.375 0-.749-.125-.999.249-.125.75.375.5.624.999.25-.249.375-.374.624-.374"/><path d="m245.334 363.455c0-.25 0-.625-.375-.874h-.5v1.248c.25 0 .625 0 .875-.374"/><path d="m264.185 363.205v-.624c-14.234-8.616-28.214-17.854-42.574-26.343-.375.125-.25.5-.25.874 14.235 8.614 28.215 17.852 42.574 26.343z"/><path d="m273.174 363.205c0-.375.125-.749-.25-.874h-.625v1.124c.25 0 .625.125.875-.25"/><path d="m136.592 362.331 2.621-14.108h-.873l-2.996 14.982c.748.375.873-.624 1.248-.874"/><path d="m96.642 338.86c0-.25.124-.624-.25-.874-9.988 7.24-19.226 16.104-29.089 23.72l.374 1.124c9.738-7.616 19.226-16.23 28.965-23.97"/><path d="m30.224 362.331v-.998h-1.248c-.125.748 0 .998.624 1.248.125-.125.25-.375.624-.25"/><path d="m82.658 335.863c-.125-.249 0-.624-.374-.873h-.874c-14.107 9.238-28.34 17.852-42.572 26.716-.249.75.375.375.624.875 14.483-8.616 28.715-17.729 43.196-26.718"/><path d="m233.971 362.331v-.625l-25.219-21.348c-.371.125-.997-.125-1.247.375 8.364 7.49 17.227 14.981 26.095 21.848z"/><path d="m268.678 360.833v-.625c-15.231-9.114-30.586-17.728-45.817-26.342-.375.125-.375.5-.375.874 15.481 8.49 30.461 17.853 45.942 26.343z"/><path d="m193.771 360.458-18.851-30.212h-.625v1.124l18.602 29.463c.25 0 .624 0 .874-.375"/><path d="m241.088 360.833c-.125-.375.125-.5.375-.625-8.488-6.367-16.856-12.859-25.469-18.851-.375.124-.375.499-.375.873 8.738 5.618 16.731 13.109 25.469 18.603"/><path d="m126.978 331.12v-.25h-.624l-18.227 28.963.499.625c6.367-9.364 12.984-19.601 18.352-29.338"/><path d="m81.16 332.368h-1.248l-46.692 26.591.25 1.249 47.69-26.966z"/><path d="m89.775 339.234c0-.374.124-.749-.25-.874-9.613 6.492-18.851 14.108-28.464 20.599v1.249h.874z"/><path d="m220.736 358.71h-1.246c-.25.749.375 1.498 1.246 1.123z"/><path d="m82.658 358.959c-.125-.374.25-.998-.374-1.123-.749-.375-.749.499-1.124.874.25.499.999.873 1.498.249"/><path d="m217.994 356.837v-.499c-5.871-5.494-11.614-11.361-17.606-16.479l-.625.499c5.617 5.243 12.36 12.11 17.981 16.853z"/><path d="m85.654 355.963c6.243-6.866 13.734-12.484 19.976-19.475-.374-.625-.998-.625-1.498-.25-6.242 6.492-13.359 12.984-19.726 19.101-.125.749.749.624 1.248.624"/><path d="m61.31 354.215c0-.374.125-.749-.249-.874-.624-.249-.874.25-1.248.5-.125.999 1.123.749 1.497.374"/><path d="m241.963 354.215c0-.499-.5-.874-.875-1.248-.875 0-.75 1.123-.25 1.498.375 0 1 .25 1.125-.25"/><path d="m237.217 350.345c-5.992-3.62-11.61-8.115-17.727-11.735-.5.25-.125.874-.25 1.249l17.727 11.984c.625-.374.625-.999.25-1.498"/><path d="m85.03 337.986v-.624h-1.497l-18.602 12.983-.25 1.124 1.498-.25z"/><path d="m157.816 340.982c3.244-1.248 1.872-5.618 5.368-6.242.998-3.246 5.119-1.998 5.369-5.368.373-2.747-.375-4.87-1.5-6.992-1.248-1.374-3.619-1.249-5.367-.874-1.374 1.124-2.123-.749-3.246-1.124 3.745-3.121 8.99-3.37 13.484-.998l3.869 3.62c.623-3.371 4.369-5.743 7.49-6.242h.875c.873 4.244-6.242 5.493-2.371 10.113.748 1.623 1.871 2.996 3.244 4.245 3.996-.999 6.242 1.997 10.24.874 1.246 1.498 2.746 2.122 4.492 2.372 1.5 0 1.5-1.624 2.746-2.372 1.875 1.623 4.246 2.996 6.868 2.122 1.375-.749 2.996-1.748 3.871-3.246.375-2.247.875-5.743-1.5-6.992-1.246 0-2.371-.999-3.618-.25-1.25.374-1.25 1.748-1.75 2.747-1.746-1.998-2.496-5.743-5.742-6.617-.375-1.123-.375-2.372-1.125-3.37-3.496.124-3.621-3.746-5.492-5.618.625-1.374.375-3.121-.874-4.245-2.124-1.373.374-3.621-.875-5.368-.499-1.374-1.499-2.123-2.747-2.996-.498-2.248.25-6.118-2.996-7.492-21.097-5.368-44.319-3.995-66.167-1.248-2.497 1.123-6.242 1.123-6.866 4.494.873 3.497-2.622 4.121-3.371 6.618 2.746 4.619-3.996 5.118-1.998 9.363.375 1.498-.749 3.121-1.873 4.494-1.997-.749-3.37.998-4.494 1.998.25 3.495-3.745 5.368-5.118 8.114-1.249-.874-2.622-2.497-4.496-1.498-1.623.25-1.997 2.123-2.621 3.371.499 2.123.998 4.87 3.62 5.619 2.748 1.748 5.869-1.249 8.366-.25 2.621.25 5.368 0 6.616-2.747.624.999 2.123.749 2.996.375 1.748-.749 4.245.999 6.492 0 2.372-1.249 3.247-3.745 3.62-5.994.25-2.996-3.121-4.494-3.246-7.24 2.623-.375 5.369 1.373 6.867 3.87.374.873.374 1.997 1.249 2.746 3.496-3.87 8.739-5.243 13.733-3.87.999.749 2.871.625 2.996 2.372-1.748 3.246-3.621-1.373-5.992.625-2.497 1.872-3.995 5.244-3.246 8.365 1.498 3.371 6.242.499 7.116 4.494 0 1.998-.749 3.745 1.248 5.119 3.62.499 4.869 6.741 9.238 3.87 2.497.624 6.118.499 6.618-2.747"/></g></g><path d="m155.693 340.982c-.25-.873-.625-1.748-.875-2.622 1.248-1.747 5.245.125 3.622-3.37-.999-1.248-2.997-2.123-2.997-3.87 1.123-.874 3.372-.999 4.495-.25-.125.874-1.123 1.498 0 2.372.872.874 1.622-.375 2.372-.624-.125-.999.126-1.748.874-2.372 1.748.25 3.496-.375 3.621-2.123-.375-1.873-.25-4.62-2.746-5.119-2.124-.624-1.998 2.372-3.872 2.372-1.122-.874-1.623-3.371-3.246-2.622-.875.874-1.248 2.498-2.746 2.622-1.123-.499-1-1.873-.625-2.622 2.871-4.244 6.993-6.366 11.737-6.616 3.994.125 7.115 1.872 10.238 4.244 1.371-2.996 4.369-4.744 7.49-5.118 3.494-.874 5.865 1.124 8.363 2.996.125.749-.375 1.373-.873 1.498-1.498-.624-2.873-2.247-4.496-1.248-.623 1.498 1.623 2.496 0 3.62-1.996-.125-3.994 1.248-2.746 3.246.375 1.499 1.375 2.872 2.746 3.996 2.748 1.248 5.869-5.994 5.619.249.5.125.874.375 1.499.25.999-1.623-1.374-5.494 2.374-5.619 1.371-.25 2.621.25 2.996 1.499.871 2.372-2.75 2.122-1.75 4.495.875.749 1.5 1.748 2.746 1.748 1.125-1.124 1.125-2.997 3.246-2.622 1.375 1.623 2.871 2.622 4.746 2.996 1.872-.374 3.747-1.373 4.243-3.371.25-1.624-.246-3.246-1.746-3.87-.625-.125-.875.249-1.25.624-.25 1.124.75 2.997-.872 3.246-1.875.125-3.621-.999-4.496-2.622-.375-1.498-1.125-2.747-2.121-3.995-1.125 0-2.621-.749-2.746-1.998.125-.998-.125-1.872-.875-2.497-2.871.625-3.871-3.121-6.244-3.87-4.119-1.498-9.738-2.247-13.482.624-1.623.5-2.498 3.746-4.494 2.373-4.994-3.621-11.987-3.371-17.106-.25-1.996 1.373-3.744 3.121-5.118 5.119-4.369-5.993-11.235-8.614-18.227-6.992-1.872.624-3.745 1.249-5.118 2.747-3.871-4.619-9.864-6.118-15.606-4.494-3.121.125-4.744 4.743-8.115 3.246-1.248 1.622.5 4.743-2.621 5.118-1.998 1.872-2.747 5.744-5.993 5.744-1.124-.75-1.373-3.622-3.372-2.123-1.248.998 0 2.496 0 3.621.999 1.997 3.622 1.997 5.494 1.498 1.748-.874 4.12-3.621 5.368-.375.999.25 1.998-.125 2.622-.874.874-2.497-4.244-4.495-.249-6.617 1.623-.25 2.996.499 3.62 1.872.249 1 .749 1.873.624 2.998 1.249.123 1.498-1.998 2.996-1.499.625 1.997 2.871 1.997 4.495 1.499 1.497-.625 1.872-2.248 1.997-3.622.625-2.372-2.746-3.121-2.372-5.368-2.122-3.121-5.742 2.372-7.491-1.248 3.496-1.998 7.866-3.621 11.985-2.123 2.372.874 3.746 2.996 5.369 4.869 3.87-3.121 9.613-4.245 14.482-2.372 3.496 1.249 6.743 4.495 7.99 7.99-.25.624-.999.251-1.497.375-1.499-.874-.75-4.87-3.496-2.997-1.624.749-.5 3.371-2.747 2.997-1.373-.874-1.998-3.371-3.87-2.123-1.124 1.874-2.996 3.995-1.873 5.993 1.498 2.497 5.369-1.373 5.493 2.747 1.748 1.623 5.993-4.745 4.744.874-.999.999-2.122 1.623-2.996 2.621-.5 1.624.624 2.747 1.748 3.371.998-.25 1.998-2.246 2.997-.624-.375.749-1.374 1.748-.5 2.747 2.372 1.623 5.243.499 7.989.499z" fill="#be9905" fill-rule="evenodd"/><path d="m153.32 331.994c.625-2.123.25-4.496-.873-6.243-.625-.499-1.748-.874-2.372-.375-1.873 1.749-2.246 4.37-1.499 6.618.25.998.75 2.122 1.749 2.372 1.622.249 2.122-1.374 2.995-2.372" fill="#231f20" fill-rule="evenodd"/><path d="m192.522 309.271c.25-.749-.624-1.373-1.124-1.498-26.091 4.869-55.056 5.119-80.899-.374-.624.374-.749.998-.624 1.498 5.867 3.121 13.108 2.621 19.726 3.995 21.722 1.498 42.946 1.623 62.921-3.621" fill="#be9905" fill-rule="evenodd"/><path d="m149.451 310.395c-2.497-1.498-5.119-2.746-7.491-4.495 1.998-1.996 5.119-2.871 7.491-4.743-11.361-.499-23.346-1.249-34.208-3.621-1.747 2.497 2.372 3.122 3.37 5.119-1.622 1.623-3.869 1.748-5.742 2.746-.25.874.749 1.124 1.249 1.748 11.361 1.997 22.971 3.496 35.331 3.246" fill="#be9905" fill-rule="evenodd"/><path d="m186.029 307.399c1.25-.125 2.871-.749 3.248-1.748-1.748-1.248-4.496-1.623-5.119-3.62 1.248-.874 2.996-2.248 3.371-3.621-11.486.624-22.847 2.747-34.832 2.747 2.248 1.997 5.618 2.622 7.241 4.743l-7.866 4.495c11.86.375 22.848-1.498 33.957-2.996" fill="#be9905" fill-rule="evenodd"/><path d="m140.462 308.023c-.374-.499-.374-1.123-.874-1.498-.999-.125-2.247 0-2.122 1.248-.25 1.623 2.871 2.248 2.996.25" fill="#231f20" fill-rule="evenodd"/><path d="m164.682 308.023c.125-.624 0-1.123-.623-1.498-1-.25-1.749.375-1.998 1.248-.251 1.873 2.621 1.873 2.621.25" fill="#231f20" fill-rule="evenodd"/><path d="m156.941 305.651c-1.498-1.248-3.996-3.745-5.992-1.498l-3.37 2.122 4.243 2.372c1.748-.749 3.371-1.872 5.119-2.996" fill="#be9905" fill-rule="evenodd"/><path d="m134.72 306.525c.873-.874.998-1.873.624-2.996-2.497-1.873-5.868-2.497-8.99-1.748-.749.499-1.498.624-2.123 1.498-.748 1.997 1.124 3.121 2.373 3.87 2.498.999 5.993.874 8.116-.624" fill="#231f20" fill-rule="evenodd"/><path d="m178.789 304.777c.125-1.998-1.623-2.871-3.244-3.37-2.998-.125-6.244-.125-7.867 2.497-.873 1.372.375 3.245 1.873 3.495 3.246.624 7.74.749 9.238-2.622" fill="#231f20" fill-rule="evenodd"/><path d="m183.533 305.651c.5-.999-.625-1.123-1.123-1.498-.5.375-1.498.375-1.498 1.248.375.874.375 1.124 1.123 1.748.75-.124 2.123-.249 1.498-1.498" fill="#231f20" fill-rule="evenodd"/><path d="m121.235 306.275c0-.874.25-1.997-.873-2.122-.874-.249-1.249.375-1.749.874-.499 1.748 1.749 2.372 2.622 1.248" fill="#231f20" fill-rule="evenodd"/><path d="m133.596 305.651c.874-.999.249-2.247-.999-2.747-1.873-1.123-4.494-.499-6.243.625-.498.375-.249.999-.249 1.498 1.623 2.122 5.369 1.998 7.491.624" fill="#be9905" fill-rule="evenodd"/><path d="m177.291 304.403c-.125-1.124-.875-1.499-1.746-1.998-1.873-.125-4.621-.374-5.994 1.499-.998 2.121 1.623 2.121 2.623 2.621 1.871-.375 4.242-.125 5.117-2.122" fill="#be9905" fill-rule="evenodd"/><path d="m141.086 303.279c0-.5-.624-.874-.998-1.248-.875-.125-1.499.249-1.998.873-.374 1 .375 1.873 1.123 2.123 1.124-.125 1.624-.749 1.873-1.748" fill="#231f20" fill-rule="evenodd"/><path d="m164.682 304.153c.125-.874-.25-1.498-.873-2.122-1-.25-1.624.374-1.748 1.248-.501.874.498 1.498 1.123 1.748.748.374.998-.624 1.498-.874" fill="#231f20" fill-rule="evenodd"/><path d="m190.525 304.403c.498-1.249.248-3.121-1-3.87-.748 1.123-1.873 1.248-2.621 2.371 1.125.625 2.123 1.499 3.621 1.499" fill="#be9905" fill-rule="evenodd"/><path d="m115.617 302.655c-.998-.749-1.747-2.247-2.996-2.372-.749.874-.874 2.496-.374 3.621 1.124-.375 2.372-.375 3.37-1.249" fill="#be9905" fill-rule="evenodd"/><path d="m183.035 301.781c.373-.999-.625-1.623-1.248-1.873-.5.5-1.5.375-1.5 1.249-.25.874.375 1.248.875 1.747.998.375 1.623-.249 1.873-1.123" fill="#231f20" fill-rule="evenodd"/><path d="m122.109 301.407c.125-.5 0-1.124-.499-1.499-.998-.25-1.872.375-2.122 1.249.624.374-.125 1.498.874 1.498 1.123.124 1.747-.125 1.747-1.248" fill="#231f20" fill-rule="evenodd"/><path d="m186.529 296.038c.75-.125.375-.749 1-1.123 0-2.247-2.248-2.622-3.621-3.622-20.849-4.244-46.442-3.87-66.792.874-.874.625-1.374 1.498-1.499 2.373 4.62 4.245 11.236 3.746 17.354 4.494 17.603 1.249 36.83.749 53.558-2.996" fill="#be9905" fill-rule="evenodd"/><path d="m184.158 294.29c.125-1.872-2.248-1.373-3.246-2.123-2.373-.624-1.623 1-2.996 2.123-16.106 1.748-34.208 1.998-50.313-.375-1.747-3.621-5.119-.375-7.491-.5l-.374.25c2.121 2.498 6.367 1.25 9.364 2.373 17.353 1.873 35.455 1.873 52.435-.624.873-.374 1.871-.249 2.621-1.124" fill="#231f20" fill-rule="evenodd"/><path d="m217.119 27.371c.25-3.247-4.121-6.493-2.125-9.614-.621-.372-1.246-.872-1.996-.622-3.246 3.243 1.996 6.614 2.371 10.236z" fill="#231f20" fill-rule="evenodd"/><path d="m247.955 27.621c-1.871-4.244-3.621-8.864-7.117-12.235.625 3.121 0 7.366-.625 10.737l-1.246 1.248 3.371 1.998c.996-2.123.996-4.62 1.746-6.867 1.871 2.247 2.371 4.994 3.621 7.49 1.371-.25-.125-1.498.25-2.371" fill="#231f20" fill-rule="evenodd"/><path d="m225.232 22.502c1.125-2.996 1.25-6.367 3.246-8.988-3.746-.125-4.492 4.243-6.242 6.617-1.871-1.499-2.246-5.867-5.117-4.745-.375.125-.25.499-.25.874 2.246 3.121 7.238 5.868 4.492 10.488-.871 1.623-1.246 3.244-2.371 4.744 3.621-1.5 4.996-5.619 6.242-8.99" fill="#231f20" fill-rule="evenodd"/><path d="m239.592 32.364c-.129-1.122-.625-1.747-1.75-2.372-.75.75-.125 2.247.625 2.997.5.25.75-.25 1.125-.625" fill="#231f20" fill-rule="evenodd"/><path d="m209.385 31.375c-1.747-3.246-3.254-6.629-4.5-10 .5-.623.87-.247 1.495-.372 3.122 1.999 2.001 8.241 6.618 7.243 0 0 .51-.477.512-.871.002-.519-.875-1-.875-1-1.495.498-2.883.123-2.633-1.751-.5-2.122.375-5.118-2.497-5.992-2.25-.75-3.999-.009-5.245-2.507-.25-.873-1.122-1.489-1.622-2.236-1.378.736.622 2.486 1.25 4.743-1.875 1.499-3.621 3.496-2.375 5.992.375 1.624 2.621 2.497 2.621 4.245-.125 1.123-1.999 1.381-1.121 2.623.509.721 1.746.25 2.371-.25 1.625-3.496-5.617-7.365 0-9.364 1.626 4.247 1.876 8.497 5.368 11.485 1-.124 1.008-1.488.633-1.988" fill="#231f20" fill-rule="evenodd"/><path d="m201.263 38.356c.5-.747.25-2.246.25-2.996-1.375.25-.75 1.874-2 2.496-1.496 1-2.996 1.625-4.867 1.749-1.375-1.749-1.375-3.995-2.124-5.992.999-.374 2.124-.999 2.999-.25l.371.25c.625-1.124-.621-2.121-.621-3.246-1.125.375-1.75 1.997-2.999 1.997-1.622-2.995-2.372-6.491-3.245-9.862 1.498-1.374 3.495-2.371 5.619-1.499.996 0 1.496 1.249 2.746.875 0-1.25-1-2.372-2.121-2.996-4.121.749-7.369 3.246-11.113 4.867 1.498.375 1.373 1.999 2.121 2.999l4.494 14.107c.377.997-.623 1.747-.248 2.372z" fill="#231f20" fill-rule="evenodd"/><path d="m188.029 44.349c0-.497.248-1.372-.25-1.747-.75 0-1 1.25-1.5 1.747-1.123 2.749 1.998 1.624 1.75 0" fill="#231f20" fill-rule="evenodd"/><path d="m185.656 44.349v-1.122c-1.373-.75-1.248 1.372-2.123 2.121.125 2.622 1.998.126 2.123-.999" fill="#231f20" fill-rule="evenodd"/><path d="m235.721 23.999c-1-2.371-.25-5.367-2.121-7.489-1.5-1.124-2.625.625-3 1.872.75 2.496.75 5.867 3.371 7.116.625-.125 1.5-.624 1.75-1.499zm2.121 0c.875-2.746-.25-5.367-1.871-7.489-1.25-.999-3.371-1.996-5.371-1.124-1.497.624-2.247 2.249-2.372 3.87-.125 2.996 1 5.993 3.872 7.117 2.371.248 4.742 0 5.742-2.374" fill="#231f20" fill-rule="evenodd"/><path d="m162.061 27.371c.748-2.872-3.246-7.99 1.123-8.989l.875.874c.623-.624-.127-1.621-.875-1.871-1.249-.5-2.872-.875-4.119-.25-1.874 2.496-.501 6.614 0 9.613.623.873 1.872.498 2.996.623" fill="#231f20" fill-rule="evenodd"/><path d="m163.809 31.242v-.625c-1.624-.498-2.999 1.247-4.744.25-.25.875.623 1.372 1.122 1.497 1.248-.25 3.247.749 3.622-1.122" fill="#231f20" fill-rule="evenodd"/><path d="m149.076 34.583c-.749-1.373-1.872-2.746-1.497-4.744 2.621-2.121 7.739-2.996 7.239-7.49.127-2.747-2.371-4.994-4.493-6.243-1.749-1.123-4.745-.25-5.369-2.746-.125-1 0-1.873.874-2.373h.25v-.625c-2.247-.873-4.744.5-6.867 0 1.124.75 3.246 2.123 2.373 4.246-3.246 1.373-7.491 3.247-7.741 7.491.625 2.248 1.873 4.744 3.871 6.242 1.872 1.123 4.743 0 6.367 2.121.748 1.5-.25 3.371-.375 4.496zm-5.992-6.865c0-3.746-.999-7.117-1.498-10.738-1.498.125-1.748 1.747-2.622 2.622-.624 1.997-.375 4.495.874 5.993.999.998 1.872 2.123 3.246 2.123zm7.49-3.871c.749-1.873.25-4.121-.873-5.742-1-1.125-2.122-1.999-3.621-1.999-.375 3.62.624 7.491 1.499 10.987 1.622-.25 2.371-1.998 2.995-3.246" fill="#231f20" fill-rule="evenodd"/><path d="m76.666 24.874c.749-2.372-3.496-6.617.5-7.489 0-.875-1-1.624-1.748-1.999-1.124-.625-2.622-.375-3.246.874.249 3.246.374 6.742 2.372 8.989.749 0 1.248-.5 2.122-.375" fill="#231f20" fill-rule="evenodd"/><path d="m91.273 25.498c-1.991-7.575-5.744-11.362-9.613-16.729-.748-.125-1.623 0-1.748.874.125 3.621 7.741 5.243 4.245 9.239-1.624 1.496-1.998 4.867-4.87 4.495-.624 1.122.875 2.246 1.873 2.746 3.621.125 3.246-4.12 5.369-5.992 2.871 1.872.001 8.613 4.744 8.115 0 0 .362-1.371 0-2.748" fill="#231f20" fill-rule="evenodd"/><path d="m79.038 29.369v-.5h-4.494c-.25.75.624 1.25 1.123 1.498 1.124.5 2.622.375 3.371-.998" fill="#231f20" fill-rule="evenodd"/><path d="m104.507 23.999 1.123-.622c-1.748-4.121-5.867.872-7.49-3.496-1.249-.25-2.372.125-3.246.875-1.259-1.756-2.634-3.381-3.87-3.372-1.768.014 3.37 3.122 3.245 5.493.741 3.623-1.997 8.615 2.997 7.99v-8.365c.874-.874 1.873-.874 2.746 0 3.621 2.622-.873 9.862 4.495 10.487z" fill="#231f20" fill-rule="evenodd"/><path d="m70.049 33.863c1.873-.125 1.124-2.996 1.748-4.494-1.997.5-2.372 2.87-4.12 3.62-1.622.124-3.62 1.124-4.868.374l3.37-8.989c-2.871-3.371-6.117-5.243-8.49-8.489 3.871-2.246 8.366-4.87 13.234-2.996-.749-.999-2.371-2.621-3.87-3.246-5.118 0-9.239 2.372-13.858 3.621v.625l8.74 8.363c-.999 4.994-3.871 9.737-4.496 14.607 3.871-1.874 8.616-2.371 12.61-2.996" fill="#231f20" fill-rule="evenodd"/><path d="m117.365 39.605c-.124-2.621.25-6.242-.249-8.988.374-.748 1.123-.625 1.747-.625.75-1.123-1.248-1.371-1.747-2.121-3.246.125-7.99-5.369-9.613 0 0 3.496.499 7.364 4.12 8.738 2.996-.375 2.871 2.996 5.742 2.996zm-2.996-3.245c0-2.872 1.623-7.241-1.748-8.739-.874-.125-1.747 0-1.872.873-.374 3.248.25 7.116 3.62 7.866" fill="#231f20" fill-rule="evenodd"/></g></svg>