<svg height="367.20001" viewBox="0 0 1000.3333 367.20001" width="1000.3333" xmlns="http://www.w3.org/2000/svg"><g fill="#ed192d" fill-rule="evenodd" transform="matrix(.13333333 0 0 -.13333333 0 367.2)"><path d="m2186.98 2753.98 40.5-627.75s-54 0-81 0c-36.27 176.25-111.37 384.76-283.49 405-243.21 28.62-1144.119 30.38-1144.119 30.38l820.119-1063.12-911.248-1113.74s1366.868-40.5 1478.248 60.75c111.37 101.25 177.22 203.734 202.49 384.742h101.25l-162-809.992-2247.73-20.25 1133.99 1376.99-1113.74 1376.99z"/><path d="m4070.22 587.246s708.74-50.625 749.25 789.744c40.49 840.37-749.25 789.75-749.25 789.75zm-404.99 0v1599.744s-799.45-9.36-779.62-820.13c20.11-822.755 779.62-779.614 779.62-779.614zm-425.25 2166.734h1255.49v-81h-425.25v-364.49s1229.86 42.17 1250.11-919.7c20.25-961.876-1250.11-963.54-1250.11-963.54v-344.25h425.25v-81h-1255.49v81h425.25v344.25s-1264.17-70.437-1264.17 952.18c0 1022.62 1264.17 931.06 1264.17 931.06v364.49h-425.25z"/><path d="m6570.75 2647.77c126.02 0 236.77-4.09 332.23-32.75 194.77-57.34 339.88-208.87 420.07-602.02h106.93l-22.91 737.16h-2111.8v-102.39h381.89v-2530.891h-381.89v-102.3829h2172.9l34.37 880.4919h-110.75c-80.2-462.769-187.12-778.109-683.56-778.109h-542.27v1253.161c412.43 12.29 546.08-86 580.45-540.575h106.93v1142.585h-106.93c-19.09-438.2-213.85-499.62-580.45-499.62v1175.34z"/></g></svg>