<svg height="368" viewBox="0 0 1001.3333 368" width="1001.3333" xmlns="http://www.w3.org/2000/svg"><g fill="#231f20" fill-rule="evenodd" transform="matrix(1.3333333 0 0 -1.3333333 0 368)"><path d="m218.814 275.949 4.05-62.775s-5.4 0-8.1 0c-3.627 17.624-11.137 38.475-28.349 40.5-24.322 2.862-114.412 3.038-114.412 3.038l82.012-106.312-91.125-111.374s136.687-4.05 147.824 6.075c11.138 10.125 17.723 20.373 20.25 38.474h10.125l-16.2-80.999-224.773-2.025 113.399 137.699-111.374 137.699z"/><path d="m407.138 59.275s70.874-5.062 74.924 78.975-74.924 78.975-74.924 78.975zm-40.5 0v159.975s-79.944-.936-77.962-82.013c2.012-82.276 77.962-77.962 77.962-77.962zm-42.525 216.674h125.55v-8.1h-42.525v-36.45s122.986 4.217 125.011-91.97-125.011-96.353-125.011-96.353v-34.425h42.525v-8.1h-125.55v8.1h42.525v34.425s-126.416-7.044-126.416 95.218 126.416 93.105 126.416 93.105v36.45h-42.525z"/><path d="m657.191 265.328c12.602 0 23.676-.409 33.223-3.276 19.476-5.733 33.987-20.886 42.007-60.201h10.692l-2.291 73.716h-211.179v-10.239h38.188v-253.089h-38.188v-10.238h217.29l3.436 88.049h-11.074c-8.02-46.277-18.712-77.811-68.357-77.811h-54.227v125.316c41.244 1.229 54.609-8.6 58.046-54.058h10.693v114.259h-10.693c-1.909-43.82-21.385-49.963-58.046-49.963v117.535z"/></g></svg>