<svg height="269.30667" viewBox="0 0 565.33331 269.30667" width="565.33331" xmlns="http://www.w3.org/2000/svg"><g fill="#ed192d" transform="matrix(.13333333 0 0 -.13333333 0 269.30667)"><path d="m3599.15 1396.46c-125.29-4.41-250.58-13.22-371.76-8.81v-55.07h149.93v-1277.5058h-147.87v-55.07029375h513.47v55.07029375h-143.77v583.6838h4.11c47.23-110.125 141.72-156.379 252.62-156.379 221.83 0 384.08 240.082 384.08 462.547 0 231.274-160.21 455.934-384.08 455.934-106.8 0-209.49-81.49-252.62-182.81h-4.11zm-792.67 535.24c67.78 0 127.34-2.21 178.69-17.63 104.74-30.83 182.79-112.33 225.92-323.78h57.51l-12.32 396.47h-1135.8v-55.06h205.39v-1361.216h-205.39v-55.062h1168.66l18.49 473.558h-59.56c-43.14-248.898-100.65-418.496-367.65-418.496h-291.65v673.996c221.82 6.61 293.7-46.26 312.19-290.746h57.5v614.526h-57.5c-10.27-235.68-115.02-268.71-312.19-268.71v632.15zm1189.07-1237.872c0-112.332-57.51-167.402-160.21-167.402-139.66 0-236.19 147.578-236.19 290.746v286.348c0 83.69 119.12 253.29 240.3 253.29 125.29 0 156.1-72.68 156.1-191.63z" fill-rule="evenodd"/><path d="m1921.62 436.117c106.8 0 191.01-11.012 156.09-136.558-53.39-191.629-207.44-244.4926-373.8-244.4926-123.24 0-213.61 77.0936-213.61 215.8596 0 59.469 10.27 165.191 82.16 165.191zm-318.35 830.393c0 46.25 30.81 90.3 117.07 90.3 69.83 0 108.86-17.61 108.86-90.3v-306.17c0-90.305-28.75-110.129-117.07-110.129-78.05 0-108.86 30.84-108.86 110.129zm-98.59-623.342c-45.18 0-82.16 17.625-82.16 72.687 0 94.711 137.62 99.114 197.18 99.114 86.26 0 191.01-15.418 275.22 35.242 82.15 50.66 131.45 156.389 131.45 255.509 0 61.67-14.38 118.94-49.3 162.99 14.38 15.42 32.87 46.25 55.47 46.25 16.42 0 34.91-74.89 84.2-74.89 49.3 0 73.94 26.44 73.94 79.3 0 55.06-41.07 90.31-90.37 90.31-71.89 0-108.86-55.07-149.93-107.93-69.84 66.08-139.67 99.12-234.15 99.12-168.42 0-312.19-114.54-312.19-308.37 0-103.52 59.56-176.211 137.61-229.074-108.85-33.035-184.85-92.508-184.85-224.668 0-99.113 51.35-167.395 133.5-200.434-69.83-28.636-131.44-99.121-131.44-185.019 0-182.8167 197.17-253.305 336.83-253.305 238.26 0 460.07 129.957 460.07 414.098 0 55.062-8.21 112.328-39.02 158.582-57.51 85.91-129.39 70.488-225.93 70.488zm-100.21-127.754v55.063h-151.99v825.983c-125.29-4.41-250.58-13.21-371.753-8.81v-55.06h149.933v-762.113h-149.933v-55.063zm-158.15 1286.326c0 66.08-61.62 118.95-121.18 118.95-55.46 0-110.91-59.48-110.91-118.95 0-63.87 47.24-132.15 110.91-132.15 69.83 0 121.18 57.27 121.18 132.15zm-1114.871-1207.029c71.887-70.488 195.117-112.332 291.653-112.332 264.949 0 433.367 204.836 433.367 482.367 0 198.234-61.617 343.614-234.145 431.714-43.129 22.02-94.472 37.45-135.551 50.67-34.918 11-75.996 26.42-127.339 41.84-127.344 37.45-236.204 55.07-236.204 224.67 0 147.57 123.239 251.09 254.684 251.09 205.391 0 332.731-174 355.324-383.25h65.727v416.3h-36.973l-78.051-88.11c-94.48 79.29-180.738 110.13-299.863 110.13-213.605 0-373.8085-171.8-373.8085-403.08 0-209.24 94.4765-363.43 285.4925-425.1 41.074-13.22 82.152-28.64 123.23-44.06 154.043-57.26 324.512-96.91 324.512-301.755 0-180.61-143.77-308.364-306.027-308.364-217.711 0-334.782 193.829-377.9184 403.082h-59.5586v-438.324h34.918z"/></g></svg>