<svg height="269.30667" viewBox="0 0 565.33331 269.30667" width="565.33331" xmlns="http://www.w3.org/2000/svg"><g transform="matrix(.13333333 0 0 -.13333333 0 269.30667)"><path d="m3995.55 693.82c0-112.332-57.51-167.398-160.21-167.398-139.67 0-236.19 147.578-236.19 290.75v286.338c0 83.7 119.12 253.3 240.3 253.3 125.3 0 156.1-72.68 156.1-191.63zm-1189.07 1237.87c67.78 0 127.34-2.2 178.69-17.62 104.74-30.84 182.79-112.34 225.92-323.79h57.51l-12.32 396.47h-1135.8v-55.06h205.39v-1361.21h-205.39v-55.058h1168.66l18.49 473.547h-59.56c-43.14-248.891-100.65-418.489-367.65-418.489h-291.66v674c221.83 6.61 293.71-46.26 312.2-290.75h57.51v614.53h-57.51c-10.28-235.68-115.02-268.72-312.2-268.72v632.15zm792.67-535.24c-125.28-4.4-250.58-13.21-371.76-8.8v-55.07h149.93v-1277.5097h-147.87v-55.0585812h513.47v55.0585812h-143.77v583.6917h4.1c47.24-110.133 141.73-156.383 252.63-156.383 221.83 0 384.08 240.082 384.08 462.543 0 231.268-160.2 455.938-384.08 455.938-106.8 0-209.49-81.5-252.63-182.81h-4.1z" fill="#4c2b63" fill-rule="evenodd"/><path d="m131.449 594.711c71.887-70.5 195.117-112.332 291.653-112.332 264.949 0 433.367 204.832 433.367 482.359 0 198.242-61.614 343.612-234.145 431.722-43.129 22.02-94.472 37.44-135.551 50.66-34.918 11.01-75.996 26.43-127.339 41.84-127.344 37.45-236.204 55.07-236.204 224.67 0 147.58 123.239 251.1 254.684 251.1 205.391 0 332.731-174 355.324-383.25h65.727v416.29h-36.973l-78.051-88.1c-94.476 79.29-180.738 110.13-299.863 110.13-213.605 0-373.8085-171.81-373.8085-403.08 0-209.25 94.4765-363.43 285.4925-425.1 41.074-13.22 82.152-28.64 123.23-44.06 154.043-57.27 324.516-96.92 324.516-301.759 0-180.61-143.774-308.36-306.031-308.36-217.711 0-334.782 193.821-377.9184 403.079h-59.5586v-438.329h34.918zm1114.871 1207.029c0 66.08-61.62 118.94-121.18 118.94-55.46 0-110.91-59.47-110.91-118.94 0-63.88 47.24-132.16 110.91-132.16 69.83 0 121.18 57.27 121.18 132.16zm158.15-1286.318v55.047h-151.99v825.991c-125.29-4.41-250.58-13.22-371.753-8.81v-55.07h149.933v-762.111h-149.933v-55.047zm100.21 127.75c-45.18 0-82.16 17.617-82.16 72.668 0 94.719 137.62 99.129 197.18 99.129 86.26 0 191.01-15.418 275.22 35.242 82.16 50.648 131.45 156.379 131.45 255.499 0 61.68-14.38 118.94-49.29 163 14.38 15.42 32.86 46.25 55.45 46.25 16.43 0 34.92-74.89 84.21-74.89 49.3 0 73.93 26.43 73.93 79.29 0 55.07-41.06 90.31-90.36 90.31-71.89 0-108.85-55.06-149.93-107.93-69.84 66.08-139.67 99.12-234.15 99.12-168.42 0-312.19-114.53-312.19-308.36 0-103.531 59.56-176.219 137.61-229.078-108.85-33.031-184.85-92.512-184.85-224.66 0-99.133 51.35-167.403 133.5-200.434-69.83-28.648-131.44-99.129-131.44-185.027 0-182.8205 197.17-253.301 336.83-253.301 238.26 0 460.07 129.961 460.07 414.09 0 55.07-8.21 112.332-39.02 158.582-57.51 85.918-129.39 70.5-225.93 70.5zm98.59 623.328c0 46.26 30.81 90.31 117.07 90.31 69.83 0 108.85-17.62 108.85-90.31v-306.16c0-90.309-28.75-110.129-117.07-110.129-78.04 0-108.85 30.828-108.85 110.129zm318.35-830.379c106.8 0 191.01-11.019 156.09-136.562-53.39-191.637-207.44-244.5004-373.8-244.5004-123.24 0-213.61 77.0894-213.61 215.8634 0 59.469 10.27 165.199 82.16 165.199z" fill="#ee2722"/></g></svg>