<svg height="32.461864" viewBox="0 0 242.81332 32.461864" width="242.81332" xmlns="http://www.w3.org/2000/svg"><g fill="#fff" transform="matrix(.13333333 0 0 -.13333333 -287.44266 111.6812)"><path d="m2472.31 752.574v-158.398h-67.89v243.426h183.01c-3.8-3.786-2.41-9.446-7.59-16.864-6.72-8.961-13.31-4.777-18.79-11.359-5.02-6.098-2.84-12.477-7.58-18.789-6.73-8.988-17.05-5.684-24.46-15.16-6.03-7.586-5.69-15.27-11.39-22.856z"/><path d="m2308.66 837.609c-3.8-3.796-2.75-9.832-7.9-17.23-6.72-8.953-13.33-4.777-18.76-11.367-5.05-6.078-2.85-12.442-7.58-18.754-6.73-8.977-16.87-5.692-24.45-15.153-6.02-7.578-5.67-14.968-11.35-22.55h88.63v-79.172h-73.48c-6.09 0-10.99-.668-15.15 3.781-3.19 3.414-3.8 6.695-3.78 11.363l-.01 149.082h-79l-.01-171.8c-.02-20.02 13.09-39.59 20.65-46.993 9.48-9.461 28.9-24.613 50.96-24.613h103.44l62.31 71.606.02 171.8z"/><path d="m2904.83 610.5c-7.1 1.621-14.45 3.297-15.32 17.824l-4.58 162.168c-.78 23.434 8.41 25.61 15.79 27.36 4.04.961 9.07 2.152 9.07 7.859 0 3.656-2.69 6.633-5.99 6.633-2.56 0-4.6-.289-6.74-.594-2.48-.352-5.04-.715-8.95-.715-.64 0-2.72.219-5.16.469-3.82.391-8.15.84-10.44.848-4.71 0-7.31-5.547-9.41-10.012-.44-.942-.85-1.82-1.29-2.613l-77.82-156.297-.53-1.094c-2.93-6.063-5.96-12.309-7.55-14.574-.86 1.086-2.2 3.672-3.51 6.179l-78.63 167.664c-.33.723-.62 1.543-.91 2.372-1.17 3.328-2.94 8.367-8.43 8.367-3.09 0-6.15-.344-9.12-.672-6.11-.695-11.82-.617-17.47.012-2.94.324-5.99.66-9.04.66-7.19 0-8.27-3.953-8.27-6.309 0-4.984 4.03-6.402 7.59-7.652 8.2-2.883 23.46-8.25 23.46-61.985 0-24.871-2.04-49.945-4.63-81.687-1.01-12.387-2.1-25.82-3.2-40.727-1.33-19.644-8.78-21.73-14.77-23.406-3.76-1.055-8.45-2.363-8.45-8.488 0-4.031 2.35-6.641 5.98-6.641 2.25 0 4.45.184 7.23.418 4.49.375 10.62.891 21.21.891 5.83 0 13.44-.469 19.55-.848 4.1-.25 7.5-.461 9.22-.461 3.54 0 10.89 0 10.89 6.317 0 6.089-5.48 7.566-10.32 8.867-8.95 2.41-20.1 5.402-19.11 31.906l3.92 114.566c.07.79.19 1.407.31 1.864.23-.313.49-.778.75-1.446l69.59-145.714.45-1.125c1.46-3.743 3.91-10.004 8.58-10.004 3.66 0 6.35 4.515 11.02 14.633.63 1.363 1.14 2.488 1.55 3.238l67.69 137.996c2.73 5.738 4.69 7.5 5.56 8.027.54-1.117 1.37-4.07 1.38-9.883l3.26-126.804c.18-12.938-5.85-15.356-11.68-17.692-4.02-1.609-8.59-3.445-8.59-9.086 0-2.609 1.65-5.66 6.32-5.66 3.91 0 8.36.297 13.03.61 12.66.839 26.61.496 36.32-.125 4.11-.258 7.57-.485 10.14-.485 3.69 0 10.56 0 10.56 5.985 0 6.668-5.83 8-10.51 9.066"/><path d="m3087.24 706.297c-.03-.02-.7-.473-3.71-.473h-64.73c-1.51 0-2.2.188-2.39.188-.02 0-.04 0-.05 0 .01.203.11.754.65 1.84l36.91 79.375c.08.144.15.273.21.398.03-.066.06-.133.09-.203l32.01-78.75c.73-1.895.87-2.516 1.01-2.375zm86.9-97.453c-6.02 1.031-13.52 2.316-18.38 9.773-5.37 8.176-8.91 17.711-12.32 26.93-1.25 3.355-2.48 6.668-3.77 9.863l-67.98 168.309c-.16.41-.34 1-.56 1.695-1.54 4.84-3.87 12.16-8.85 12.16-4.93 0-6.15-2.672-15.64-23.445-2.87-6.27-6.53-14.289-11.33-24.539l-78.15-166.754c-4.64-10.164-11.42-12.324-16.37-13.898-3.62-1.161-7.74-2.473-7.74-7.172 0-3.715 2.32-6.317 5.65-6.317 4.32 0 8.75.336 13.04.656 8.75.653 17.88.641 26.66.004 4.55-.324 9.25-.66 13.92-.66l3.17-.058c5.55 0 8.38 2.582 8.38 7.679 0 5.489-5.39 6.45-9.71 7.223-6.64 1.187-13.51 2.41-13.51 14.355 0 3.813 1.21 8.364 2.05 10.317l20.9 45.726c2.42 5.071 6.28 5.317 12.91 5.317h71.93c7.22 0 8.63-3.258 11.85-10.695l10.45-26.762c.76-2.051 1.71-4.43 2.72-6.965 3.23-8.078 7.24-18.129 7.24-23.148 0-4.633-3.63-6.2-9.63-8.219-4.67-1.574-9.98-3.364-9.98-8.785 0-3.973 3.34-5.985 9.91-5.985 4.51 0 9.05.336 13.44.668 10.89.817 22.2.524 33.01-.008 6.62-.324 13.47-.66 20.24-.66 1.99 0 7.29 0 7.29 5.66 0 5.875-5.76 6.86-10.84 7.735"/><path d="m3331.51 765.551c0-40.559-32.71-43.707-42.73-43.707-2.65 0-5.44-.055-8.26-.102-2.8-.047-5.63-.097-8.35-.097h-.01c-13.92 0-16.02 1.632-16.3 2.058v83.043c0 8.965 3.07 9.391 12.78 9.391l3.14-.008c17.95 0 59.73-4.926 59.73-50.578zm75.68-157.086c-6.19 1.344-17.74 3.84-32.78 26.832l-52.81 79.996c23.97 10.875 39.85 33.719 39.85 57.777 0 53.672-50.54 59.465-72.27 59.465-2.88 0-5.15-.09-6.6-.148l-1.32-.043c-8.32 0-16.87-.309-25.92-.633-9.33-.332-18.99-.676-28.68-.676-10.24 0-13.41.496-15.71.867-1.57.246-2.82.442-5.21.442-5.19 0-9.25-2.91-9.25-6.633 0-6.398 6.11-7.551 11.03-8.469 8.01-1.504 17.08-3.207 17.08-20.633v-166.406c0-13.965-7.95-17.183-14.97-20.027-4.37-1.778-8.89-3.606-8.89-8.41 0-3.543 2.62-6.317 5.98-6.317 6.28 0 12.64.336 18.78.66 6.07.321 12.35.649 18.49.649 20.3 0 29.63-.738 34.12-1.098 1.62-.125 2.7-.211 3.47-.211l2.23-.047c5.26 0 6.05 3.371 6.05 5.383 0 6.461-6.82 7.981-13.42 9.442-10.12 2.246-20.58 4.57-20.58 19.652v68.98c0 .477-.04 1.008-.07 1.571-.12 1.687-.16 2.937.47 3.613.43.465 1.72 1.254 5.39 1.254l9.56.012c21.68 0 21.68 0 28.38-10.891.94-1.531 2-3.258 3.24-5.18l36.32-57.265c12.84-19.25 26.41-36.524 51.3-36.524 21.06 0 23.97 3.192 23.97 6.641 0 4.82-3.84 5.648-7.23 6.375"/><path d="m3608.55 820.27c-.4 9.136-3.36 12.074-12.18 12.074-1.65 0-4.77-.086-9.45-.203-13.63-.364-41.97-1.106-86.35-1.106-23.69 0-41.95.41-58.05.774-12.5.285-23.61.535-34.79.535-7.75 0-8.25-9.262-8.49-13.711l-3.71-33.465c0-3.137 2.46-6.641 5.98-6.641 5.71 0 7 5.02 7.77 8.02l1.13 3.699c5.15 15.832 6.07 18.688 23.48 18.688l52.89.086c.44-.379 1.42-2.2 1-10.86-.03-.676-.06-1.211-.06-1.551v-170c0-10.097-8.17-12.992-15.38-15.546-5.37-1.895-10.44-3.692-10.44-8.649 0-4.687 2.17-6.965 6.63-6.965.43 0 1.02.047 1.98.133 3.61.324 13.21 1.176 42.82 1.176 4.86 0 9.65-.352 14.28-.695 4.3-.309 8.4-.614 12.2-.614 2.13 0 3.41.856 4.11 1.571 1.61 1.652 1.56 3.91 1.54 5.07 0 6.004-5.64 7.262-10.61 8.371-7.8 1.734-15.87 3.527-15.87 18.437v166.731l-.03 4.723c-.04 3.714-.08 7.554.49 8.128.47.481 3.81.481 4.91.481l51.75-.027c18.35 0 19.07-7.371 19.77-14.5.42-4.368 1.01-10.344 8.02-10.344 2.04 0 3.65.648 4.8 1.914 2.08 2.297 1.74 5.746 1.5 8.164z"/><path d="m3706.73 610.523c-9.85 2.457-16.83 5-16.83 15.43v175.563c0 13.582 7.72 15.668 14.54 17.5 4.22 1.14 9 2.429 9 7.343 0 5.985-5.16 5.985-8.92 5.985-5.16 0-10.36-.336-15.38-.66-10.87-.723-22.17-.598-32.87 0-5.89.324-12 .66-18.12.66-5.3 0-5.98-3.367-5.98-6.309 0-4.668 4.88-5.894 9.61-7.07 7.82-1.961 16.69-4.172 16.87-17.449v-167.387c0-18.91-9.02-21.285-16.25-23.199-4.34-1.149-9.25-2.446-9.25-7.86 0-6.715 4.84-7.621 9.58-7.621 1.54 0 3.33.137 5.74.336 4.88.387 12.27.973 25.64.973 8.05 0 15.97-.422 22.95-.801 5.08-.269 9.47-.508 12.69-.508 3.23 0 9.25 0 9.25 5.985 0 6.039-6.24 7.589-12.27 9.089"/><path d="m3970.93 832.344c-3.62 0-8.55-.278-13.91-.574-6.16-.344-13.14-.735-19.11-.735-5.22 0-10.28.336-15.17.66-4.75.321-9.66.649-14.58.649-3.77 0-6.31-2.41-6.31-5.985 0-5.718 5.86-7.183 11.51-8.593 10.46-2.618 24.78-6.2 24.78-32.598v-135.047c-.05.067-.11.133-.17.203l-155.9 173.547c-.38.442-.79 1-1.25 1.609-2.16 2.899-5.11 6.864-9.31 6.864-2.63 0-5.29-.344-7.86-.68-5.23-.676-9.65-.637-14.52 0-2.57.336-5.24.68-8.03.68-2.73 0-7.61-1.996-7.61-5.985 0-5.714 5.31-7.019 10.44-8.285 10.89-2.672 29.11-7.148 29.11-52.847v-120.633c0-28.492-11.19-31.797-19.37-34.215-4.4-1.297-9.4-2.774-9.4-8.613 0-4.075 2.48-6.317 6.97-6.317.73 0 2.9.125 5.9.305 6.36.375 17 1.004 24.83 1.004 9.34 0 16.41-.449 22.1-.82 4.13-.262 7.63-.489 10.92-.489 1.47 0 6.31.504 6.31 6.965 0 5.438-5.6 6.344-10.54 7.145-8.55 1.39-18.23 2.961-18.23 19.664v133.718c0 2.125.11 3.43.23 4.211.69-.601 1.76-1.726 3.4-3.761.41-.524.73-.907.78-.946l140.6-158.257c6.52-7.129 10.69-10.043 14.43-10.043 5.66 0 5.66 7.402 5.66 16.773v189.285c0 13.172 6.15 15.84 11.58 18.192 3.62 1.562 7.71 3.335 7.71 8.296 0 3.383-2.41 5.653-5.99 5.653"/></g></svg>