<svg height="99.973335" viewBox="0 0 350.97333 99.973335" width="350.97333" xmlns="http://www.w3.org/2000/svg"><g transform="matrix(.13333333 0 0 -.13333333 0 99.973333)"><g fill="#231f20"><path d="m2038.69 9.05469c-3.93.89844-8 1.82811-8.48 9.87111l-2.54 89.7892c-.43 12.973 4.66 14.18 8.74 15.148 2.24.532 5.03 1.192 5.03 4.352 0 2.023-1.49 3.672-3.32 3.672-1.42 0-2.55-.16-3.73-.328-1.37-.196-2.79-.399-4.96-.399-.35 0-1.5.121-2.85.262-2.12.215-4.52.465-5.79.469-2.6 0-4.04-3.071-5.2-5.543-.25-.52-.48-1.008-.72-1.45l-43.09-86.5347-.29-.6055c-1.62-3.3594-3.3-6.8164-4.18-8.0703-.47.6016-1.22 2.0313-1.94 3.4219l-43.54 92.8316c-.18.399-.34.856-.5 1.313-.65 1.844-1.63 4.633-4.67 4.633-1.71 0-3.41-.192-5.05-.371-3.38-.387-6.54-.344-9.67.004-1.63.179-3.32.367-5.01.367-3.98 0-4.58-2.188-4.58-3.492 0-2.762 2.23-3.547 4.2-4.239 4.55-1.593 13-4.566 13-34.3201 0-13.7695-1.13-27.6523-2.57-45.2265-.56-6.8594-1.16-14.2969-1.77-22.5508-.73-10.8789-4.86-12.0313-8.18-12.96094-2.08-.58203-4.68-1.3086-4.68-4.69922 0-2.23047 1.3-3.675784 3.32-3.675784 1.24 0 2.46.101563 4 .230469 2.48.207035 5.88.496095 11.74.496095 3.23 0 7.44-.26172 10.83-.468751 2.27-.140625 4.15-.257813 5.1-.257813 1.96 0 6.03 0 6.03 3.496094 0 3.375-3.03 4.19141-5.71 4.91016-4.96 1.33589-11.13 2.99219-10.58 17.66799l2.16 63.4336c.05.4375.11.7773.18 1.0312.13-.1719.27-.4297.41-.8008l38.53-80.67965.25-.625c.81-2.07031 2.17-5.53906 4.75-5.53906 2.03 0 3.52 2.5 6.1 8.10161.35.7578.63 1.3789.86 1.7929l37.48 76.4063c1.51 3.1797 2.6 4.1523 3.08 4.4453.3-.6172.76-2.2539.76-5.4727l1.81-70.207c.1-7.1641-3.24-8.5039-6.47-9.79688-2.23-.89063-4.76-1.90625-4.76-5.03125 0-1.44531.92-3.132814 3.5-3.132814 2.17 0 4.63.164063 7.22.335934 7.01.46485 14.73.27735 20.11-.070309 2.27-.140625 4.19-.265625 5.62-.265625 2.04 0 5.84 0 5.84 3.312504 0 3.6914-3.23 4.42968-5.82 5.01953"/><path d="m2139.69 62.0977c-.02-.0118-.39-.2618-2.05-.2618h-35.84c-.84 0-1.22.1016-1.33.1016-.01 0-.02 0-.03 0 .01.1133.06.418.36 1.0195l20.44 43.949c.04.082.08.153.11.223.02-.039.04-.074.06-.117l17.72-43.6018c.4-1.0469.48-1.3907.56-1.3125zm48.12-53.95707c-3.34.57031-7.49 1.28125-10.19 5.41017-2.97 4.5273-4.93 9.8047-6.82 14.9101-.69 1.8555-1.37 3.6914-2.08 5.461l-37.64 93.1871c-.09.231-.19.555-.31.942-.86 2.679-2.15 6.734-4.9 6.734-2.73 0-3.41-1.48-8.66-12.984-1.59-3.473-3.62-7.91-6.28-13.586l-43.27-92.3283c-2.56-5.6289-6.32-6.8242-9.06-7.69529-2-.64453-4.28-1.3711-4.28-3.97266 0-2.05469 1.28-3.496094 3.13-3.496094 2.38 0 4.84.1875 7.22.363284 4.84.36328 9.89.35547 14.75.0039 2.52-.179684 5.13-.367184 7.71-.367184l1.76-.035156c3.07 0 4.63 1.42969 4.63 4.25391 0 3.03906-2.98 3.57031-5.37 4-3.68.65625-7.48 1.33589-7.48 7.94919 0 2.1094.67 4.6289 1.13 5.711l11.58 25.3164c1.34 2.8086 3.48 2.9453 7.15 2.9453h39.82c4 0 4.78-1.8047 6.56-5.9219l5.79-14.8164c.42-1.1367.94-2.4531 1.51-3.8594 1.78-4.4687 4.01-10.0351 4.01-12.8164 0-2.5664-2.02-3.4297-5.34-4.54686-2.59-.875-5.52-1.86328-5.52-4.86718 0-2.19922 1.85-3.312504 5.48-3.312504 2.5 0 5.01.1875 7.44.371094 6.03.44922 12.3.28906 18.28-.00391 3.67-.179684 7.46-.367184 11.21-.367184 1.1 0 4.04 0 4.04 3.132814 0 3.25391-3.19 3.80078-6 4.28516"/><path d="m2274.93 94.9023c0-22.4531-18.1-24.1992-23.65-24.1992-1.47 0-3.02-.0273-4.58-.0547-1.55-.0273-3.11-.0546-4.62-.0546h-.01c-7.7 0-8.86.9062-9.02 1.1406v45.9806c0 4.965 1.7 5.199 7.08 5.199l1.73-.004c9.94 0 33.07-2.726 33.07-28.0077zm41.91-86.97261c-3.43.74609-9.82 2.12501-18.15 14.85551l-29.24 44.2929c13.27 6.0196 22.07 18.668 22.07 31.9922 0 29.7147-27.99 32.9217-40.02 32.9217-1.59 0-2.86-.051-3.65-.082l-.74-.023c-4.6 0-9.34-.172-14.35-.352-5.17-.183-10.51-.375-15.88-.375-5.67 0-7.42.278-8.7.481-.87.136-1.56.246-2.88.246-2.87 0-5.13-1.614-5.13-3.672 0-3.543 3.39-4.18 6.12-4.692 4.43-.832 9.45-1.773 9.45-11.421v-92.1372c0-7.7304-4.4-9.5117-8.29-11.0898-2.42-.98047-4.92-1.99219-4.92-4.65625 0-1.96094 1.45-3.496094 3.31-3.496094 3.48 0 7 .1875 10.4.367184 3.36.17579 6.84.35938 10.24.35938 11.24 0 16.4-.41406 18.89-.609376.89-.070313 1.49-.117188 1.92-.117188l1.24-.027343c2.91 0 3.34 1.867187 3.34 2.980467 0 3.57813-3.77 4.41797-7.42 5.23047-5.61 1.24215-11.4 2.52735-11.4 10.87895v38.1953c0 .2617-.02.5547-.04.8672-.07.9336-.09 1.6289.26 2.0039.24.2539.95.6914 2.98.6914l5.3.0078c12 0 12 0 15.71-6.0313.52-.8476 1.11-1.8047 1.8-2.8672l20.11-31.707c7.1-10.6601 14.62-20.222644 28.4-20.222644 11.66 0 13.27 1.765624 13.27 3.675784 0 2.66797-2.13 3.1289-4 3.53125"/><path d="m2428.33 125.199c-.22 5.063-1.86 6.688-6.75 6.688-.91 0-2.64-.047-5.23-.114-7.55-.203-23.24-.613-47.81-.613-13.11 0-23.22.231-32.14.43-6.92.156-13.07.297-19.26.297-4.29 0-4.57-5.129-4.71-7.59l-2.05-18.531c0-1.739 1.36-3.676 3.32-3.676 3.16 0 3.87 2.777 4.3 4.437l.62 2.051c2.85 8.766 3.36 10.348 13 10.348l29.28.047c.25-.211.79-1.219.56-6.012-.02-.375-.03-.672-.03-.859v-94.1254c0-5.5938-4.53-7.1953-8.52-8.60941-2.97-1.05078-5.78-2.04297-5.78-4.78906 0-2.59375 1.2-3.855474 3.67-3.855474.24 0 .56.027344 1.1.074219 2 .179688 7.31.652345 23.7.652345 2.7 0 5.35-.19531 7.91-.38672 2.38-.171875 4.65-.339844 6.76-.339844 1.18 0 1.88.472654 2.27.867184.9.91797.87 2.16797.86 2.8086 0 3.32422-3.13 4.02344-5.88 4.63281-4.32.96094-8.78 1.95705-8.78 10.21095v92.3168l-.02 2.613c-.02 2.058-.05 4.183.27 4.504.26.262 2.11.262 2.72.262l28.65-.012c10.16 0 10.56-4.082 10.95-8.031.23-2.415.56-5.727 4.44-5.727 1.12 0 2.02.359 2.65 1.062 1.16 1.27.97 3.18.84 4.52z"/><path d="m2482.69 9.07031c-5.46 1.35939-9.32 2.76949-9.32 8.54299v97.2027c0 7.52 4.28 8.676 8.05 9.692 2.33.629 4.98 1.344 4.98 4.066 0 3.313-2.85 3.313-4.94 3.313-2.85 0-5.73-.188-8.51-.367-6.02-.399-12.28-.329-18.2 0-3.26.179-6.64.367-10.04.367-2.93 0-3.31-1.867-3.31-3.492 0-2.586 2.71-3.262 5.33-3.918 4.33-1.082 9.24-2.309 9.33-9.661v-92.6754c0-10.4726-4.99-11.789-8.99-12.84763-2.4-.63281-5.12-1.35156-5.12-4.35156 0-3.71875 2.68-4.218754 5.3-4.218754.86 0 1.85.078125 3.18.1875 2.71.210934 6.79.539064 14.2.539064 4.45 0 8.84-.23438 12.7-.44531 2.82-.148441 5.25-.281254 7.03-.281254 1.79 0 5.12 0 5.12 3.312504 0 3.34375-3.45 4.20312-6.79 5.03515"/><path d="m2628.97 131.887c-2 0-4.74-.153-7.7-.321-3.41-.187-7.28-.406-10.58-.406-2.89 0-5.69.188-8.4.367-2.63.176-5.35.36-8.07.36-2.09 0-3.5-1.332-3.5-3.313 0-3.168 3.24-3.976 6.38-4.758 5.79-1.449 13.72-3.433 13.72-18.05v-74.7738c-.03.0391-.06.0742-.1.1133l-86.32 96.0895c-.21.246-.44.555-.69.891-1.19 1.605-2.83 3.801-5.16 3.801-1.45 0-2.92-.192-4.35-.375-2.89-.375-5.34-.356-8.03 0-1.43.183-2.91.375-4.45.375-1.52 0-4.22-1.106-4.22-3.313 0-3.164 2.94-3.886 5.79-4.586 6.02-1.48 16.11-3.961 16.11-29.2653v-66.7891c0-15.7773-6.19-17.6055-10.72-18.94532-2.44-.71875-5.21-1.53515-5.21-4.76953 0-2.25391 1.38-3.496094 3.86-3.496094.4 0 1.61.070313 3.27.167969 3.52.210935 9.41.558595 13.75.558595 5.17 0 9.08-.25 12.23-.457032 2.29-.144532 4.23-.269532 6.05-.269532.82 0 3.49.277344 3.49 3.855474 0 3.01171-3.1 3.51171-5.83 3.95703-4.74.76953-10.1 1.63674-10.1 10.88674v74.039c0 1.1758.06 1.8985.13 2.3282.39-.3321.98-.9532 1.88-2.0782.23-.2929.41-.5039.44-.5273l77.84-87.6211c3.61-3.94922 5.92-5.5625 7.99-5.5625 3.14 0 3.14 4.09766 3.14 9.28516v104.80884c0 7.289 3.4 8.769 6.41 10.07 2 .863 4.27 1.848 4.27 4.594 0 1.871-1.34 3.129-3.32 3.129"/><path d="m2632.28 223.461h-2632.28v9.375h2632.28z"/><path d="m893.824 526.301c0 2.34 1.348 15.054-3.351 15.383h-54.66c-20.793 0-21.461-5.016-27.5-23.411-1.008-3.343-1.34-7.691-5.7-7.691-2.011 0-3.351 2.344-3.351 4.012l3.687 32.445c.332 4.012 0 13.039 6.035 13.039 26.161 0 51.977-1.336 95.239-1.336 60.699 0 91.55 1.336 98.257 1.336 7.72 0 9.39-2.008 9.73-9.699l1.68-26.75c.33-3.352.66-7.356-3.69-7.356-12.415 0 5.7 25.411-28.512 25.411h-47.954c-15.086 0-13.41 1.339-13.41-16.383v-170.547c0-28.094 27.16-17.063 27.16-27.426 0-1.004.336-4.012-3.019-4.012-8.051 0-17.442 1.336-27.164 1.336-37.555 0-43.926-1.336-45.942-1.336-3.019 0-4.023 1-4.023 4.34 0 8.028 26.488 4.688 26.488 24.754z"/><path d="m1078.49 462.766c0-11.371-.68-11.371 12.74-11.371h36.21c34.88 0 25.82 26.75 33.87 26.75 2.69 0 3.69-3.676 3.69-6.356 0-11.703-.66-23.07-.66-33.769 0-8.7.66-17.387.66-26.422 0-3.008-1.34-4.34-3.69-4.34-10.4 0 1.01 29.418-27.16 29.418h-49.64c-7.03 0-6.02-5.684-6.02-10.696v-61.531c0-19.73-2.69-27.758 25.47-27.758 77.48 0 88.88 34.446 93.24 34.446 2.35 0 2.68-3.344 2.68-4.016 0-12.039-8.72-23.746-16.77-32.433-10.73-12.043-18.11-11.372-32.86-11.372-25.49 0-50.98 2.008-76.46 1.336-13.42-.336-27.5-1.336-40.92-1.336-3.02 0-5.02.664-5.02 3.344.66 4.012 4.01 3.34 14.75 8.688 8.71 4.015 9.39 13.386 9.39 29.101v152.489c0 15.046 0 31.101-18.11 33.777-2.68.664-10.06 1.336-10.06 5.351 0 2.676 2.02 4.012 11.74 4.012 63.38 0 80.82-1.336 94.9-1.336 6.7 0 37.56 1.336 47.95 1.336 2.69 0 3.36-3.344 3.36-7.355 0-37.121-4.7-39.797-6.71-39.797-8.05 0-2.68 16.051-8.05 23.742-8.71 11.371-43.59 9.363-57.01 9.363-32.19 0-31.51 1.344-31.51-21.066z"/><path d="m1246.32 493.965c0 69.25-40.4 49.941-40.4 62.262 0 2 3.34 3.328 5.01 3.328 5.34 0 10.35-1.328 15.69-1.328 5.01 0 10.35 1.328 15.36 1.328 3.68 0 6.68-5.325 8.68-7.657l159.26-176.793c2-2.332 3.34-3.664 4.01-3.664s.99 1.004.99 3.664v139.165c0 43.621-37.05 30.964-37.05 41.957 0 2.332 1.67 3.328 3.67 3.328 10.01 0 19.69-1.328 30.38-1.328 11.35 0 25.71 1.328 33.73 1.328 2 0 3.33-.996 3.33-2.992 0-8.661-19.7-2.668-19.7-26.977v-192.77c0-9.652-.33-14.32-3-14.32-2.34 0-5.67 1.676-12.69 9.332l-143.56 161.137c-.67.668-4.68 6.328-7.01 6.328-1.34 0-2.34-.996-2.34-7.66v-136.172c0-29.961 29.38-18.309 29.38-27.305 0-1.664-.33-4.32-3.67-4.32-8.02 0-17.36 1.328-33.73 1.328-11.68 0-29.04-1.328-31.38-1.328-4.01 0-4.34 1.996-4.34 3.66 0 11.652 29.38-3 29.38 43.613z"/><path d="m1503 493.965c0 69.25-40.39 49.941-40.39 62.262 0 2 3.33 3.328 5 3.328 5.35 0 10.35-1.328 15.69-1.328 5.02 0 10.36 1.328 15.36 1.328 3.68 0 6.68-5.325 8.68-7.657l159.26-176.793c2.01-2.332 3.34-3.664 4.01-3.664s1 1.004 1 3.664v139.165c0 43.621-37.06 30.964-37.06 41.957 0 2.332 1.67 3.328 3.68 3.328 10.01 0 19.69-1.328 30.38-1.328 11.35 0 25.71 1.328 33.72 1.328 2 0 3.34-.996 3.34-2.992 0-8.661-19.7-2.668-19.7-26.977v-192.77c0-9.652-.34-14.32-3-14.32-2.34 0-5.68 1.676-12.7 9.332l-143.56 161.137c-.67.668-4.68 6.328-7.01 6.328-1.34 0-2.34-.996-2.34-7.66v-136.172c0-29.961 29.38-18.309 29.38-27.305 0-1.664-.33-4.32-3.67-4.32-8.01 0-17.36 1.328-33.72 1.328-11.69 0-29.05-1.328-31.39-1.328-4 0-4.34 1.996-4.34 3.66 0 11.652 29.38-3 29.38 43.613z"/><path d="m1783.29 462.668c0-11.316-.67-11.316 12.68-11.316h36.05c34.72 0 25.71 26.625 33.72 26.625 2.67 0 3.67-3.661 3.67-6.325 0-11.652-.66-22.968-.66-33.617 0-8.656.66-17.305.66-26.301 0-2.992-1.33-4.32-3.67-4.32-10.35 0 1 29.285-27.04 29.285h-49.4c-7.01 0-6.01-5.656-6.01-10.648v-61.242c0-19.641-2.67-27.629 25.37-27.629 77.11 0 88.46 34.281 92.8 34.281 2.33 0 2.66-3.324 2.66-3.996 0-11.985-8.67-23.633-16.68-32.285-10.69-11.985-18.03-11.317-32.71-11.317-25.37 0-50.74 2-76.11 1.332-13.35-.336-27.37-1.332-40.73-1.332-3 0-5.01.66-5.01 3.328.67 3.997 4.01 3.329 14.69 8.653 8.68 3.992 9.35 13.32 9.35 28.965v151.781c0 14.976 0 30.957-18.03 33.621-2.66.66-10 1.328-10 5.324 0 2.664 2 3.996 11.68 3.996 63.08 0 80.44-1.332 94.46-1.332 6.67 0 37.39 1.332 47.73 1.332 2.67 0 3.34-3.328 3.34-7.32 0-36.949-4.67-39.617-6.68-39.617-8.01 0-2.67 15.98-8.01 23.636-8.67 11.317-43.39 9.317-56.75 9.317-32.04 0-31.37 1.34-31.37-20.969z"/><path d="m1924.74 382.77c-1.33 6.66.34 10.324 3.68 10.324 4.67 0 4.67-3.996 6.34-10.985 4.01-15.312 24.03-49.945 70.11-49.945 31.71 0 62.76 17.649 62.76 52.602 0 64.254-135.54 28.304-135.54 115.195 0 42.277 35.72 62.582 74.11 62.582 40.4 0 51.42-11.98 56.09-11.98 3.01 0 3.67 3.664 7.02 3.664 2 0 3.67-1.004 4-4.664l5.01-45.274c.33-2.664-.34-4.996-3.68-4.996-3.67 0-6.01 6.988-7.01 9.988-10.01 28.629-34.39 43.282-63.77 43.282-26.37 0-54.41-12.657-54.41-43.282 0-62.593 135.54-25.972 135.54-117.851 0-27.969-19.69-69.914-95.48-69.914-24.71 0-55.08 12.32-56.42 18.304z"/><path d="m2100.51 382.77c-1.34 6.66.33 10.324 3.67 10.324 4.68 0 4.68-3.996 6.34-10.985 4.01-15.312 24.04-49.945 70.11-49.945 31.71 0 62.76 17.649 62.76 52.602 0 64.254-135.54 28.304-135.54 115.195 0 42.277 35.72 62.582 74.12 62.582 40.39 0 51.41-11.98 56.08-11.98 3.01 0 3.67 3.664 7.02 3.664 2 0 3.67-1.004 4-4.664l5.01-45.274c.33-2.664-.34-4.996-3.67-4.996-3.67 0-6.01 6.988-7.02 9.988-10.01 28.629-34.38 43.282-63.76 43.282-26.37 0-54.42-12.657-54.42-43.282 0-62.593 135.54-25.972 135.54-117.851 0-27.969-19.69-69.914-95.47-69.914-24.71 0-55.09 12.32-56.42 18.304z"/><path d="m2330.79 462.668c0-11.316-.67-11.316 12.68-11.316h36.05c34.72 0 25.7 26.625 33.71 26.625 2.68 0 3.68-3.661 3.68-6.325 0-11.652-.67-22.968-.67-33.617 0-8.656.67-17.305.67-26.301 0-2.992-1.34-4.32-3.68-4.32-10.35 0 1.01 29.285-27.03 29.285h-49.41c-7 0-6-5.656-6-10.648v-61.242c0-19.641-2.67-27.629 25.36-27.629 77.11 0 88.46 34.281 92.8 34.281 2.34 0 2.67-3.324 2.67-3.996 0-11.985-8.68-23.633-16.69-32.285-10.68-11.985-18.02-11.317-32.71-11.317-25.37 0-50.74 2-76.11 1.332-13.35-.336-27.37-1.332-40.72-1.332-3.01 0-5 .66-5 3.328.66 3.997 4 3.329 14.68 8.653 8.68 3.992 9.35 13.32 9.35 28.965v151.781c0 14.976 0 30.957-18.03 33.621-2.67.66-10.01 1.328-10.01 5.324 0 2.664 2 3.996 11.68 3.996 63.09 0 80.45-1.332 94.47-1.332 6.67 0 37.38 1.332 47.73 1.332 2.67 0 3.34-3.328 3.34-7.32 0-36.949-4.68-39.617-6.68-39.617-8.01 0-2.67 15.98-8.01 23.636-8.68 11.317-43.39 9.317-56.75 9.317-32.04 0-31.37 1.34-31.37-20.969z"/><path d="m2511.43 462.668c0-11.316-.67-11.316 12.68-11.316h36.05c34.72 0 25.7 26.625 33.72 26.625 2.67 0 3.67-3.661 3.67-6.325 0-11.652-.66-22.968-.66-33.617 0-8.656.66-17.305.66-26.301 0-2.992-1.34-4.32-3.67-4.32-10.35 0 1 29.285-27.04 29.285h-49.41c-7 0-6-5.656-6-10.648v-61.242c0-19.641-2.67-27.629 25.36-27.629 77.12 0 88.47 34.281 92.81 34.281 2.33 0 2.66-3.324 2.66-3.996 0-11.985-8.67-23.633-16.69-32.285-10.68-11.985-18.02-11.317-32.71-11.317-25.37 0-50.73 2-76.1 1.332-13.35-.336-27.38-1.332-40.73-1.332-3.01 0-5 .66-5 3.328.66 3.997 4 3.329 14.68 8.653 8.68 3.992 9.35 13.32 9.35 28.965v151.781c0 14.976 0 30.957-18.03 33.621-2.66.66-10.01 1.328-10.01 5.324 0 2.664 2.01 3.996 11.69 3.996 63.08 0 80.44-1.332 94.46-1.332 6.67 0 37.39 1.332 47.73 1.332 2.67 0 3.34-3.328 3.34-7.32 0-36.949-4.67-39.617-6.68-39.617-8.01 0-2.67 15.98-8.01 23.636-8.67 11.317-43.39 9.317-56.75 9.317-32.04 0-31.37 1.34-31.37-20.969z"/><path d="m916.41 741.547c-.215 5.027-1.847 6.644-6.703 6.644-.902 0-2.617-.046-5.191-.113-7.493-.199-23.082-.609-47.489-.609-13.027 0-23.066.226-31.925.426-6.872.156-12.985.296-19.129.296-4.262 0-4.535-5.093-4.672-7.543l-2.035-18.402c0-1.726 1.351-3.652 3.293-3.652 3.132 0 3.843 2.761 4.265 4.406l.621 2.039c2.832 8.707 3.34 10.277 12.91 10.277l29.086.047c.243-.207.786-1.211.559-5.976-.02-.371-.035-.664-.035-.848v-93.488c0-5.555-4.496-7.145-8.465-8.547-2.949-1.043-5.738-2.031-5.738-4.758 0-2.578 1.191-3.828 3.648-3.828.235 0 .559.023 1.086.07 1.988.18 7.266.649 23.547.649 2.676 0 5.309-.192 7.852-.383 2.363-.172 4.617-.336 6.707-.336 1.175 0 1.878.469 2.261.859.891.911.864 2.153.856 2.789 0 3.305-3.106 3.997-5.84 4.606-4.293.953-8.727 1.937-8.727 10.141v91.687l-.019 2.598c-.02 2.043-.043 4.152.269 4.468.258.262 2.098.262 2.703.262l28.458-.012c10.085 0 10.484-4.054 10.871-7.976.234-2.399.554-5.688 4.41-5.688 1.394 0 2.207.575 2.64 1.055 1.145 1.266.957 3.16.825 4.488z"/><path d="m1053.7 626.035c-4.78 1.301-10.21 2.778-10.21 9.914v95.289c0 7.071 4.29 8.239 7.75 9.18 2.01.547 4.3 1.168 4.3 3.402 0 1.993-1.14 4.371-6.53 4.371-1.57 0-2.98-.132-4.6-.289-2.15-.203-4.58-.433-8.35-.433-1.45 0-4 .133-6.9.285-3.93.203-8.38.437-11.79.437-1.13 0-4.55 0-4.55-3.472 0-2.617 2.62-3.414 5.15-4.188 3.91-1.187 8.33-2.535 8.33-9.293l.01-37.246c.07-2.16-.11-3.008-.25-3.332h-65.505c-.797 0-1.09.067-1.125.028-.078.257-.078 1.031-.078 1.714v38.836c0 7.754 4.636 9.024 8.363 10.043 2.254.617 4.582 1.254 4.582 3.617 0 1.227-.641 3.293-4.91 3.293-2.836 0-5.692-.187-8.453-.363-5.973-.394-12.192-.324-18.075 0-3.242.176-6.601.363-9.968.363-4.051 0-4.371-2.66-4.371-3.472 0-2.582 2.734-3.223 5.621-3.895 4.652-1.082 9.922-2.308 10.019-9.586v-92.05c0-10.399-4.957-11.708-8.933-12.758-2.387-.629-5.09-1.344-5.09-4.325 0-3.644 2.176-4.187 3.472-4.187.184 0 .434.027.832.086 1.211.172 4.422.633 14.629.633 6.34 0 14.309-.321 19.582-.532 2.645-.109 4.625-.187 5.411-.187 3.015 0 4.367 1.473 4.367 2.934 0 3.406-3.668 4.328-7.215 5.218-5.777 1.457-9.863 2.926-9.863 8.621v44.77c0 .578 0 1.371.007 1.484 0 0 .157.075.657.075l66.394-.024c.01-.301-.01-.762-.04-1.152-.03-.539-.07-1.149-.07-1.824v-43.149c0-5.953-3.81-7.305-7.49-8.613-2.5-.891-5.09-1.813-5.09-4.512 0-1.851.86-2.785 1.59-3.238.89-.559 1.92-.633 2.73-.633l1.48.043c1.24 0 2.67.09 4.53.211 3.39.215 8.03.508 15.43.508 3.42 0 6.54-.199 9.56-.395 2.61-.172 5.05-.324 7.34-.324 2.24 0 3.47 2.41 3.47 3.648 0 2.801-2.98 3.61-6.15 4.469"/><path d="m1164.21 646.613c-1.13 0-1.87-.867-3.11-2.3-3.82-4.434-13.98-16.215-46.87-16.215-5.94 0-9.26.672-10.75 2.179-1.52 1.543-1.49 4.383-1.44 8.684l.02 35.644-.01.942c-.03 1.18-.06 2.516.39 2.973.28.289.9.347 1.36.347h26.61c8.17 0 9.11-4.851 10.01-9.543.57-2.945 1.22-6.281 4.55-6.281 1.68 0 3.47 1.012 3.47 3.832 0 2.469-.09 4.891-.18 7.289-.08 2.32-.17 4.613-.17 6.91 0 2.797.08 5.684.17 8.633.09 3.113.18 6.297.18 9.527 0 2.364-1.08 4.911-3.47 4.911-2.52 0-3.23-2.465-3.85-4.645-1.18-4.109-2.8-9.738-14.3-9.738h-19.42c-2.43 0-4.73 0-5.09.355-.26.262-.25 1.942-.25 3.426v35.008c0 4.383 0 7.031 1.02 7.98 1.12 1.051 4.46 1.133 9.44 1.133l4.95-.012c.83 0 1.82.016 2.93.032 1.37.019 2.93.046 4.59.046 4.55 0 18.4 0 21.82-4.468 1.02-1.469 1.17-3.965 1.29-6.164.19-3.227.42-7.243 4.25-7.243 2.64 0 5.08 2.774 5.08 22.887 0 3.613-1.1 5.449-3.29 5.449-3.11 0-9.62-.226-15.36-.421-4.6-.157-8.75-.301-10.34-.301-2.41 0-5 .074-8.52.172-7.67.218-19.25.55-42.36.55-4.11 0-7.79-.281-7.79-3.648 0-3.047 3.74-3.773 5.75-4.164.3-.059.57-.109.92-.188 7.85-1.164 8.43-7.363 8.43-16.683v-81.985c0-8.406-.4-12.554-4.2-14.308-1.96-.977-3.45-1.574-4.57-2.02-2.27-.906-3.78-1.507-4.17-3.988 0-1.5.73-3.289 4.19-3.289 4.36 0 8.9.199 13.28.391 2.93.132 5.84.257 8.69.332 7.78.199 15.68-.071 23.33-.325 5.77-.195 11.74-.398 17.62-.398l2.25-.008c6.57 0 10.89.324 16.47 6.602 6.31 6.84 9.38 12.879 9.38 18.453 0 1.465-.78 3.648-2.93 3.648"/><path d="m1357.78 748.191c-1.68 0-3.36-.187-4.98-.363-4.98-.547-10.29-.265-15.35 0-3.47.176-7.05.363-10.6.363-1.3 0-3.29-1.476-3.29-3.293 0-3.789 3.49-4.546 6.56-5.218 4.77-1.035 10.16-2.211 10.16-12.399v-58.25c0-27.883-13.47-42.015-40.04-42.015-25.97 0-41.47 15.097-41.47 40.398v64.539c0 6.813 3.53 7.707 6.95 8.567 2.27.574 5.1 1.285 5.1 4.378 0 2.2-2.01 3.313-5.97 3.313l-1.28-.02c-2.81 0-5.7-.187-8.5-.363-5.18-.324-10.61-.383-15.61 0-2.27.176-4.62.363-6.99.363-.06 0-5.45-.195-5.45-3.293 0-3.617 3.6-4.48 6.78-5.242 4.7-1.129 7.78-2.215 7.78-6.801v-60.585c0-23.875 5.99-55.61 57.77-55.61 16.69 0 29.61 4.485 38.39 13.324 13.46 13.559 13.31 33.75 13.26 40.383v56.735c0 9.726 3.71 11.539 6.7 12.992 1.83.89 3.91 1.902 3.91 4.625 0 2.09-2.31 3.472-3.83 3.472"/><path d="m1499.23 748.191c-1.99 0-4.71-.152-7.65-.316-3.39-.191-7.23-.406-10.51-.406-2.87 0-5.66.187-8.35.363-2.61.176-5.31.359-8.01.359-2.08 0-3.47-1.328-3.47-3.293 0-3.144 3.22-3.949 6.33-4.726 5.75-1.438 13.63-3.406 13.63-17.926v-74.266c-.03.036-.06.075-.1.114l-85.73 95.437c-.21.242-.44.547-.69.883-1.18 1.594-2.81 3.777-5.12 3.777-1.44 0-2.91-.191-4.32-.375-2.88-.371-5.31-.351-7.98 0-1.42.184-2.89.375-4.42.375-1.5 0-4.19-1.101-4.19-3.293 0-3.14 2.92-3.859 5.75-4.554 5.98-1.473 16-3.934 16-29.063v-66.34c0-15.668-6.15-17.484-10.65-18.812-2.42-.715-5.17-1.527-5.17-4.738 0-2.243 1.36-3.473 3.83-3.473.4 0 1.6.066 3.25.164 3.5.211 9.35.555 13.65.555 5.14 0 9.03-.246 12.16-.453 2.27-.145 4.19-.266 6-.266.81 0 3.47.273 3.47 3.828 0 2.988-3.08 3.488-5.8 3.93-4.7.765-10.02 1.629-10.02 10.812v73.535c0 1.168.06 1.887.13 2.317.38-.332.97-.949 1.87-2.07.22-.286.4-.497.43-.52l77.32-87.027c3.58-3.922 5.88-5.524 7.93-5.524 3.11 0 3.11 4.071 3.11 9.223v104.094c0 7.242 3.39 8.711 6.37 10.004 1.99.859 4.24 1.835 4.24 4.562 0 1.859-1.33 3.109-3.29 3.109"/><path d="m1562.62 626.207c-5.42 1.352-9.25 2.75-9.25 8.484v96.547c0 7.465 4.24 8.614 7.99 9.621 2.32.629 4.95 1.336 4.95 4.039 0 3.293-2.84 3.293-4.91 3.293-2.83 0-5.69-.187-8.46-.363-5.96-.394-12.18-.324-18.07 0-3.24.176-6.6.363-9.96.363-2.31 0-3.3-1.039-3.3-3.472 0-2.567 2.69-3.239 5.29-3.887 4.3-1.078 9.18-2.293 9.28-9.594v-92.05c0-10.399-4.96-11.708-8.94-12.758-2.38-.629-5.09-1.344-5.09-4.325 0-3.691 2.67-4.187 5.27-4.187.85 0 1.83.074 3.16.184 2.69.211 6.75.535 14.1.535 4.43 0 8.78-.235 12.62-.442 2.79-.148 5.21-.277 6.98-.277 1.78 0 5.08 0 5.08 3.289 0 3.32-3.43 4.172-6.74 5"/><path d="m1703.95 748.191c-.93 0-1.88-.093-3.11-.211-2.19-.214-5.2-.511-10.73-.511-1.91 0-3.89.179-5.8.355-1.98.176-4.02.367-6.07.367-3.46 0-4.19-2.082-4.19-3.832 0-2.921 3.03-3.562 5.47-4.078 3.76-.793 6.04-1.519 6.06-5.191.32-1.645.15-4.957-2.43-11.383l-31.28-77.113c-.2-.485-.38-.996-.56-1.516-.27-.742-.89-2.48-1.26-2.605-.79.312-2.35 4.164-4.01 8.242-.54 1.34-1.15 2.84-1.84 4.515l-31.48 74.094c-.74 1.668-1.48 4.297-1.48 6.406 0 3.09 2.14 4.313 4.22 5.493 1.54.871 3.28 1.867 3.15 3.675 0 1.969-2.08 3.293-4.01 3.293-1.08 0-2.93-.128-5.07-.277-2.84-.199-6.36-.445-9.13-.445-2.63 0-5.26.172-8.04.355-2.78.176-5.65.367-8.51.367-2.43 0-4.01-1.574-4.01-4.011 0-2.672 2.41-3.371 4.54-3.985 3.11-.898 6.97-2.023 9.43-7.925l44.41-104.997c.31-.738.65-1.625 1.01-2.57 1.81-4.754 3.68-9.664 7.01-9.664 3.05 0 4.44 3.785 5.92 7.793.44 1.188.88 2.402 1.39 3.551l44.76 105.894c2.86 6.825 5.51 7.805 7.27 8.45 1.23.453 2.92 1.078 2.92 3.632 0 1.153-.45 3.832-4.55 3.832"/><path d="m1816.53 646.613c-1.12 0-1.87-.867-3.11-2.3-3.83-4.438-13.98-16.215-46.86-16.215-5.95 0-9.26.672-10.75 2.179-1.53 1.543-1.49 4.383-1.44 8.684l.02 35.644-.01.942c-.03 1.18-.06 2.512.39 2.973.28.289.89.347 1.36.347h26.61c8.16 0 9.1-4.851 10.01-9.543.57-2.941 1.21-6.281 4.55-6.281 1.68 0 3.47 1.012 3.47 3.832 0 2.469-.1 4.891-.18 7.289-.09 2.32-.18 4.613-.18 6.91 0 2.797.08 5.684.17 8.633.09 3.113.19 6.297.19 9.527 0 2.364-1.09 4.911-3.47 4.911-2.53 0-3.23-2.469-3.86-4.645-1.18-4.109-2.79-9.738-14.3-9.738h-19.41c-2.43 0-4.74 0-5.09.355-.26.262-.26 1.942-.25 3.426v35.008c0 4.383-.01 7.031 1.01 7.98 1.13 1.051 4.47 1.133 9.44 1.133l4.95-.012c.84 0 1.83.016 2.93.032 1.37.019 2.93.046 4.59.046 4.55 0 18.4 0 21.82-4.468 1.02-1.469 1.16-3.961 1.29-6.164.19-3.227.42-7.243 4.25-7.243 2.64 0 5.09 2.774 5.09 22.887 0 3.613-1.11 5.449-3.29 5.449-3.12 0-9.63-.226-15.37-.421-4.6-.157-8.75-.301-10.34-.301-2.41 0-5 .074-8.52.172-7.66.218-19.24.55-42.36.55-4.1 0-7.78-.281-7.78-3.648 0-3.047 3.74-3.773 5.75-4.164.3-.059.57-.109.92-.188 7.84-1.164 8.43-7.363 8.43-16.683v-81.985c0-8.406-.41-12.554-4.21-14.308-1.95-.977-3.44-1.57-4.57-2.02-2.27-.906-3.77-1.507-4.16-3.988 0-1.5.72-3.289 4.19-3.289 4.36 0 8.9.199 13.28.391 2.92.132 5.83.257 8.69.332 7.78.199 15.68-.071 23.33-.325 5.77-.195 11.74-.398 17.62-.398l2.24-.008c6.58 0 10.89.324 16.46 6.602 6.33 6.84 9.4 12.875 9.4 18.453 0 1.769-1.03 3.648-2.94 3.648"/><path d="m1902.16 711.457c0-22.301-17.99-24.035-23.5-24.035-1.46 0-3-.027-4.54-.055-1.54-.023-3.1-.054-4.59-.054h-.01c-7.66 0-8.81.898-8.97 1.132v45.668c0 4.93 1.69 5.164 7.04 5.164l1.72-.004c9.88 0 32.85-2.71 32.85-27.816zm41.62-86.383c-3.41.739-9.75 2.114-18.03 14.754l-29.04 43.992c13.18 5.981 21.91 18.543 21.91 31.774 0 29.515-27.79 32.703-39.74 32.703-1.58 0-2.84-.051-3.63-.086l-.73-.02c-4.57 0-9.27-.171-14.24-.351-5.14-.18-10.45-.371-15.78-.371-5.63 0-7.37.273-8.64.476-.86.137-1.55.246-2.86.246-2.86 0-5.09-1.601-5.09-3.648 0-3.52 3.36-4.152 6.06-4.656 4.41-.828 9.4-1.766 9.4-11.348v-91.512c0-7.679-4.37-9.449-8.23-11.011-2.4-.977-4.9-1.985-4.9-4.625 0-1.95 1.45-3.473 3.3-3.473 3.45 0 6.94.184 10.32.363 3.34.172 6.79.356 10.17.356 11.16 0 16.3-.407 18.77-.606.88-.066 1.47-.113 1.9-.113l1.23-.027c2.9 0 3.33 1.851 3.33 2.961 0 3.55-3.76 4.386-7.38 5.191-5.31 1.176-11.33 2.512-11.33 10.809v37.933c0 .262-.02.551-.04.863-.07.926-.08 1.614.26 1.989.24.254.95.687 2.97.687l5.25.008c11.93 0 11.93 0 15.62-5.996.52-.84 1.1-1.785 1.78-2.844l19.98-31.492c7.05-10.582 14.52-20.082 28.2-20.082 11.59 0 13.18 1.754 13.18 3.648 0 2.653-2.11 3.11-3.97 3.508"/><path d="m2000.53 696.629c-16.2 4.699-30.19 8.758-30.19 22.918 0 16.152 14.98 21.883 27.81 21.883 15.97 0 27.97-8.153 32.92-22.356.69-2.078 2.13-6.41 5.19-6.41 1.43 0 2.25.59 2.68 1.082.7.781.96 1.891.78 3.274l-2.69 24.421c-.32 3.493-2.65 3.872-3.64 3.872-1.53 0-2.44-.868-3.03-1.442-.43-.406-.59-.535-.75-.535-.3 0-1.27.473-2.13.887-3.73 1.812-11.5 5.586-28.07 5.586-20.61 0-41.41-10.914-41.41-35.293 0-26.352 22.15-32.703 41.69-38.309 16.79-4.816 31.3-8.977 31.3-23.898 0-18.489-16.74-26.911-32.3-26.911-24.26 0-34.43 18.661-36.31 25.821l-.36 1.621c-.61 2.805-1.18 5.457-4.5 5.457-1.06 0-2.02-.445-2.67-1.25-1.05-1.277-1.32-3.391-.78-6.098l4.5-23.234c1.07-4.754 19.22-11.055 31.84-11.055 39.06 0 52.92 21.145 52.92 39.246 0 28.305-22.74 34.903-42.8 40.723"/><path d="m2100.73 626.207c-5.41 1.352-9.25 2.75-9.25 8.484v96.547c0 7.465 4.24 8.614 7.99 9.621 2.32.629 4.95 1.336 4.95 4.039 0 3.293-2.84 3.293-4.91 3.293-2.83 0-5.69-.187-8.45-.363-5.98-.379-12.19-.32-18.07 0-3.25.176-6.61.363-9.97.363-2.31 0-3.29-1.039-3.29-3.472 0-2.567 2.68-3.239 5.28-3.887 4.31-1.078 9.18-2.297 9.28-9.594v-92.05c0-10.399-4.96-11.708-8.94-12.758-2.38-.629-5.08-1.344-5.08-4.325 0-3.691 2.66-4.187 5.26-4.187.85 0 1.84.074 3.17.184 2.68.211 6.74.535 14.09.535 4.43 0 8.78-.235 12.62-.442 2.8-.148 5.21-.277 6.98-.277s5.09 0 5.09 3.289c0 3.32-3.43 4.172-6.75 5"/><path d="m2235.47 741.547c-.22 5.027-1.85 6.644-6.7 6.644-.91 0-2.63-.046-5.2-.113-7.5-.199-23.09-.609-47.48-.609-13.04 0-23.08.226-31.94.426-6.87.156-12.98.296-19.12.296-4.25 0-4.54-5.086-4.68-7.527l-2.03-18.418c0-1.726 1.36-3.652 3.29-3.652 3.13 0 3.85 2.758 4.27 4.402l.62 2.043c2.83 8.711 3.34 10.277 12.91 10.277l29.09.047c.24-.207.78-1.211.55-5.976-.01-.371-.03-.664-.03-.848v-93.488c0-5.555-4.5-7.145-8.47-8.547-2.95-1.043-5.74-2.031-5.74-4.758 0-2.578 1.2-3.828 3.66-3.828.23 0 .55.023 1.08.07 1.98.18 7.26.649 23.55.649 2.67 0 5.31-.192 7.85-.379 2.37-.176 4.62-.34 6.71-.34 1.17 0 1.87.469 2.26.859.89.911.87 2.157.85 2.789 0 3.305-3.1 3.997-5.84 4.606-4.29.953-8.72 1.937-8.72 10.141v91.687l-.02 2.59c-.03 2.047-.05 4.156.27 4.476.26.262 2.1.262 2.7.262l28.46-.012c10.09 0 10.48-4.054 10.87-7.976.23-2.399.55-5.688 4.4-5.688 1.4 0 2.22.578 2.65 1.059 1.15 1.269.96 3.16.82 4.484z"/><path d="m2350.84 748.191c-2.66 0-5.34-.187-7.92-.363-4.63-.328-9.42-.39-14.16-.004-2.19.18-4.46.367-6.68.367-3.5 0-5.27-1.414-5.27-4.191 0-3.027 3.3-3.613 6.21-4.125 4.39-.781 7.27-1.566 7.27-5.223 0-3.797-1.73-6.382-3-8.269l-19.07-30.863c-1.55-2.52-2.17-2.86-2.14-2.883-.11 0-.72.125-2.33 2.539l-21.78 34.726-.34.504c-1.06 1.555-2.64 3.899-2.64 6.043 0 1.887 1.67 2.856 4.23 4.117 2.07 1.024 4.21 2.082 4.21 4.332 0 .993-.48 3.293-4.9 3.293-.67 0-1.75-.097-3.12-.214-2.41-.215-5.71-.508-9.47-.508-7.45 0-11.54.261-14.83.476-2.06.137-3.76.246-5.67.246-2.19 0-3.83-2.214-3.83-4.191 0-2.395 2.35-3.008 4.62-3.602 2.95-.773 6.62-1.73 9.09-5.82l30.06-48.035.47-.703c1.36-2.004 3.41-5.027 3.41-7.641v-43.508c0-6.664-4.12-7.66-8.11-8.625-2.69-.644-5.73-1.382-5.73-4.5 0-3.648 3.04-3.648 4.18-3.648.52 0 1.52.066 2.9.164 2.9.211 7.75.555 13.28.555 4.03 0 9.41-.262 13.72-.473 2.75-.141 5-.246 6.06-.246 1.97 0 5.63 0 5.63 3.289 0 3.199-3.04 4.09-5.72 4.867-4.23 1.239-9.02 2.637-9.02 11.317v44.047c0 1.371.42 2.023 1.88 4.07.61.847 1.33 1.875 2.19 3.215l25.18 39.191c.53.84 1.06 1.699 1.57 2.559 2.25 3.707 4.36 7.211 7.98 9.355.24.145.58.281.94.438 1.55.664 4.12 1.769 4.12 4.277 0 1.684-1.51 3.648-3.47 3.648"/><path d="m2466.82 740.891c34.86 0 55.68-32.059 55.68-63.051 0-31.09-18.83-52.801-45.79-52.801-27.08 0-55.86 22.41-55.86 63.949 0 24.996 14.38 51.903 45.97 51.903zm5.4 8.918c-38.47 0-67.48-28.391-67.48-66.036 0-40.144 25.89-67.113 64.42-67.113 41.54 0 69.45 27.332 69.45 68.012 0 37.133-28.55 65.137-66.39 65.137"/><path d="m2628.95 748.191c-3.12 0-9.63-.226-15.37-.421-4.6-.157-8.75-.301-10.34-.301-2.41 0-5 .074-8.52.172-7.67.218-19.24.55-42.36.55-4.1 0-7.78-.281-7.78-3.648 0-3.047 3.73-3.773 5.74-4.164.3-.059.57-.109.92-.188 7.85-1.164 8.43-7.363 8.43-16.683v-82.883c0-12.242-5.04-14.09-8.72-15.437-2.06-.758-4.4-1.614-4.4-4.336 0-1.258 1.05-3.114 3.29-3.114 1.24 0 2.91.125 5 .285 3.38.262 8.01.614 13.7.614 13.02 0 16.89-.543 18.54-.778.56-.078.91-.121 1.23-.121 3.62 0 5.45 1.352 5.45 4.008 0 2.563-2.66 3.149-5.47 3.77-5.09 1.125-11.42 2.523-11.42 12.773v36.316c0 .438-.03.887-.05 1.329-.05 1.027-.11 2.191.26 2.574.21.226.77.359 1.53.359h26.61c8.16 0 9.1-4.851 10.01-9.543.57-2.941 1.21-6.281 4.55-6.281 1.68 0 3.47 1.012 3.47 3.832 0 2.469-.1 4.891-.18 7.289-.09 2.32-.18 4.613-.18 6.91 0 2.797.08 5.684.17 8.633.09 3.113.19 6.297.19 9.527 0 2.364-1.09 4.911-3.47 4.911-2.53 0-3.23-2.469-3.86-4.645-1.18-4.109-2.79-9.738-14.3-9.738h-19.42c-2.43 0-4.73 0-5.09.355-.26.262-.25 1.938-.24 3.418v35.024c-.01 4.379-.01 7.027 1.01 7.976 1.13 1.047 4.46 1.129 9.44 1.129l4.95-.012c.84 0 1.83.016 2.93.032 1.37.019 2.93.046 4.59.046 4.55 0 18.4 0 21.82-4.468 1.02-1.469 1.16-3.961 1.29-6.164.19-3.227.42-7.243 4.25-7.243 2.64 0 5.09 2.774 5.09 22.887 0 3.613-1.11 5.449-3.29 5.449"/></g><g fill="#f47216"><path d="m556.813 600.16v-278.668h-119.446v428.258h321.985c-6.696-6.656-4.25-16.613-13.364-29.664-11.812-15.766-23.418-8.41-33.05-19.992-8.829-10.723-5.008-21.946-13.333-33.051-11.839-15.813-29.992-10-43.042-26.668-10.606-13.348-10.012-26.863-20.028-40.215z"/><path d="m268.906 749.766c-6.691-6.68-4.84-17.297-13.906-30.313-11.816-15.754-23.441-8.41-33.004-20-8.875-10.687-5.008-21.89-13.336-32.992-11.84-15.793-29.672-10.016-43.004-26.66-10.593-13.332-9.988-26.336-19.98-39.672h155.926v-139.289h-129.266c-10.715 0-19.34-1.176-26.66 6.652-5.61 6.004-6.68 11.781-6.653 19.992l-.015 262.282h-138.97675l-.015625-302.25c-.046875-35.223 23.015675-69.653 36.324175-82.68 16.6719-16.641 50.836-43.301 89.6562-43.301h181.988l109.621 125.981.036 302.25z"/></g></g></svg>