<svg height="99.973061" viewBox="0 0 350.97067 99.973061" width="350.97067" xmlns="http://www.w3.org/2000/svg"><g fill="#fff" transform="matrix(.13333333 0 0 -.13333333 -233.84799 145.98666)"><path d="m3792.55 354.148c-3.94.903-8.01 1.832-8.49 9.872l-2.53 89.793c-.43 12.972 4.65 14.179 8.74 15.148 2.24.531 5.02 1.187 5.02 4.352 0 2.023-1.49 3.671-3.31 3.671-1.42 0-2.55-.16-3.74-.332-1.37-.191-2.79-.394-4.95-.394-.36 0-1.51.121-2.86.262-2.11.214-4.51.464-5.78.468-2.61 0-4.05-3.074-5.21-5.543-.24-.519-.47-1.007-.71-1.449l-43.09-86.535-.29-.609c-1.63-3.352-3.3-6.813-4.18-8.071-.48.61-1.22 2.039-1.94 3.418l-43.54 92.84c-.19.399-.34.852-.51 1.313-.64 1.843-1.63 4.632-4.66 4.632-1.71 0-3.41-.191-5.05-.375-3.39-.382-6.55-.339-9.68.008-1.63.18-3.31.367-5 .367-3.98 0-4.58-2.187-4.58-3.496 0-2.758 2.23-3.543 4.2-4.234 4.54-1.598 12.99-4.57 12.99-34.324 0-13.77-1.13-27.649-2.56-45.219-.56-6.859-1.17-14.301-1.78-22.551-.73-10.879-4.86-12.039-8.17-12.961-2.09-.59-4.68-1.308-4.68-4.699 0-2.238 1.3-3.68 3.31-3.68 1.25 0 2.47.102 4 .231 2.49.211 5.89.488 11.75.488 3.22 0 7.44-.258 10.82-.457 2.27-.141 4.15-.262 5.11-.262 1.95 0 6.03 0 6.03 3.5 0 3.371-3.04 4.192-5.72 4.91-4.95 1.329-11.13 2.989-10.58 17.661l2.17 63.437c.04.434.1.774.17 1.031.13-.179.28-.429.42-.8l38.53-80.68.25-.629c.81-2.07 2.17-5.539 4.75-5.539 2.02 0 3.52 2.508 6.1 8.109.35.75.63 1.379.86 1.789l37.48 76.403c1.51 3.179 2.6 4.16 3.08 4.449.29-.621.75-2.25.76-5.473l1.81-70.207c.09-7.16-3.25-8.5-6.47-9.801-2.23-.89-4.76-1.902-4.76-5.031 0-1.437.92-3.129 3.5-3.129 2.17 0 4.63.16 7.22.34 7 .461 14.73.27 20.1-.07 2.28-.149 4.19-.27 5.62-.27 2.04 0 5.85 0 5.85 3.309 0 3.691-3.23 4.43-5.82 5.019"/><path d="m3893.54 407.191c-.01-.011-.38-.261-2.05-.261h-35.84c-.83 0-1.22.101-1.33.101-.01 0-.01 0-.02 0 .01.117.06.418.36 1.02l20.44 43.953c.04.082.08.148.11.219.02-.035.03-.075.05-.114l17.73-43.597c.4-1.051.48-1.391.55-1.321zm48.12-53.953c-3.33.571-7.48 1.282-10.18 5.41-2.97 4.524-4.93 9.801-6.82 14.911-.69 1.851-1.37 3.691-2.09 5.461l-37.63 93.187c-.09.227-.19.555-.32.938-.85 2.679-2.14 6.734-4.89 6.734-2.73 0-3.41-1.481-8.67-12.981-1.58-3.472-3.61-7.91-6.27-13.585l-43.27-92.333c-2.57-5.628-6.32-6.82-9.06-7.691-2.01-.648-4.29-1.367-4.29-3.969 0-2.058 1.29-3.5 3.13-3.5 2.39 0 4.85.192 7.22.36 4.84.359 9.9.359 14.76.011 2.52-.179 5.12-.371 7.71-.371l1.75-.031c3.08 0 4.64 1.43 4.64 4.25 0 3.039-2.98 3.57-5.37 4-3.68.652-7.48 1.332-7.48 7.949 0 2.114.67 4.633 1.13 5.711l11.57 25.321c1.34 2.8 3.48 2.941 7.15 2.941h39.83c3.99 0 4.77-1.801 6.56-5.922l5.78-14.82c.43-1.141.95-2.449 1.51-3.86 1.79-4.468 4.01-10.027 4.01-12.808 0-2.571-2.01-3.43-5.33-4.551-2.59-.871-5.53-1.859-5.53-4.871 0-2.199 1.85-3.309 5.49-3.309 2.5 0 5.01.192 7.44.371 6.03.45 12.29.289 18.28 0 3.67-.179 7.46-.371 11.2-.371 1.11 0 4.04 0 4.04 3.129 0 3.25-3.19 3.801-6 4.289"/><path d="m4028.79 440c0-22.449-18.11-24.199-23.66-24.199-1.46 0-3.01-.031-4.57-.051-1.55-.031-3.12-.059-4.63-.059-7.71 0-8.87.911-9.03 1.137v45.985c0 4.96 1.71 5.195 7.08 5.195h1.74c9.94 0 33.07-2.731 33.07-28.008zm41.91-86.969c-3.43.739-9.83 2.117-18.16 14.848l-29.23 44.293c13.27 6.019 22.06 18.668 22.06 31.992 0 29.719-27.99 32.926-40.02 32.926-1.59 0-2.85-.051-3.65-.082l-.73-.024c-4.61 0-9.34-.171-14.35-.351-5.17-.184-10.52-.375-15.88-.375-5.67 0-7.43.273-8.7.48-.87.137-1.56.246-2.89.246-2.87 0-5.12-1.613-5.12-3.671 0-3.543 3.39-4.18 6.11-4.692 4.43-.832 9.46-1.773 9.46-11.422v-92.14c0-7.727-4.41-9.508-8.29-11.09-2.42-.981-4.93-1.989-4.93-4.649 0-1.968 1.46-3.5 3.31-3.5 3.48 0 7 .192 10.41.371 3.36.168 6.83.348 10.23.348 11.25 0 16.41-.41 18.9-.598.89-.07 1.49-.121 1.92-.121l1.23-.031c2.91 0 3.35 1.871 3.35 2.981 0 3.582-3.78 4.421-7.43 5.23-5.6 1.238-11.4 2.531-11.4 10.879v38.199c0 .262-.02.551-.04.863-.06.938-.08 1.629.26 2.008.25.25.96.692 2.99.692l5.29.007c12.01 0 12.01 0 15.72-6.027.52-.851 1.11-1.812 1.79-2.871l20.11-31.711c7.11-10.66 14.62-20.219 28.41-20.219 11.66 0 13.27 1.77 13.27 3.68 0 2.66-2.13 3.121-4 3.531"/><path d="m4182.19 470.297c-.23 5.058-1.87 6.687-6.75 6.687-.91 0-2.64-.046-5.23-.113-7.55-.203-23.24-.613-47.81-.613-13.12 0-23.23.226-32.14.43-6.93.156-13.08.296-19.27.296-4.29 0-4.56-5.129-4.7-7.593l-2.05-18.528c0-1.738 1.36-3.675 3.31-3.675 3.16 0 3.88 2.777 4.3 4.437l.63 2.051c2.85 8.765 3.36 10.344 12.99 10.344l29.29.046c.25-.207.79-1.214.56-6.011-.02-.371-.04-.668-.04-.856v-94.129c0-5.59-4.52-7.191-8.52-8.609-2.97-1.051-5.77-2.039-5.77-4.781 0-2.602 1.2-3.86 3.67-3.86.23 0 .56.02 1.09.071 2 .179 7.32.648 23.71.648 2.7 0 5.35-.187 7.91-.379 2.38-.172 4.65-.34 6.75-.34 1.18 0 1.89.469 2.28.871.89.911.86 2.161.85 2.809 0 3.32-3.12 4.02-5.87 4.629-4.32.961-8.79 1.953-8.79 10.211v92.316l-.02 2.614c-.02 2.054-.04 4.183.27 4.5.26.265 2.12.265 2.72.265l28.66-.015c10.15 0 10.55-4.079 10.94-8.028.24-2.418.56-5.726 4.44-5.726 1.13 0 2.03.359 2.66 1.058 1.15 1.274.96 3.184.83 4.52z"/><path d="m4236.54 354.172c-5.45 1.359-9.31 2.758-9.31 8.539v97.203c0 7.52 4.27 8.676 8.04 9.691 2.34.629 4.99 1.344 4.99 4.067 0 3.312-2.86 3.312-4.94 3.312-2.86 0-5.74-.187-8.52-.367-6.01-.398-12.27-.332-18.19 0-3.27.18-6.65.367-10.04.367-2.93 0-3.31-1.867-3.31-3.496 0-2.582 2.71-3.261 5.32-3.914 4.33-1.086 9.24-2.308 9.34-9.66v-92.676c0-10.468-4.99-11.789-9-12.847-2.4-.629-5.12-1.352-5.12-4.352 0-3.719 2.69-4.219 5.31-4.219.85 0 1.84.078 3.18.192 2.7.207 6.79.527 14.19.527 4.46 0 8.84-.23 12.71-.437 2.81-.153 5.24-.282 7.03-.282 1.78 0 5.12 0 5.12 3.309 0 3.351-3.46 4.199-6.8 5.043"/><path d="m4382.83 476.984c-2.01 0-4.74-.156-7.7-.32-3.41-.191-7.28-.406-10.59-.406-2.89 0-5.69.187-8.4.367-2.63.176-5.35.359-8.07.359-2.09 0-3.49-1.336-3.49-3.312 0-3.168 3.24-3.981 6.37-4.762 5.79-1.445 13.72-3.43 13.72-18.047v-74.773c-.03.039-.06.07-.09.109l-86.32 96.094c-.21.242-.44.551-.69.891-1.2 1.605-2.83 3.8-5.16 3.8-1.45 0-2.93-.191-4.35-.379-2.9-.375-5.34-.351-8.04 0-1.43.188-2.9.379-4.45.379-1.51 0-4.21-1.105-4.21-3.312 0-3.164 2.94-3.887 5.78-4.586 6.03-1.484 16.12-3.961 16.12-29.266v-66.789c0-15.781-6.2-17.609-10.72-18.941-2.44-.719-5.21-1.539-5.21-4.77 0-2.261 1.37-3.5 3.86-3.5.4 0 1.6.071 3.26.168 3.53.211 9.42.551 13.75.551 5.17 0 9.09-.238 12.24-.449 2.29-.149 4.23-.27 6.04-.27.82 0 3.5.282 3.5 3.86 0 3.011-3.1 3.511-5.84 3.949-4.73.769-10.09 1.641-10.09 10.891v74.039c0 1.171.06 1.894.13 2.328.38-.332.97-.957 1.88-2.078.23-.289.4-.508.43-.528l77.85-87.621c3.61-3.949 5.92-5.558 7.99-5.558 3.13 0 3.13 4.097 3.13 9.277v104.809c0 7.292 3.41 8.769 6.41 10.074 2.01.863 4.27 1.843 4.27 4.59 0 1.875-1.33 3.132-3.31 3.132"/><path d="m4386.14 568.559h-2632.28v9.375h2632.28z"/><path d="m2647.68 871.395c0 2.343 1.35 15.054-3.35 15.382h-54.66c-20.8 0-21.46-5.011-27.5-23.41-1.01-3.34-1.34-7.687-5.7-7.687-2.01 0-3.35 2.34-3.35 4.011l3.68 32.446c.34 4.011 0 13.039 6.04 13.039 26.16 0 51.98-1.336 95.24-1.336 60.7 0 91.55 1.336 98.26 1.336 7.71 0 9.39-2.008 9.73-9.699l1.67-26.75c.34-3.352.67-7.356-3.69-7.356-12.41 0 5.7 25.406-28.51 25.406h-47.95c-15.09 0-13.41 1.344-13.41-16.379v-170.546c0-28.098 27.16-17.063 27.16-27.426 0-1.004.34-4.012-3.02-4.012-8.05 0-17.44 1.336-27.16 1.336-37.56 0-43.93-1.336-45.94-1.336-3.03 0-4.03 1-4.03 4.34 0 8.027 26.49 4.687 26.49 24.754z"/><path d="m2832.34 807.859c0-11.367-.67-11.367 12.74-11.367h36.22c34.88 0 25.82 26.75 33.87 26.75 2.68 0 3.69-3.676 3.69-6.355 0-11.703-.67-23.074-.67-33.77 0-8.699.67-17.39.67-26.426 0-3.003-1.34-4.339-3.69-4.339-10.4 0 1.01 29.421-27.16 29.421h-49.64c-7.04 0-6.03-5.683-6.03-10.699v-61.527c0-19.731-2.68-27.758 25.48-27.758 77.47 0 88.87 34.441 93.23 34.441 2.35 0 2.68-3.339 2.68-4.011 0-12.043-8.71-23.746-16.76-32.438-10.74-12.039-18.11-11.367-32.87-11.367-25.48 0-50.97 2.008-76.46 1.336-13.41-.336-27.5-1.336-40.91-1.336-3.02 0-5.03.664-5.03 3.34.67 4.016 4.02 3.344 14.76 8.691 8.71 4.016 9.38 13.383 9.38 29.102v152.488c0 15.047 0 31.098-18.11 33.778-2.67.664-10.05 1.335-10.05 5.347 0 2.68 2.01 4.016 11.74 4.016 63.37 0 80.81-1.336 94.9-1.336 6.7 0 37.56 1.336 47.95 1.336 2.69 0 3.36-3.344 3.36-7.356 0-37.121-4.7-39.8-6.71-39.8-8.05 0-2.69 16.054-8.05 23.746-8.72 11.367-43.59 9.363-57.01 9.363-32.19 0-31.52 1.344-31.52-21.066z"/><path d="m3000.17 839.063c0 69.25-40.39 49.941-40.39 62.261 0 1.996 3.33 3.324 5 3.324 5.35 0 10.36-1.328 15.7-1.328 5.01 0 10.35 1.328 15.35 1.328 3.68 0 6.68-5.324 8.69-7.656l159.25-176.793c2.01-2.332 3.34-3.66 4.01-3.66s1 1.004 1 3.66v139.168c0 43.621-37.05 30.965-37.05 41.957 0 2.332 1.67 3.324 3.67 3.324 10.01 0 19.69-1.328 30.38-1.328 11.35 0 25.71 1.328 33.72 1.328 2.01 0 3.34-.992 3.34-2.992 0-8.66-19.7-2.664-19.7-26.972v-192.77c0-9.656-.34-14.32-3-14.32-2.34 0-5.68 1.672-12.69 9.332l-143.57 161.133c-.67.668-4.68 6.328-7.01 6.328-1.34 0-2.34-.992-2.34-7.657v-136.175c0-29.957 29.39-18.305 29.39-27.301 0-1.664-.34-4.32-3.68-4.32-8.01 0-17.36 1.328-33.72 1.328-11.69 0-29.05-1.328-31.38-1.328-4.01 0-4.35 1.996-4.35 3.66 0 11.652 29.38-3 29.38 43.609z"/><path d="m3256.86 839.063c0 69.25-40.4 49.941-40.4 62.261 0 1.996 3.34 3.324 5.01 3.324 5.34 0 10.35-1.328 15.69-1.328 5.01 0 10.35 1.328 15.36 1.328 3.68 0 6.68-5.324 8.68-7.656l159.26-176.793c2-2.332 3.33-3.66 4.01-3.66.67 0 .99 1.004.99 3.66v139.168c0 43.621-37.05 30.965-37.05 41.957 0 2.332 1.67 3.324 3.67 3.324 10.01 0 19.69-1.328 30.38-1.328 11.35 0 25.71 1.328 33.73 1.328 2 0 3.33-.992 3.33-2.992 0-8.66-19.7-2.664-19.7-26.972v-192.77c0-9.656-.33-14.32-3-14.32-2.34 0-5.67 1.672-12.69 9.332l-143.56 161.133c-.68.668-4.68 6.328-7.01 6.328-1.34 0-2.34-.992-2.34-7.657v-136.175c0-29.957 29.38-18.305 29.38-27.301 0-1.664-.34-4.32-3.67-4.32-8.02 0-17.36 1.328-33.73 1.328-11.68 0-29.04-1.328-31.38-1.328-4.01 0-4.34 1.996-4.34 3.66 0 11.652 29.38-3 29.38 43.609z"/><path d="m3537.15 807.762c0-11.317-.67-11.317 12.68-11.317h36.05c34.72 0 25.7 26.629 33.71 26.629 2.68 0 3.67-3.66 3.67-6.328 0-11.648-.66-22.965-.66-33.613 0-8.656.66-17.309.66-26.301 0-2.992-1.33-4.32-3.67-4.32-10.35 0 1.01 29.285-27.03 29.285h-49.41c-7.01 0-6-5.66-6-10.649v-61.242c0-19.64-2.67-27.633 25.36-27.633 77.11 0 88.46 34.286 92.8 34.286 2.33 0 2.67-3.329 2.67-3.996 0-11.985-8.68-23.633-16.69-32.286-10.68-11.984-18.03-11.316-32.71-11.316-25.37 0-50.74 2-76.11 1.332-13.35-.336-27.37-1.332-40.72-1.332-3.01 0-5.01.66-5.01 3.328.67 3.992 4 3.324 14.69 8.649 8.67 3.996 9.35 13.324 9.35 28.968v151.782c0 14.976 0 30.953-18.03 33.621-2.67.66-10.01 1.328-10.01 5.324 0 2.664 2 3.996 11.68 3.996 63.09 0 80.44-1.332 94.47-1.332 6.67 0 37.38 1.332 47.73 1.332 2.67 0 3.34-3.328 3.34-7.324 0-36.95-4.68-39.614-6.68-39.614-8.01 0-2.67 15.981-8.01 23.633-8.68 11.317-43.39 9.321-56.75 9.321-32.04 0-31.37 1.335-31.37-20.969z"/><path d="m3678.6 727.867c-1.33 6.66.34 10.321 3.67 10.321 4.68 0 4.68-3.993 6.35-10.981 4-15.316 24.03-49.945 70.11-49.945 31.71 0 62.75 17.644 62.75 52.601 0 64.254-135.54 28.305-135.54 115.196 0 42.277 35.73 62.582 74.12 62.582 40.39 0 51.42-11.981 56.09-11.981 3 0 3.67 3.66 7.01 3.66 2 0 3.67-1 4.01-4.664l5-45.269c.34-2.668-.33-5-3.67-5-3.67 0-6.01 6.988-7.02 9.992-10 28.629-34.38 43.281-63.76 43.281-26.37 0-54.42-12.656-54.42-43.281 0-62.594 135.54-25.973 135.54-117.852 0-27.968-19.69-69.914-95.47-69.914-24.71 0-55.09 12.321-56.42 18.305z"/><path d="m3854.36 727.867c-1.33 6.66.34 10.321 3.67 10.321 4.68 0 4.68-3.993 6.35-10.981 4.01-15.316 24.03-49.945 70.11-49.945 31.71 0 62.76 17.644 62.76 52.601 0 64.254-135.54 28.305-135.54 115.196 0 42.277 35.72 62.582 74.11 62.582 40.4 0 51.42-11.981 56.09-11.981 3.01 0 3.67 3.66 7.01 3.66 2.01 0 3.67-1 4.01-4.664l5-45.269c.34-2.668-.33-5-3.67-5-3.67 0-6.01 6.988-7.01 9.992-10.01 28.629-34.39 43.281-63.77 43.281-26.37 0-54.42-12.656-54.42-43.281 0-62.594 135.55-25.973 135.55-117.852 0-27.968-19.69-69.914-95.48-69.914-24.71 0-55.09 12.321-56.42 18.305z"/><path d="m4084.65 807.762c0-11.317-.67-11.317 12.68-11.317h36.04c34.73 0 25.71 26.629 33.72 26.629 2.67 0 3.67-3.66 3.67-6.328 0-11.648-.66-22.965-.66-33.613 0-8.656.66-17.309.66-26.301 0-2.992-1.33-4.32-3.67-4.32-10.35 0 1.01 29.285-27.04 29.285h-49.4c-7.01 0-6-5.66-6-10.649v-61.242c0-19.64-2.68-27.633 25.36-27.633 77.11 0 88.46 34.286 92.8 34.286 2.34 0 2.67-3.329 2.67-3.996 0-11.985-8.68-23.633-16.69-32.286-10.69-11.984-18.03-11.316-32.71-11.316-25.37 0-50.74 2-76.11 1.332-13.35-.336-27.37-1.332-40.72-1.332-3.01 0-5.01.66-5.01 3.328.67 3.992 4 3.324 14.69 8.649 8.67 3.996 9.34 13.324 9.34 28.968v151.782c0 14.976 0 30.953-18.03 33.621-2.66.66-10 1.328-10 5.324 0 2.664 2 3.996 11.68 3.996 63.08 0 80.44-1.332 94.46-1.332 6.67 0 37.39 1.332 47.73 1.332 2.68 0 3.35-3.328 3.35-7.324 0-36.95-4.68-39.614-6.68-39.614-8.02 0-2.68 15.981-8.02 23.633-8.67 11.317-43.38 9.321-56.74 9.321-32.04 0-31.37 1.335-31.37-20.969z"/><path d="m4265.29 807.762c0-11.317-.67-11.317 12.68-11.317h36.05c34.72 0 25.7 26.629 33.71 26.629 2.68 0 3.67-3.66 3.67-6.328 0-11.648-.66-22.965-.66-33.613 0-8.656.66-17.309.66-26.301 0-2.992-1.33-4.32-3.67-4.32-10.35 0 1.01 29.285-27.03 29.285h-49.41c-7.01 0-6-5.66-6-10.649v-61.242c0-19.64-2.67-27.633 25.36-27.633 77.11 0 88.46 34.286 92.8 34.286 2.34 0 2.67-3.329 2.67-3.996 0-11.985-8.68-23.633-16.69-32.286-10.68-11.984-18.03-11.316-32.71-11.316-25.37 0-50.74 2-76.11 1.332-13.35-.336-27.37-1.332-40.72-1.332-3.01 0-5 .66-5 3.328.66 3.992 3.99 3.324 14.68 8.649 8.67 3.996 9.34 13.324 9.34 28.968v151.782c0 14.976 0 30.953-18.02 33.621-2.67.66-10.01 1.328-10.01 5.324 0 2.664 2 3.996 11.68 3.996 63.09 0 80.44-1.332 94.46-1.332 6.68 0 37.39 1.332 47.73 1.332 2.68 0 3.35-3.328 3.35-7.324 0-36.95-4.68-39.614-6.68-39.614-8.01 0-2.67 15.981-8.01 23.633-8.68 11.317-43.39 9.321-56.75 9.321-32.04 0-31.37 1.335-31.37-20.969z"/><path d="m2670.27 1086.64c-.22 5.03-1.85 6.65-6.71 6.65-.9 0-2.62-.05-5.19-.11-7.49-.21-23.08-.61-47.48-.61-13.03 0-23.08.22-31.93.42-6.88.16-12.99.3-19.13.3-4.26 0-4.54-5.1-4.67-7.54l-2.04-18.41c0-1.72 1.35-3.65 3.29-3.65 3.14 0 3.85 2.76 4.27 4.41l.62 2.04c2.83 8.7 3.34 10.27 12.91 10.27l29.09.05c.24-.21.78-1.21.55-5.98-.01-.37-.03-.66-.03-.84v-93.492c0-5.554-4.5-7.144-8.46-8.55-2.95-1.039-5.74-2.028-5.74-4.754 0-2.578 1.19-3.832 3.65-3.832.23 0 .55.027 1.08.074 1.99.18 7.27.648 23.55.648 2.67 0 5.31-.195 7.85-.382 2.37-.172 4.62-.34 6.71-.34 1.17 0 1.87.468 2.26.863.89.91.86 2.152.85 2.789 0 3.305-3.1 3.996-5.83 4.602-4.3.957-8.73 1.941-8.73 10.14v91.694l-.02 2.59c-.02 2.04-.04 4.16.27 4.47.26.27 2.1.27 2.7.27l28.46-.02c10.09 0 10.48-4.05 10.87-7.97.23-2.4.56-5.69 4.41-5.69 1.39 0 2.21.57 2.64 1.05 1.15 1.27.96 3.16.83 4.49z"/><path d="m2807.56 971.133c-4.79 1.301-10.22 2.777-10.22 9.914v95.293c0 7.07 4.3 8.23 7.75 9.17 2.02.55 4.3 1.17 4.3 3.41 0 1.99-1.13 4.37-6.53 4.37-1.57 0-2.97-.13-4.59-.29-2.15-.2-4.59-.43-8.35-.43-1.46 0-4.01.13-6.9.28-3.93.2-8.38.44-11.8.44-1.12 0-4.55 0-4.55-3.47 0-2.62 2.63-3.42 5.16-4.19 3.9-1.19 8.33-2.54 8.33-9.29l.01-37.25c.07-2.16-.12-3.01-.25-3.33h-65.51c-.8 0-1.09.06-1.12.03-.08.25-.08 1.03-.08 1.71v38.84c0 7.75 4.64 9.02 8.36 10.04 2.25.62 4.58 1.25 4.58 3.62 0 1.22-.64 3.29-4.91 3.29-2.83 0-5.69-.19-8.45-.37-5.97-.39-12.19-.32-18.07 0-3.25.18-6.61.37-9.97.37-4.06 0-4.37-2.66-4.37-3.47 0-2.59 2.73-3.23 5.62-3.9 4.65-1.08 9.92-2.31 10.02-9.58v-92.055c0-10.398-4.96-11.707-8.94-12.762-2.38-.628-5.09-1.339-5.09-4.32 0-3.644 2.18-4.191 3.47-4.191.19 0 .44.031.84.09 1.21.168 4.42.632 14.62.632 6.35 0 14.31-.32 19.59-.531 2.64-.109 4.62-.191 5.41-.191 3.02 0 4.37 1.476 4.37 2.933 0 3.41-3.67 4.332-7.22 5.223-5.77 1.457-9.86 2.926-9.86 8.617v44.765 1.49s.16.08.66.08l66.4-.03c.01-.3-.02-.76-.04-1.15-.04-.54-.07-1.15-.07-1.82v-43.151c0-5.953-3.81-7.309-7.49-8.614-2.51-.894-5.1-1.812-5.1-4.511 0-1.856.87-2.785 1.59-3.239.9-.558 1.93-.632 2.73-.632l1.49.039c1.23 0 2.67.09 4.53.211 3.38.215 8.03.511 15.42.511 3.43 0 6.55-.203 9.57-.394 2.61-.172 5.05-.328 7.33-.328 2.25 0 3.48 2.414 3.48 3.652 0 2.801-2.99 3.609-6.15 4.469"/><path d="m2918.07 991.711c-1.14 0-1.88-.867-3.11-2.301-3.83-4.433-13.98-16.219-46.87-16.219-5.94 0-9.26.676-10.75 2.184-1.53 1.543-1.49 4.383-1.44 8.684l.02 35.641-.02.94c-.02 1.18-.05 2.52.4 2.98.28.28.89.34 1.36.34h26.61c8.16 0 9.1-4.85 10.01-9.54.57-2.94 1.22-6.28 4.55-6.28 1.68 0 3.47 1.01 3.47 3.83 0 2.47-.09 4.89-.18 7.29-.09 2.32-.18 4.62-.18 6.91 0 2.8.09 5.68.17 8.63.1 3.11.19 6.3.19 9.53 0 2.37-1.09 4.91-3.47 4.91-2.52 0-3.23-2.47-3.86-4.64-1.18-4.12-2.79-9.74-14.3-9.74h-19.41c-2.44 0-4.74 0-5.09.35-.26.27-.26 1.94-.25 3.43v35c0 4.39-.01 7.04 1.01 7.99 1.13 1.05 4.47 1.13 9.44 1.13l4.96-.01c.83 0 1.82.02 2.92.03 1.38.02 2.94.04 4.6.04 4.55 0 18.4 0 21.82-4.46 1.02-1.47 1.16-3.97 1.29-6.17.18-3.22.41-7.24 4.24-7.24 2.64 0 5.09 2.78 5.09 22.89 0 3.61-1.11 5.45-3.29 5.45-3.12 0-9.62-.23-15.36-.43-4.61-.15-8.76-.29-10.35-.29-2.4 0-5 .07-8.52.17-7.66.22-19.25.55-42.36.55-4.1 0-7.78-.28-7.78-3.65 0-3.05 3.74-3.77 5.75-4.16.3-.06.57-.11.92-.19 7.84-1.17 8.43-7.36 8.43-16.69v-81.979c0-8.406-.41-12.555-4.21-14.308-1.96-.977-3.44-1.575-4.57-2.02-2.27-.91-3.77-1.508-4.17-3.988 0-1.5.73-3.293 4.2-3.293 4.36 0 8.89.203 13.28.394 2.92.129 5.83.258 8.69.332 7.77.2 15.68-.07 23.33-.324 5.77-.199 11.74-.402 17.62-.402l2.25-.004c6.57 0 10.88.32 16.46 6.597 6.32 6.844 9.39 12.879 9.39 18.454 0 1.468-.78 3.652-2.93 3.652"/><path d="m3111.63 1093.29c-1.68 0-3.35-.19-4.97-.37-4.98-.54-10.3-.26-15.36 0-3.46.18-7.05.37-10.59.37-1.3 0-3.29-1.48-3.29-3.29 0-3.8 3.48-4.55 6.56-5.22 4.76-1.04 10.16-2.22 10.16-12.4v-58.25c0-27.884-13.47-42.017-40.04-42.017-25.97 0-41.48 15.098-41.48 40.397v64.54c0 6.81 3.54 7.71 6.96 8.56 2.27.58 5.09 1.29 5.09 4.39 0 2.2-2.01 3.31-5.97 3.31l-1.27-.02c-2.81 0-5.71-.19-8.5-.36-5.19-.33-10.62-.39-15.62 0-2.27.17-4.62.36-6.99.36-.05 0-5.45-.2-5.45-3.29 0-3.62 3.61-4.49 6.79-5.25 4.7-1.12 7.78-2.21 7.78-6.8v-60.59c0-23.868 5.99-55.602 57.76-55.602 16.7 0 29.62 4.484 38.4 13.324 13.46 13.559 13.31 33.748 13.26 40.378v56.74c0 9.73 3.71 11.53 6.69 12.99 1.83.89 3.91 1.9 3.91 4.63 0 2.08-2.3 3.47-3.83 3.47"/><path d="m3253.08 1093.29c-1.99 0-4.7-.16-7.65-.32-3.38-.19-7.22-.4-10.5-.4-2.88 0-5.66.18-8.35.36-2.61.18-5.31.36-8.01.36-2.08 0-3.47-1.33-3.47-3.29 0-3.15 3.21-3.95 6.32-4.73 5.76-1.44 13.63-3.41 13.63-17.93v-74.262c-.03.035-.06.07-.09.113l-85.74 95.439c-.2.24-.43.55-.68.88-1.19 1.6-2.81 3.78-5.12 3.78-1.45 0-2.91-.19-4.33-.38-2.88-.37-5.31-.35-7.98 0-1.41.19-2.88.38-4.42.38-1.5 0-4.18-1.1-4.18-3.29 0-3.15 2.92-3.86 5.74-4.56 5.99-1.47 16.01-3.93 16.01-29.06v-66.345c0-15.668-6.15-17.484-10.65-18.812-2.42-.711-5.17-1.524-5.17-4.739 0-2.238 1.36-3.472 3.83-3.472.4 0 1.59.07 3.24.168 3.5.207 9.35.554 13.66.554 5.14 0 9.02-.25 12.15-.453 2.27-.144 4.2-.269 6.01-.269.81 0 3.47.277 3.47 3.832 0 2.988-3.08 3.488-5.8 3.929-4.7.762-10.02 1.625-10.02 10.813v73.534c0 1.17.06 1.89.12 2.32.39-.33.97-.96 1.87-2.07.23-.29.41-.5.43-.52l77.32-87.03c3.58-3.922 5.88-5.523 7.94-5.523 3.11 0 3.11 4.07 3.11 9.223v104.09c0 7.25 3.38 8.71 6.37 10 1.99.86 4.24 1.84 4.24 4.57 0 1.86-1.33 3.11-3.3 3.11"/><path d="m3316.47 971.305c-5.41 1.347-9.25 2.746-9.25 8.48v96.555c0 7.46 4.25 8.61 7.99 9.62 2.32.62 4.96 1.33 4.96 4.04 0 3.29-2.84 3.29-4.91 3.29-2.84 0-5.7-.19-8.46-.37-5.97-.39-12.18-.32-18.07 0-3.25.18-6.6.37-9.97.37-2.3 0-3.29-1.04-3.29-3.47 0-2.57 2.69-3.25 5.29-3.89 4.3-1.08 9.17-2.3 9.27-9.59v-92.055c0-10.398-4.95-11.707-8.93-12.762-2.39-.628-5.09-1.339-5.09-4.32 0-3.691 2.66-4.191 5.27-4.191.85 0 1.83.078 3.16.187 2.68.211 6.74.535 14.1.535 4.42 0 8.78-.234 12.62-.441 2.79-.148 5.2-.281 6.97-.281 1.78 0 5.09 0 5.09 3.293 0 3.32-3.43 4.172-6.75 5"/><path d="m3457.81 1093.29c-.93 0-1.88-.09-3.11-.22-2.2-.21-5.21-.5-10.74-.5-1.91 0-3.88.17-5.79.35-1.98.18-4.03.37-6.07.37-3.47 0-4.19-2.09-4.19-3.83 0-2.93 3.03-3.57 5.47-4.08 3.75-.79 6.03-1.52 6.06-5.19.31-1.65.15-4.96-2.44-11.39l-31.27-77.109c-.2-.484-.39-1-.57-1.515-.26-.742-.88-2.481-1.25-2.606-.79.313-2.36 4.164-4.01 8.243-.55 1.339-1.15 2.839-1.85 4.517l-31.47 74.09c-.74 1.67-1.49 4.3-1.49 6.41 0 3.09 2.15 4.31 4.22 5.49 1.54.87 3.29 1.87 3.15 3.68 0 1.96-2.07 3.29-4.01 3.29-1.07 0-2.92-.13-5.07-.28-2.83-.2-6.36-.44-9.13-.44-2.63 0-5.26.17-8.04.35-2.77.18-5.64.37-8.5.37-2.44 0-4.01-1.58-4.01-4.01 0-2.67 2.41-3.37 4.54-3.99 3.1-.9 6.97-2.02 9.42-7.92l44.41-104.999c.32-.738.66-1.625 1.02-2.57 1.8-4.754 3.68-9.664 7-9.664 3.05 0 4.45 3.785 5.92 7.793.44 1.183.89 2.402 1.39 3.547l44.77 105.903c2.85 6.82 5.51 7.8 7.27 8.44 1.23.46 2.91 1.08 2.91 3.64 0 1.15-.44 3.83-4.54 3.83"/><path d="m3570.39 991.711c-1.13 0-1.88-.867-3.12-2.305-3.82-4.433-13.97-16.215-46.86-16.215-5.94 0-9.25.676-10.75 2.184-1.52 1.543-1.49 4.383-1.44 8.684l.03 35.641-.02.94c-.02 1.18-.05 2.51.4 2.98.28.28.89.34 1.36.34h26.6c8.17 0 9.11-4.85 10.02-9.54.56-2.94 1.2-6.28 4.55-6.28 1.67 0 3.46 1.01 3.46 3.83 0 2.47-.09 4.89-.18 7.29-.09 2.32-.17 4.62-.17 6.91 0 2.8.08 5.68.16 8.63.1 3.11.19 6.3.19 9.53 0 2.37-1.08 4.91-3.46 4.91-2.53 0-3.24-2.47-3.86-4.64-1.18-4.12-2.8-9.74-14.3-9.74h-19.42c-2.43 0-4.73 0-5.09.35-.25.27-.25 1.94-.25 3.43l.01 35c-.01 4.39-.01 7.04 1.01 7.99 1.12 1.05 4.47 1.13 9.43 1.13l4.95-.01c.84 0 1.83.02 2.93.03 1.38.02 2.94.04 4.6.04 4.55 0 18.39 0 21.82-4.46 1.01-1.47 1.16-3.97 1.28-6.17.19-3.22.43-7.24 4.26-7.24 2.64 0 5.09 2.78 5.09 22.89 0 3.61-1.11 5.45-3.29 5.45-3.12 0-9.63-.23-15.37-.43-4.6-.15-8.75-.29-10.35-.29-2.41 0-4.99.07-8.52.17-7.66.22-19.23.55-42.35.55-4.1 0-7.78-.28-7.78-3.65 0-3.05 3.74-3.77 5.75-4.16.3-.06.56-.11.91-.19 7.85-1.17 8.44-7.36 8.44-16.69v-81.979c0-8.406-.42-12.555-4.21-14.308-1.96-.977-3.45-1.571-4.57-2.02-2.27-.91-3.78-1.508-4.17-3.988 0-1.5.73-3.293 4.19-3.293 4.36 0 8.9.203 13.29.394 2.92.129 5.83.258 8.68.332 7.78.2 15.68-.07 23.34-.324 5.76-.199 11.74-.402 17.61-.402l2.25-.004c6.57 0 10.88.32 16.46 6.597 6.32 6.844 9.39 12.875 9.39 18.454 0 1.769-1.02 3.652-2.93 3.652"/><path d="m3656.01 1056.55c0-22.3-17.98-24.03-23.5-24.03-1.45 0-2.99-.03-4.53-.06-1.55-.02-3.11-.05-4.6-.05h-.01c-7.65 0-8.81.9-8.96 1.13v45.67c0 4.93 1.69 5.17 7.03 5.17l1.73-.01c9.88 0 32.84-2.71 32.84-27.82zm41.63-86.378c-3.42.738-9.76 2.109-18.03 14.754l-29.04 43.994c13.18 5.98 21.91 18.54 21.91 31.77 0 29.52-27.8 32.7-39.75 32.7-1.58 0-2.83-.05-3.62-.08l-.73-.02c-4.58 0-9.27-.17-14.25-.35-5.13-.19-10.44-.37-15.77-.37-5.64 0-7.38.27-8.64.47-.86.14-1.56.25-2.87.25-2.85 0-5.09-1.61-5.09-3.65 0-3.52 3.37-4.15 6.07-4.66 4.4-.82 9.39-1.76 9.39-11.34v-91.515c0-7.68-4.37-9.449-8.23-11.016-2.4-.976-4.89-1.98-4.89-4.625 0-1.945 1.45-3.472 3.29-3.472 3.45 0 6.95.187 10.33.363 3.33.176 6.79.359 10.16.359 11.17 0 16.3-.41 18.77-.605.89-.07 1.48-.117 1.91-.117l1.23-.024c2.89 0 3.32 1.852 3.32 2.957 0 3.555-3.75 4.391-7.38 5.196-5.3 1.175-11.32 2.511-11.32 10.804v37.935c0 .26-.02.55-.04.86-.07.93-.08 1.62.26 1.99.24.25.94.69 2.96.69l5.26.01c11.93 0 11.93 0 15.61-6 .53-.84 1.11-1.79 1.79-2.84l19.97-31.492c7.05-10.586 14.52-20.086 28.21-20.086 11.58 0 13.18 1.754 13.18 3.652 0 2.652-2.11 3.106-3.97 3.508"/><path d="m3754.38 1041.72c-16.2 4.71-30.19 8.76-30.19 22.92 0 16.16 14.98 21.88 27.81 21.88 15.97 0 27.97-8.14 32.93-22.35.69-2.08 2.13-6.41 5.19-6.41 1.43 0 2.24.59 2.68 1.08.69.79.95 1.89.78 3.27l-2.7 24.43c-.32 3.49-2.65 3.87-3.64 3.87-1.52 0-2.43-.87-3.03-1.44-.43-.41-.59-.54-.75-.54-.3 0-1.26.48-2.12.89-3.73 1.81-11.5 5.58-28.08 5.58-20.61 0-41.4-10.91-41.4-35.29 0-26.35 22.15-32.7 41.69-38.31 16.79-4.81 31.3-8.97 31.3-23.894 0-18.488-16.75-26.91-32.31-26.91-24.26 0-34.43 18.66-36.3 25.82l-.36 1.618c-.61 2.806-1.18 5.456-4.51 5.456-1.06 0-2.01-.44-2.67-1.25-1.05-1.27-1.32-3.386-.77-6.093l4.5-23.234c1.06-4.754 19.21-11.055 31.84-11.055 39.05 0 52.91 21.144 52.91 39.242 0 28.31-22.73 34.91-42.8 40.72"/><path d="m3854.59 971.305c-5.42 1.347-9.26 2.746-9.26 8.48v96.555c0 7.46 4.25 8.61 7.99 9.62 2.33.62 4.96 1.33 4.96 4.04 0 3.29-2.85 3.29-4.91 3.29-2.84 0-5.69-.19-8.45-.37-5.99-.38-12.2-.31-18.08 0-3.24.18-6.6.37-9.97.37-2.3 0-3.29-1.04-3.29-3.47 0-2.57 2.69-3.25 5.29-3.89 4.3-1.08 9.18-2.3 9.28-9.59v-92.055c0-10.398-4.96-11.707-8.94-12.762-2.39-.628-5.09-1.339-5.09-4.32 0-3.691 2.67-4.191 5.27-4.191.84 0 1.83.078 3.16.187 2.68.211 6.74.535 14.1.535 4.42 0 8.78-.234 12.62-.441 2.79-.148 5.2-.281 6.97-.281 1.78 0 5.09 0 5.09 3.293 0 3.32-3.43 4.172-6.74 5"/><path d="m3989.32 1086.64c-.22 5.03-1.84 6.65-6.7 6.65-.9 0-2.62-.05-5.2-.11-7.49-.21-23.08-.61-47.48-.61-13.03 0-23.07.22-31.93.42-6.88.16-12.99.3-19.13.3-4.25 0-4.53-5.09-4.67-7.53l-2.03-18.42c0-1.72 1.35-3.65 3.29-3.65 3.13 0 3.84 2.76 4.27 4.4l.62 2.05c2.83 8.71 3.34 10.27 12.91 10.27l29.08.05c.25-.21.79-1.21.56-5.98-.02-.37-.03-.66-.03-.84v-93.492c0-5.554-4.5-7.144-8.47-8.55-2.95-1.039-5.74-2.028-5.74-4.754 0-2.578 1.19-3.832 3.65-3.832.24 0 .56.027 1.09.074 1.98.18 7.26.648 23.54.648 2.68 0 5.31-.195 7.85-.379 2.37-.175 4.63-.343 6.72-.343 1.16 0 1.87.468 2.26.863.88.91.86 2.156.85 2.789 0 3.305-3.1 3.996-5.84 4.602-4.29.957-8.73 1.941-8.73 10.14v91.694l-.02 2.58c-.02 2.05-.04 4.16.28 4.48.25.27 2.1.27 2.7.27l28.45-.02c10.1 0 10.49-4.05 10.87-7.97.24-2.4.56-5.69 4.41-5.69 1.4 0 2.21.57 2.64 1.05 1.16 1.28.97 3.16.83 4.49z"/><path d="m4104.7 1093.29c-2.66 0-5.34-.19-7.93-.37-4.62-.33-9.41-.39-14.15 0-2.2.18-4.47.37-6.69.37-3.49 0-5.26-1.41-5.26-4.19 0-3.03 3.3-3.62 6.2-4.13 4.4-.78 7.28-1.56 7.28-5.22 0-3.8-1.74-6.38-3-8.27l-19.08-30.86c-1.54-2.52-2.16-2.87-2.14-2.89-.11 0-.72.13-2.33 2.54l-21.77 34.73-.34.5c-1.06 1.56-2.65 3.9-2.65 6.05 0 1.88 1.68 2.85 4.23 4.11 2.07 1.02 4.22 2.09 4.22 4.34 0 .98-.48 3.29-4.91 3.29-.67 0-1.74-.1-3.12-.22-2.41-.21-5.71-.5-9.46-.5-7.45 0-11.55.26-14.83.47-2.07.14-3.76.25-5.67.25-2.19 0-3.83-2.22-3.83-4.19 0-2.4 2.34-3.01 4.61-3.6 2.95-.78 6.63-1.73 9.1-5.82l30.05-48.04.48-.71c1.35-2 3.41-5.02 3.41-7.63v-43.515c0-6.66-4.13-7.66-8.12-8.621-2.68-.648-5.73-1.383-5.73-4.5 0-3.652 3.05-3.652 4.19-3.652.52 0 1.51.07 2.9.168 2.9.207 7.75.554 13.28.554 4.03 0 9.4-.261 13.71-.472 2.76-.141 5.01-.25 6.07-.25 1.97 0 5.62 0 5.62 3.293 0 3.199-3.04 4.09-5.72 4.867-4.23 1.238-9.02 2.637-9.02 11.312v44.046c0 1.38.42 2.03 1.89 4.08.6.84 1.33 1.87 2.19 3.21l25.17 39.19c.54.84 1.06 1.7 1.58 2.56 2.24 3.71 4.35 7.21 7.97 9.35.25.15.58.29.95.44 1.54.67 4.12 1.77 4.12 4.28 0 1.68-1.51 3.65-3.47 3.65"/><path d="m4220.68 1085.98c34.85 0 55.68-32.05 55.68-63.05 0-31.082-18.83-52.797-45.79-52.797-27.09 0-55.87 22.414-55.87 63.957 0 24.99 14.39 51.89 45.98 51.89zm5.39 8.92c-38.46 0-67.47-28.39-67.47-66.03 0-40.143 25.88-67.112 64.42-67.112 41.53 0 69.45 27.332 69.45 68.012 0 37.13-28.55 65.13-66.4 65.13"/><path d="m4382.81 1093.29c-3.12 0-9.63-.23-15.37-.43-4.6-.15-8.75-.29-10.35-.29-2.41 0-4.99.07-8.52.17-7.66.22-19.24.55-42.35.55-4.1 0-7.79-.28-7.79-3.65 0-3.05 3.74-3.77 5.75-4.16.3-.06.57-.11.92-.19 7.85-1.17 8.43-7.36 8.43-16.69v-82.877c0-12.246-5.04-14.09-8.73-15.438-2.06-.758-4.39-1.613-4.39-4.34 0-1.254 1.04-3.109 3.29-3.109 1.23 0 2.9.125 5 .285 3.38.258 8 .613 13.7.613 13.02 0 16.89-.543 18.54-.777.55-.078.91-.121 1.23-.121 3.61 0 5.45 1.348 5.45 4.008 0 2.562-2.66 3.148-5.47 3.765-5.09 1.129-11.43 2.528-11.43 12.778v36.313c0 .44-.02.89-.04 1.33-.05 1.03-.11 2.19.25 2.58.21.22.78.35 1.53.35h26.61c8.17 0 9.11-4.85 10.02-9.54.56-2.94 1.2-6.28 4.55-6.28 1.67 0 3.46 1.01 3.46 3.83 0 2.47-.09 4.89-.18 7.29-.09 2.32-.17 4.62-.17 6.91 0 2.8.08 5.68.16 8.63.1 3.11.19 6.3.19 9.53 0 2.37-1.08 4.91-3.46 4.91-2.53 0-3.24-2.47-3.86-4.64-1.18-4.12-2.8-9.74-14.31-9.74h-19.41c-2.43 0-4.73 0-5.09.35-.26.27-.26 1.94-.25 3.42v35.02c-.01 4.39-.01 7.03 1.01 7.98 1.13 1.05 4.47 1.13 9.44 1.13l4.95-.01c.84 0 1.83.02 2.93.03 1.38.02 2.94.04 4.6.04 4.55 0 18.39 0 21.82-4.46 1.01-1.47 1.16-3.97 1.28-6.17.19-3.22.43-7.24 4.26-7.24 2.64 0 5.09 2.78 5.09 22.89 0 3.61-1.11 5.45-3.29 5.45"/><path d="m2310.67 945.258v-278.668h-119.45v428.26h321.99c-6.7-6.66-4.25-16.62-13.37-29.67-11.81-15.77-23.41-8.41-33.05-19.99-8.82-10.72-5-21.94-13.33-33.05-11.84-15.812-29.99-10-43.04-26.667-10.61-13.348-10.01-26.868-20.03-40.215z"/><path d="m2022.76 1094.86c-6.69-6.68-4.84-17.29-13.9-30.31-11.82-15.75-23.45-8.41-33.01-20-8.87-10.69-5-21.89-13.33-33-11.84-15.784-29.67-10.01-43.01-26.652-10.59-13.335-9.99-26.339-19.98-39.671h155.93v-139.293h-129.27c-10.71 0-19.34-1.172-26.66 6.656-5.61 6.004-6.68 11.781-6.65 19.992l-.02 262.278h-138.97l-.02-302.247c-.05-35.222 23.02-69.652 36.33-82.679 16.67-16.645 50.83-43.301 89.65-43.301h181.99l109.62 125.98.03 302.247z"/></g></svg>