<svg height="147.14679" viewBox="0 0 244.39999 147.14679" width="244.39999" xmlns="http://www.w3.org/2000/svg"><g fill="#fff" transform="matrix(.13333333 0 0 -.13333333 -285.79999 169.57333)"><path d="m2836.39 177.25c-3.94.898-8.01 1.828-8.49 9.871l-2.53 89.789c-.43 12.981 4.65 14.18 8.74 15.149 2.23.531 5.02 1.191 5.02 4.351 0 2.031-1.49 3.68-3.31 3.68-1.43 0-2.55-.168-3.74-.328-1.37-.203-2.79-.403-4.95-.403-.36 0-1.51.121-2.86.262-2.11.219-4.51.469-5.78.469-2.61 0-4.05-3.07-5.21-5.539-.24-.531-.47-1.012-.71-1.449l-43.09-86.543-.29-.61c-1.63-3.347-3.3-6.808-4.18-8.058-.48.597-1.22 2.031-1.95 3.418l-43.54 92.832c-.18.398-.34.847-.5 1.308-.65 1.852-1.63 4.641-4.66 4.641-1.72 0-3.41-.199-5.06-.379-3.38-.383-6.54-.34-9.67.008-1.63.179-3.32.371-5.01.371-3.98 0-4.57-2.192-4.57-3.5 0-2.758 2.23-3.539 4.2-4.238 4.54-1.59 12.99-4.563 12.99-34.321 0-13.761-1.13-27.652-2.56-45.222-.56-6.86-1.17-14.297-1.78-22.547-.73-10.883-4.86-12.043-8.17-12.961-2.09-.59-4.68-1.313-4.68-4.699 0-2.243 1.3-3.68 3.31-3.68 1.25 0 2.46.098 4 .226 2.49.211 5.88.5 11.75.5 3.22 0 7.44-.257 10.82-.468 2.27-.141 4.15-.258 5.1-.258 1.96 0 6.04 0 6.04 3.5 0 3.367-3.04 4.187-5.72 4.91-4.96 1.328-11.13 2.988-10.58 17.656l2.17 63.442c.04.429.1.769.17 1.031.13-.172.27-.43.42-.801l38.53-80.68.25-.621c.81-2.078 2.16-5.539 4.75-5.539 2.02 0 3.51 2.5 6.1 8.102.35.75.63 1.379.86 1.789l37.47 76.41c1.52 3.168 2.6 4.149 3.08 4.438.3-.618.76-2.25.77-5.469l1.8-70.211c.1-7.16-3.24-8.5-6.46-9.801-2.23-.887-4.76-1.898-4.76-5.027 0-1.442.91-3.129 3.5-3.129 2.17 0 4.63.156 7.21.34 7.01.457 14.73.269 20.11-.071 2.28-.152 4.19-.269 5.62-.269 2.04 0 5.85 0 5.85 3.308 0 3.7-3.23 4.43-5.82 5.02"/><path d="m2937.38 230.289c-.01-.008-.39-.258-2.05-.258h-35.84c-.84 0-1.22.11-1.33.11-.01 0-.02 0-.02 0 0 .109.06.41.36 1.019l20.43 43.942c.04.078.09.148.12.218.02-.031.03-.07.05-.109l17.73-43.602c.4-1.05.48-1.39.55-1.32zm48.12-53.949c-3.34.57-7.49 1.281-10.18 5.41-2.97 4.52-4.93 9.801-6.82 14.91-.69 1.86-1.37 3.692-2.09 5.461l-37.64 93.188c-.08.23-.19.55-.31.941-.85 2.68-2.14 6.73-4.89 6.73-2.74 0-3.41-1.48-8.67-12.98-1.59-3.469-3.61-7.91-6.27-13.59l-43.27-92.332c-2.57-5.629-6.32-6.816-9.06-7.687-2.01-.641-4.29-1.371-4.29-3.969 0-2.063 1.29-3.5 3.13-3.5 2.39 0 4.84.187 7.22.359 4.84.367 9.9.36 14.76.008 2.52-.18 5.12-.367 7.71-.367l1.75-.031c3.08 0 4.64 1.429 4.64 4.25 0 3.039-2.98 3.57-5.38 4-3.67.66-7.47 1.328-7.47 7.949 0 2.109.67 4.629 1.13 5.711l11.57 25.32c1.34 2.809 3.48 2.938 7.15 2.938h39.83c3.99 0 4.77-1.797 6.56-5.918l5.78-14.821c.43-1.129.95-2.449 1.51-3.859 1.79-4.473 4.01-10.031 4.01-12.813 0-2.57-2.01-3.429-5.33-4.546-2.59-.872-5.53-1.864-5.53-4.872 0-2.199 1.85-3.308 5.49-3.308 2.5 0 5.01.187 7.44.367 6.03.449 12.29.289 18.28 0 3.66-.18 7.45-.367 11.2-.367 1.1 0 4.04 0 4.04 3.129 0 3.258-3.19 3.801-6 4.289"/><path d="m3072.63 263.102c0-22.454-18.11-24.204-23.66-24.204-1.47 0-3.01-.027-4.57-.046-1.55-.032-3.12-.063-4.63-.063-7.71 0-8.87.91-9.03 1.141v45.98c0 4.969 1.7 5.199 7.08 5.199h1.74c9.94 0 33.07-2.73 33.07-28.007zm41.91-86.973c-3.44.742-9.83 2.121-18.16 14.851l-29.24 44.301c13.28 6.02 22.07 18.66 22.07 31.989 0 29.71-27.99 32.921-40.02 32.921-1.59 0-2.85-.05-3.65-.082l-.73-.019c-4.61 0-9.34-.18-14.35-.36-5.17-.179-10.52-.371-15.88-.371-5.68 0-7.43.27-8.7.481-.87.14-1.57.25-2.89.25-2.87 0-5.12-1.621-5.12-3.68 0-3.539 3.39-4.18 6.11-4.691 4.43-.828 9.46-1.77 9.46-11.418v-92.141c0-7.73-4.41-9.512-8.29-11.09-2.42-.98-4.93-1.988-4.93-4.648 0-1.961 1.46-3.5 3.31-3.5 3.48 0 7 .187 10.4.367 3.37.172 6.84.359 10.24.359 11.24 0 16.41-.418 18.89-.609.9-.07 1.5-.117 1.93-.117l1.23-.031c2.91 0 3.35 1.871 3.35 2.98 0 3.578-3.78 4.418-7.43 5.231-5.6 1.25-11.4 2.527-11.4 10.878v38.2c0 .261-.02.55-.04.871-.06.929-.09 1.621.26 2 .25.25.96.687 2.99.687l5.29.012c12.01 0 12.01 0 15.72-6.031.52-.848 1.11-1.809 1.79-2.867l20.11-31.711c7.11-10.661 14.62-20.219 28.4-20.219 11.67 0 13.28 1.769 13.28 3.68 0 2.668-2.13 3.117-4 3.527"/><path d="m3226.03 293.398c-.23 5.063-1.87 6.692-6.75 6.692-.91 0-2.64-.051-5.24-.121-7.54-.199-23.23-.61-47.8-.61-13.12 0-23.23.231-32.15.43-6.92.16-13.07.301-19.26.301-4.29 0-4.57-5.129-4.7-7.602l-2.05-18.527c0-1.731 1.36-3.672 3.31-3.672 3.16 0 3.88 2.781 4.3 4.441l.63 2.051c2.85 8.758 3.36 10.34 12.99 10.34l29.29.051c.24-.211.79-1.223.56-6.012-.02-.379-.04-.672-.04-.859v-94.129c0-5.594-4.52-7.192-8.52-8.613-2.97-1.039-5.78-2.039-5.78-4.778 0-2.601 1.21-3.859 3.68-3.859.23 0 .56.027 1.09.066 2 .184 7.32.66 23.71.66 2.69 0 5.34-.199 7.91-.386 2.38-.172 4.65-.34 6.75-.34 1.18 0 1.89.469 2.28.867.89.91.86 2.172.85 2.813 0 3.32-3.12 4.019-5.88 4.628-4.31.961-8.78 1.95-8.78 10.211v92.321l-.02 2.609c-.02 2.059-.04 4.18.27 4.5.26.27 2.11.27 2.72.27l28.65-.02c10.16 0 10.56-4.082 10.95-8.031.24-2.41.56-5.719 4.44-5.719 1.13 0 2.02.359 2.66 1.059 1.15 1.269.96 3.179.83 4.519z"/><path d="m3280.38 177.27c-5.45 1.359-9.31 2.769-9.31 8.539v97.211c0 7.511 4.27 8.671 8.04 9.691 2.34.629 4.99 1.34 4.99 4.059 0 3.32-2.86 3.32-4.94 3.32-2.86 0-5.74-.192-8.52-.371-6.01-.399-12.27-.328-18.19 0-3.27.179-6.65.371-10.04.371-2.93 0-3.31-1.871-3.31-3.5 0-2.578 2.7-3.262 5.32-3.91 4.33-1.09 9.24-2.309 9.34-9.66v-92.68c0-10.469-4.99-11.789-9-12.852-2.4-.629-5.12-1.347-5.12-4.347 0-3.719 2.68-4.219 5.31-4.219.85 0 1.84.078 3.18.187 2.7.211 6.79.539 14.19.539 4.46 0 8.84-.238 12.71-.449 2.81-.148 5.24-.277 7.02-.277 1.79 0 5.13 0 5.13 3.308 0 3.348-3.46 4.2-6.8 5.04"/><path d="m3426.67 300.09c-2.01 0-4.74-.16-7.71-.32-3.41-.192-7.27-.411-10.58-.411-2.89 0-5.69.192-8.4.371-2.63.168-5.35.36-8.07.36-2.09 0-3.49-1.34-3.49-3.32 0-3.168 3.24-3.981 6.37-4.758 5.79-1.453 13.72-3.43 13.72-18.051v-74.77c-.03.039-.06.071-.09.11l-86.32 96.09c-.21.25-.44.558-.69.89-1.2 1.61-2.83 3.809-5.16 3.809-1.45 0-2.93-.199-4.35-.379-2.9-.383-5.35-.352-8.04 0-1.43.18-2.9.379-4.45.379-1.51 0-4.21-1.11-4.21-3.32 0-3.161 2.94-3.891 5.78-4.59 6.03-1.481 16.12-3.95 16.12-29.258v-66.793c0-15.777-6.2-17.609-10.73-18.938-2.43-.722-5.2-1.543-5.2-4.769 0-2.262 1.37-3.5 3.86-3.5.4 0 1.6.066 3.26.168 3.53.211 9.42.558 13.75.558 5.17 0 9.09-.25 12.24-.457 2.29-.152 4.22-.269 6.04-.269.82 0 3.5.277 3.5 3.859 0 3.008-3.1 3.508-5.84 3.949-4.73.77-10.09 1.641-10.09 10.891v74.039c0 1.168.06 1.899.13 2.328.38-.328.97-.957 1.88-2.078.23-.289.4-.512.43-.531l77.85-87.617c3.61-3.953 5.92-5.563 7.99-5.563 3.13 0 3.13 4.102 3.13 9.281v104.809c0 7.289 3.41 8.77 6.41 10.07 2.01.871 4.27 1.852 4.27 4.59 0 1.883-1.33 3.141-3.31 3.141"/><path d="m3976.49 355.48h-1832.97v9.372h1832.97z"/><path d="m2238.06 622.137c0 2.343 1.35 15.054-3.35 15.383h-54.66c-20.79 0-21.46-5.012-27.5-23.411-1.01-3.339-1.34-7.691-5.7-7.691-2.01 0-3.35 2.344-3.35 4.016l3.69 32.441c.33 4.016 0 13.043 6.03 13.043 26.16 0 51.98-1.336 95.24-1.336 60.7 0 91.55 1.336 98.26 1.336 7.72 0 9.39-2.008 9.73-9.699l1.67-26.75c.34-3.352.67-7.356-3.68-7.356-12.41 0 5.7 25.407-28.51 25.407h-47.96c-15.08 0-13.41 1.343-13.41-16.383v-170.547c0-28.09 27.16-17.059 27.16-27.418 0-1.012.34-4.024-3.02-4.024-8.05 0-17.44 1.34-27.16 1.34-37.55 0-43.93-1.34-45.94-1.34-3.02 0-4.02 1-4.02 4.352 0 8.02 26.48 4.68 26.48 24.746z"/><path d="m2422.72 558.602c0-11.368-.67-11.368 12.74-11.368h36.22c34.88 0 25.82 26.75 33.87 26.75 2.69 0 3.69-3.679 3.69-6.355 0-11.707-.67-23.074-.67-33.77 0-8.699.67-17.39.67-26.425 0-3.004-1.34-4.34-3.69-4.34-10.4 0 1.01 29.422-27.16 29.422h-49.64c-7.04 0-6.03-5.688-6.03-10.7v-61.527c0-19.73-2.68-27.758 25.48-27.758 77.48 0 88.88 34.442 93.24 34.442 2.35 0 2.67-3.344 2.67-4.012 0-12.043-8.71-23.75-16.76-32.441-10.73-12.04-18.11-11.372-32.86-11.372-25.49 0-50.98 2.012-76.46 1.34-13.42-.34-27.5-1.34-40.92-1.34-3.02 0-5.02.672-5.02 3.352.66 4.012 4.01 3.34 14.75 8.691 8.71 4.008 9.39 13.379 9.39 29.098v152.484c0 15.047 0 31.102-18.11 33.782-2.68.664-10.06 1.336-10.06 5.347 0 2.68 2.01 4.016 11.74 4.016 63.38 0 80.81-1.336 94.9-1.336 6.7 0 37.56 1.336 47.95 1.336 2.69 0 3.36-3.344 3.36-7.355 0-37.122-4.7-39.801-6.71-39.801-8.05 0-2.68 16.054-8.05 23.746-8.71 11.367-43.59 9.359-57.01 9.359-32.19 0-31.52 1.344-31.52-21.066z"/><path d="m2590.56 589.805c0 69.25-40.4 49.937-40.4 62.258 0 2 3.34 3.328 5.01 3.328 5.34 0 10.35-1.328 15.69-1.328 5.01 0 10.35 1.328 15.36 1.328 3.68 0 6.68-5.325 8.68-7.657l159.26-176.793c2-2.332 3.33-3.66 4-3.66.68 0 1 1 1 3.66v139.168c0 43.618-37.05 30.961-37.05 41.954 0 2.335 1.67 3.328 3.67 3.328 10.01 0 19.69-1.328 30.38-1.328 11.35 0 25.71 1.328 33.73 1.328 2 0 3.33-.993 3.33-2.993 0-8.66-19.7-2.668-19.7-26.976v-192.762c0-9.66-.33-14.32-3-14.32-2.34 0-5.67 1.672-12.69 9.32l-143.57 161.141c-.67.668-4.67 6.328-7 6.328-1.34 0-2.34-.996-2.34-7.656v-136.176c0-29.957 29.38-18.309 29.38-27.297 0-1.672-.34-4.328-3.67-4.328-8.02 0-17.36 1.328-33.73 1.328-11.68 0-29.04-1.328-31.38-1.328-4.01 0-4.34 2-4.34 3.656 0 11.66 29.38-3 29.38 43.617z"/><path d="m2847.24 589.805c0 69.25-40.4 49.937-40.4 62.258 0 2 3.34 3.328 5.01 3.328 5.35 0 10.35-1.328 15.69-1.328 5.01 0 10.35 1.328 15.36 1.328 3.68 0 6.68-5.325 8.68-7.657l159.26-176.793c2-2.332 3.34-3.66 4.01-3.66s1 1 1 3.66v139.168c0 43.618-37.06 30.961-37.06 41.954 0 2.335 1.67 3.328 3.68 3.328 10 0 19.69-1.328 30.37-1.328 11.36 0 25.71 1.328 33.73 1.328 2 0 3.34-.993 3.34-2.993 0-8.66-19.7-2.668-19.7-26.976v-192.762c0-9.66-.34-14.32-3.01-14.32-2.33 0-5.67 1.672-12.69 9.32l-143.56 161.141c-.67.668-4.68 6.328-7.01 6.328-1.34 0-2.34-.996-2.34-7.656v-136.176c0-29.957 29.38-18.309 29.38-27.297 0-1.672-.33-4.328-3.67-4.328-8.01 0-17.36 1.328-33.72 1.328-11.69 0-29.05-1.328-31.39-1.328-4.01 0-4.34 2-4.34 3.656 0 11.66 29.38-3 29.38 43.617z"/><path d="m3127.53 558.504c0-11.316-.67-11.316 12.68-11.316h36.05c34.72 0 25.7 26.628 33.72 26.628 2.67 0 3.67-3.66 3.67-6.328 0-11.648-.66-22.965-.66-33.613 0-8.66.66-17.309.66-26.301 0-2.992-1.33-4.32-3.67-4.32-10.35 0 1 29.285-27.04 29.285h-49.41c-7 0-6-5.66-6-10.648v-61.246c0-19.637-2.67-27.625 25.36-27.625 77.12 0 88.46 34.281 92.81 34.281 2.33 0 2.66-3.328 2.66-3.996 0-11.985-8.67-23.633-16.68-32.285-10.69-11.989-18.03-11.321-32.72-11.321-25.37 0-50.73 2-76.1 1.332-13.35-.332-27.38-1.332-40.73-1.332-3.01 0-5.01.66-5.01 3.332.67 3.989 4.01 3.328 14.69 8.649 8.68 3.992 9.35 13.32 9.35 28.965v151.781c0 14.976 0 30.957-18.03 33.625-2.66.66-10.01 1.328-10.01 5.32 0 2.668 2.01 3.996 11.69 3.996 63.08 0 80.44-1.328 94.46-1.328 6.67 0 37.39 1.328 47.73 1.328 2.67 0 3.34-3.324 3.34-7.32 0-36.949-4.67-39.613-6.68-39.613-8.01 0-2.67 15.976-8.01 23.632-8.67 11.317-43.39 9.321-56.75 9.321-32.04 0-31.37 1.336-31.37-20.969z"/><path d="m3268.98 478.605c-1.33 6.665.34 10.325 3.67 10.325 4.68 0 4.68-3.996 6.35-10.985 4.01-15.312 24.03-49.945 70.11-49.945 31.71 0 62.76 17.648 62.76 52.605 0 64.254-135.54 28.301-135.54 115.192 0 42.281 35.72 62.582 74.11 62.582 40.4 0 51.42-11.977 56.09-11.977 3.01 0 3.67 3.661 7.01 3.661 2.01 0 3.68-1.004 4.01-4.665l5-45.269c.34-2.668-.33-5-3.67-5-3.67 0-6.01 6.988-7.01 9.988-10.01 28.629-34.39 43.281-63.77 43.281-26.37 0-54.41-12.652-54.41-43.281 0-62.59 135.54-25.969 135.54-117.851 0-27.969-19.69-69.914-95.48-69.914-24.71 0-55.09 12.32-56.42 18.308z"/><path d="m3444.75 478.605c-1.34 6.665.33 10.325 3.67 10.325 4.67 0 4.67-3.996 6.34-10.985 4.01-15.312 24.03-49.945 70.11-49.945 31.71 0 62.76 17.648 62.76 52.605 0 64.254-135.54 28.301-135.54 115.192 0 42.281 35.72 62.582 74.11 62.582 40.4 0 51.42-11.977 56.09-11.977 3.01 0 3.67 3.661 7.02 3.661 2 0 3.67-1.004 4-4.665l5.01-45.269c.33-2.668-.34-5-3.67-5-3.68 0-6.01 6.988-7.02 9.988-10.01 28.629-34.38 43.281-63.76 43.281-26.37 0-54.42-12.652-54.42-43.281 0-62.59 135.54-25.969 135.54-117.851 0-27.969-19.69-69.914-95.47-69.914-24.72 0-55.09 12.32-56.43 18.308z"/><path d="m3675.03 558.504c0-11.316-.67-11.316 12.68-11.316h36.05c34.72 0 25.7 26.628 33.71 26.628 2.68 0 3.67-3.66 3.67-6.328 0-11.648-.66-22.965-.66-33.613 0-8.66.66-17.309.66-26.301 0-2.992-1.33-4.32-3.67-4.32-10.35 0 1.01 29.285-27.03 29.285h-49.41c-7.01 0-6-5.66-6-10.648v-61.246c0-19.637-2.67-27.625 25.36-27.625 77.11 0 88.46 34.281 92.8 34.281 2.34 0 2.67-3.328 2.67-3.996 0-11.985-8.68-23.633-16.69-32.285-10.68-11.989-18.03-11.321-32.71-11.321-25.37 0-50.74 2-76.11 1.332-13.35-.332-27.37-1.332-40.72-1.332-3.01 0-5 .66-5 3.332.66 3.989 3.99 3.328 14.68 8.649 8.67 3.992 9.34 13.32 9.34 28.965v151.781c0 14.976 0 30.957-18.02 33.625-2.67.66-10.01 1.328-10.01 5.32 0 2.668 2 3.996 11.68 3.996 63.09 0 80.44-1.328 94.47-1.328 6.67 0 37.38 1.328 47.72 1.328 2.68 0 3.35-3.324 3.35-7.32 0-36.949-4.68-39.613-6.68-39.613-8.01 0-2.67 15.976-8.01 23.632-8.68 11.317-43.39 9.321-56.75 9.321-32.04 0-31.37 1.336-31.37-20.969z"/><path d="m3855.67 558.504c0-11.316-.67-11.316 12.68-11.316h36.05c34.72 0 25.7 26.628 33.72 26.628 2.67 0 3.67-3.66 3.67-6.328 0-11.648-.67-22.965-.67-33.613 0-8.66.67-17.309.67-26.301 0-2.992-1.34-4.32-3.67-4.32-10.35 0 1 29.285-27.04 29.285h-49.41c-7 0-6-5.66-6-10.648v-61.246c0-19.637-2.67-27.625 25.36-27.625 77.12 0 88.46 34.281 92.81 34.281 2.33 0 2.66-3.328 2.66-3.996 0-11.985-8.67-23.633-16.69-32.285-10.68-11.989-18.02-11.321-32.71-11.321-25.37 0-50.74 2-76.1 1.332-13.36-.332-27.38-1.332-40.73-1.332-3.01 0-5 .66-5 3.332.66 3.989 4 3.328 14.68 8.649 8.68 3.992 9.35 13.32 9.35 28.965v151.781c0 14.976 0 30.957-18.03 33.625-2.67.66-10.01 1.328-10.01 5.32 0 2.668 2.01 3.996 11.69 3.996 63.08 0 80.44-1.328 94.46-1.328 6.67 0 37.39 1.328 47.73 1.328 2.67 0 3.34-3.324 3.34-7.32 0-36.949-4.68-39.613-6.68-39.613-8.01 0-2.67 15.976-8.01 23.632-8.67 11.317-43.39 9.321-56.75 9.321-32.04 0-31.37 1.336-31.37-20.969z"/><path d="m2260.65 837.387c-.22 5.023-1.85 6.64-6.7 6.64-.91 0-2.62-.047-5.2-.113-7.49-.199-23.08-.605-47.48-.605-13.03 0-23.07.222-31.93.425-6.87.157-12.98.293-19.13.293-4.26 0-4.54-5.093-4.67-7.539l-2.04-18.402c0-1.727 1.36-3.652 3.3-3.652 3.13 0 3.84 2.757 4.26 4.406l.63 2.039c2.83 8.703 3.33 10.273 12.9 10.273l29.09.047c.24-.207.79-1.207.56-5.972-.02-.375-.04-.664-.04-.852v-93.484c0-5.555-4.49-7.145-8.46-8.551-2.95-1.043-5.74-2.027-5.74-4.754 0-2.578 1.19-3.832 3.65-3.832.23 0 .56.023 1.08.07 1.99.18 7.27.649 23.55.649 2.68 0 5.31-.192 7.86-.379 2.36-.172 4.61-.34 6.7-.34 1.17 0 1.88.469 2.26.863.89.91.87 2.153.86 2.789 0 3.301-3.11 3.992-5.84 4.602-4.29.953-8.73 1.941-8.73 10.14v91.692l-.02 2.594c-.02 2.043-.04 4.156.27 4.472.26.262 2.1.262 2.7.262l28.46-.016c10.09 0 10.49-4.05 10.87-7.972.24-2.403.56-5.688 4.41-5.688 1.4 0 2.21.571 2.64 1.051 1.15 1.266.96 3.16.83 4.488z"/><path d="m2397.94 721.875c-4.78 1.297-10.21 2.777-10.21 9.914v95.285c0 7.071 4.29 8.242 7.74 9.18 2.02.551 4.3 1.168 4.3 3.402 0 1.992-1.13 4.371-6.52 4.371-1.57 0-2.98-.129-4.6-.289-2.15-.203-4.58-.429-8.35-.429-1.45 0-4 .129-6.9.281-3.93.207-8.38.437-11.8.437-1.12 0-4.54 0-4.54-3.468 0-2.618 2.62-3.418 5.15-4.188 3.91-1.191 8.33-2.539 8.33-9.297l.01-37.246c.07-2.156-.12-3.008-.25-3.332h-65.51c-.79 0-1.09.067-1.12.031-.08.258-.08 1.032-.08 1.715v38.832c0 7.754 4.64 9.028 8.36 10.047 2.26.613 4.58 1.25 4.58 3.613 0 1.231-.63 3.293-4.9 3.293-2.84 0-5.7-.183-8.46-.363-5.97-.394-12.19-.32-18.07 0-3.25.18-6.6.363-9.97.363-4.05 0-4.37-2.656-4.37-3.468 0-2.586 2.73-3.223 5.62-3.899 4.65-1.082 9.92-2.308 10.02-9.586v-92.051c0-10.398-4.96-11.703-8.94-12.757-2.38-.629-5.08-1.344-5.08-4.321 0-3.644 2.17-4.191 3.47-4.191.18 0 .43.027.83.086 1.21.172 4.42.633 14.63.633 6.34 0 14.31-.321 19.58-.532 2.65-.109 4.63-.187 5.41-.187 3.02 0 4.37 1.473 4.37 2.934 0 3.41-3.67 4.332-7.22 5.222-5.77 1.457-9.86 2.926-9.86 8.617v44.77c0 .578 0 1.375.01 1.484 0 0 .15.078.66.078l66.39-.027c.01-.301-.02-.762-.04-1.148-.03-.539-.07-1.153-.07-1.825v-43.148c0-5.953-3.81-7.309-7.49-8.617-2.51-.891-5.09-1.813-5.09-4.508 0-1.856.86-2.789 1.59-3.238.89-.563 1.92-.633 2.72-.633l1.49.039c1.23 0 2.67.09 4.53.211 3.39.215 8.03.508 15.43.508 3.42 0 6.54-.2 9.56-.391 2.61-.172 5.05-.328 7.34-.328 2.24 0 3.47 2.414 3.47 3.652 0 2.801-2.99 3.61-6.15 4.469"/><path d="m2508.45 742.449c-1.13 0-1.88-.867-3.11-2.297-3.82-4.433-13.98-16.218-46.87-16.218-5.94 0-9.26.675-10.75 2.179-1.52 1.547-1.49 4.387-1.44 8.688l.02 35.64-.01.946c-.03 1.176-.06 2.511.39 2.968.28.29.9.348 1.36.348h26.61c8.17 0 9.11-4.851 10.01-9.539.57-2.945 1.22-6.281 4.55-6.281 1.68 0 3.47 1.008 3.47 3.832 0 2.469-.09 4.887-.18 7.289-.09 2.316-.17 4.613-.17 6.91 0 2.797.08 5.68.17 8.629.09 3.113.18 6.301.18 9.527 0 2.364-1.09 4.91-3.47 4.91-2.52 0-3.23-2.464-3.85-4.64-1.18-4.113-2.8-9.742-14.31-9.742h-19.41c-2.43 0-4.73 0-5.09.355-.26.266-.26 1.942-.25 3.43v35.004c0 4.383-.01 7.031 1.01 7.98 1.13 1.055 4.47 1.133 9.45 1.133l4.95-.012c.83 0 1.82.016 2.93.035 1.37.02 2.93.043 4.59.043 4.55 0 18.4 0 21.82-4.468 1.02-1.465 1.16-3.965 1.29-6.164.19-3.227.42-7.243 4.25-7.243 2.64 0 5.08 2.778 5.08 22.891 0 3.609-1.1 5.445-3.29 5.445-3.11 0-9.62-.226-15.36-.422-4.6-.156-8.75-.296-10.34-.296-2.41 0-5 .07-8.53.168-7.66.218-19.24.55-42.35.55-4.11 0-7.79-.277-7.79-3.648 0-3.043 3.74-3.774 5.75-4.16.3-.059.57-.11.92-.192 7.85-1.164 8.43-7.359 8.43-16.683v-81.981c0-8.41-.41-12.554-4.2-14.308-1.96-.977-3.45-1.575-4.57-2.024-2.28-.906-3.78-1.508-4.17-3.984 0-1.5.73-3.293 4.19-3.293 4.36 0 8.9.199 13.28.394 2.93.129 5.83.258 8.69.329 7.78.203 15.68-.067 23.33-.325 5.77-.195 11.74-.398 17.62-.398l2.25-.004c6.57 0 10.89.32 16.47 6.598 6.31 6.84 9.38 12.879 9.38 18.453 0 1.469-.78 3.648-2.93 3.648"/><path d="m2702.01 844.027c-1.67 0-3.35-.183-4.97-.363-4.98-.547-10.29-.262-15.35 0-3.47.18-7.05.363-10.6.363-1.3 0-3.29-1.472-3.29-3.293 0-3.789 3.49-4.546 6.56-5.214 4.77-1.04 10.16-2.215 10.16-12.399v-58.254c0-27.879-13.47-42.015-40.04-42.015-25.97 0-41.47 15.101-41.47 40.402v64.539c0 6.812 3.53 7.703 6.95 8.562 2.27.575 5.1 1.286 5.1 4.379 0 2.204-2.01 3.317-5.97 3.317l-1.28-.024c-2.81 0-5.7-.183-8.5-.359-5.18-.324-10.61-.387-15.61 0-2.27.176-4.62.359-6.99.359-.06 0-5.45-.191-5.45-3.293 0-3.613 3.6-4.48 6.78-5.242 4.7-1.129 7.78-2.215 7.78-6.801v-60.586c0-23.871 5.99-55.609 57.76-55.609 16.7 0 29.62 4.488 38.4 13.328 13.46 13.555 13.31 33.746 13.26 40.379v56.735c0 9.73 3.71 11.539 6.69 12.992 1.84.89 3.91 1.906 3.91 4.629 0 2.086-2.3 3.468-3.83 3.468"/><path d="m2843.47 844.027c-1.99 0-4.71-.152-7.65-.316-3.39-.188-7.23-.402-10.51-.402-2.87 0-5.66.183-8.35.363-2.61.176-5.31.355-8.01.355-2.08 0-3.47-1.324-3.47-3.293 0-3.144 3.22-3.949 6.33-4.722 5.75-1.442 13.63-3.41 13.63-17.926v-74.266c-.03.035-.07.071-.1.114l-85.73 95.433c-.21.242-.44.551-.69.887-1.19 1.594-2.81 3.773-5.12 3.773-1.44 0-2.91-.187-4.32-.375-2.88-.371-5.31-.347-7.99 0-1.41.188-2.88.375-4.41.375-1.51 0-4.19-1.097-4.19-3.293 0-3.14 2.92-3.855 5.75-4.554 5.98-1.469 16-3.93 16-29.063v-66.34c0-15.668-6.15-17.484-10.65-18.812-2.42-.715-5.17-1.527-5.17-4.738 0-2.239 1.36-3.473 3.83-3.473.4 0 1.6.07 3.25.168 3.5.207 9.35.551 13.65.551 5.14 0 9.03-.246 12.16-.45 2.27-.144 4.19-.269 6-.269.81 0 3.47.277 3.47 3.832 0 2.988-3.08 3.484-5.8 3.926-4.7.765-10.02 1.629-10.02 10.816v73.531c0 1.172.06 1.887.13 2.317.38-.332.96-.949 1.86-2.067.23-.289.41-.5.44-.519l77.31-87.031c3.59-3.922 5.89-5.524 7.94-5.524 3.11 0 3.11 4.07 3.11 9.223v104.097c0 7.243 3.38 8.708 6.37 10 1.99.86 4.24 1.836 4.24 4.563 0 1.859-1.33 3.109-3.29 3.109"/><path d="m2906.86 722.043c-5.42 1.352-9.26 2.75-9.26 8.484v96.547c0 7.469 4.25 8.617 8 9.625 2.32.625 4.95 1.336 4.95 4.035 0 3.293-2.84 3.293-4.91 3.293-2.84 0-5.69-.183-8.46-.363-5.97-.394-12.18-.32-18.07 0-3.24.18-6.6.363-9.97.363-2.3 0-3.29-1.039-3.29-3.468 0-2.567 2.69-3.243 5.29-3.891 4.3-1.078 9.18-2.293 9.27-9.594v-92.051c0-10.398-4.95-11.703-8.93-12.757-2.39-.629-5.09-1.344-5.09-4.321 0-3.691 2.67-4.191 5.27-4.191.85 0 1.83.074 3.16.184 2.68.21 6.74.535 14.1.535 4.42 0 8.78-.231 12.62-.438 2.79-.152 5.21-.281 6.98-.281s5.08 0 5.08 3.293c0 3.32-3.43 4.172-6.74 4.996"/><path d="m3048.19 844.027c-.93 0-1.88-.089-3.11-.211-2.2-.214-5.2-.507-10.73-.507-1.91 0-3.89.175-5.8.351-1.98.18-4.02.367-6.07.367-3.46 0-4.19-2.082-4.19-3.832 0-2.922 3.03-3.562 5.47-4.078 3.75-.793 6.03-1.515 6.06-5.191.32-1.645.15-4.953-2.43-11.379l-31.28-77.117c-.2-.485-.38-.996-.56-1.512-.27-.742-.89-2.48-1.26-2.609-.79.312-2.35 4.168-4.01 8.246-.54 1.34-1.15 2.84-1.85 4.511l-31.47 74.098c-.74 1.668-1.49 4.297-1.49 6.402 0 3.094 2.15 4.313 4.22 5.493 1.54.875 3.29 1.867 3.16 3.675 0 1.973-2.08 3.293-4.02 3.293-1.07 0-2.92-.129-5.06-.277-2.84-.199-6.36-.441-9.14-.441-2.62 0-5.25.168-8.04.351-2.77.18-5.64.367-8.5.367-2.43 0-4.01-1.574-4.01-4.007 0-2.672 2.41-3.372 4.54-3.989 3.11-.898 6.97-2.019 9.43-7.922l44.41-105c.31-.738.65-1.621 1.01-2.566 1.81-4.754 3.68-9.664 7.01-9.664 3.04 0 4.44 3.785 5.92 7.789.43 1.187.88 2.402 1.38 3.551l44.77 105.898c2.85 6.821 5.51 7.801 7.27 8.446 1.23.457 2.92 1.078 2.92 3.632 0 1.153-.45 3.832-4.55 3.832"/><path d="m3160.77 742.449c-1.13 0-1.88-.867-3.11-2.301-3.83-4.433-13.98-16.214-46.87-16.214-5.94 0-9.25.675-10.74 2.179-1.53 1.547-1.49 4.387-1.44 8.688l.02 35.64-.02.942c-.02 1.18-.05 2.512.4 2.972.28.29.89.348 1.36.348h26.61c8.16 0 9.1-4.851 10.01-9.539.57-2.941 1.21-6.281 4.55-6.281 1.68 0 3.47 1.008 3.47 3.832 0 2.469-.1 4.887-.19 7.289-.08 2.316-.17 4.613-.17 6.91 0 2.797.08 5.68.17 8.629.09 3.113.19 6.301.19 9.527 0 2.364-1.09 4.91-3.47 4.91-2.53 0-3.23-2.468-3.86-4.64-1.18-4.113-2.8-9.742-14.3-9.742h-19.41c-2.44 0-4.74 0-5.09.355-.26.266-.26 1.942-.25 3.43v35.004c0 4.383-.01 7.031 1.01 7.98 1.13 1.055 4.47 1.133 9.44 1.133l4.95-.012c.84 0 1.83.016 2.92.035 1.38.02 2.94.043 4.6.043 4.55 0 18.4 0 21.82-4.468 1.02-1.465 1.16-3.961 1.29-6.164.19-3.227.42-7.243 4.25-7.243 2.64 0 5.09 2.778 5.09 22.891 0 3.609-1.11 5.445-3.29 5.445-3.12 0-9.63-.226-15.37-.422-4.6-.156-8.75-.296-10.35-.296-2.41 0-4.99.07-8.52.168-7.65.218-19.23.55-42.35.55-4.1 0-7.78-.277-7.78-3.648 0-3.043 3.74-3.774 5.75-4.16.3-.059.57-.11.92-.192 7.84-1.164 8.43-7.359 8.43-16.683v-81.981c0-8.41-.41-12.554-4.21-14.308-1.96-.977-3.44-1.571-4.57-2.024-2.27-.906-3.77-1.508-4.17-3.984 0-1.5.73-3.293 4.2-3.293 4.36 0 8.89.199 13.28.394 2.92.129 5.83.258 8.69.329 7.77.203 15.68-.067 23.33-.325 5.77-.195 11.74-.398 17.62-.398l2.24-.004c6.57 0 10.89.32 16.46 6.598 6.32 6.84 9.4 12.875 9.4 18.453 0 1.769-1.03 3.648-2.94 3.648"/><path d="m3246.4 807.297c0-22.305-17.99-24.035-23.5-24.035-1.46 0-3-.032-4.54-.059-1.54-.023-3.1-.051-4.6-.051-7.66 0-8.81.899-8.97 1.129v45.668c0 4.934 1.69 5.164 7.04 5.164l1.72-.004c9.88 0 32.85-2.707 32.85-27.812zm41.62-86.387c-3.41.742-9.76 2.113-18.03 14.754l-29.04 43.996c13.18 5.977 21.91 18.539 21.91 31.774 0 29.511-27.79 32.699-39.74 32.699-1.58 0-2.84-.051-3.63-.082l-.73-.024c-4.57 0-9.27-.172-14.24-.347-5.14-.184-10.45-.371-15.78-.371-5.63 0-7.37.269-8.64.476-.86.133-1.55.242-2.86.242-2.86 0-5.09-1.601-5.09-3.648 0-3.516 3.36-4.152 6.06-4.656 4.41-.828 9.4-1.762 9.4-11.348v-91.508c0-7.679-4.37-9.449-8.23-11.015-2.41-.977-4.9-1.981-4.9-4.625 0-1.95 1.45-3.473 3.29-3.473 3.46 0 6.95.184 10.33.363 3.34.176 6.79.356 10.17.356 11.16 0 16.3-.407 18.76-.602.89-.07 1.48-.117 1.91-.117l1.23-.027c2.89 0 3.32 1.855 3.32 2.961 0 3.554-3.75 4.386-7.37 5.191-5.31 1.18-11.33 2.516-11.33 10.809v37.933c0 .262-.02.555-.04.863-.07.93-.08 1.618.26 1.989.24.254.95.687 2.97.687l5.25.008c11.93 0 11.93 0 15.62-5.992.52-.84 1.1-1.789 1.78-2.844l19.98-31.492c7.05-10.586 14.52-20.086 28.2-20.086 11.59 0 13.18 1.754 13.18 3.652 0 2.649-2.11 3.106-3.97 3.504"/><path d="m3344.77 792.465c-16.21 4.703-30.2 8.762-30.2 22.922 0 16.152 14.98 21.879 27.82 21.879 15.97 0 27.97-8.153 32.92-22.352.69-2.078 2.13-6.414 5.19-6.414 1.43 0 2.25.59 2.68 1.082.69.781.96 1.895.78 3.273l-2.69 24.426c-.32 3.492-2.65 3.871-3.64 3.871-1.53 0-2.44-.871-3.03-1.441-.43-.41-.59-.535-.75-.535-.3 0-1.27.472-2.13.883-3.73 1.812-11.5 5.586-28.07 5.586-20.61 0-41.41-10.915-41.41-35.29 0-26.351 22.15-32.707 41.69-38.308 16.79-4.82 31.3-8.977 31.3-23.899 0-18.492-16.74-26.914-32.31-26.914-24.25 0-34.43 18.664-36.3 25.821l-.36 1.621c-.61 2.808-1.18 5.457-4.5 5.457-1.07 0-2.02-.442-2.67-1.246-1.05-1.282-1.32-3.391-.78-6.102l4.5-23.234c1.07-4.75 19.21-11.055 31.84-11.055 39.06 0 52.92 21.145 52.92 39.25 0 28.305-22.74 34.899-42.8 40.719"/><path d="m3444.97 722.043c-5.41 1.352-9.25 2.75-9.25 8.484v96.547c0 7.469 4.24 8.617 7.99 9.625 2.32.625 4.95 1.336 4.95 4.035 0 3.293-2.84 3.293-4.91 3.293-2.83 0-5.69-.183-8.45-.363-5.98-.379-12.2-.316-18.07 0-3.25.18-6.61.363-9.97.363-2.31 0-3.29-1.039-3.29-3.468 0-2.567 2.68-3.243 5.28-3.891 4.31-1.078 9.18-2.297 9.28-9.594v-92.051c0-10.398-4.96-11.703-8.94-12.757-2.38-.629-5.09-1.344-5.09-4.321 0-3.691 2.67-4.191 5.27-4.191.84 0 1.84.074 3.17.184 2.68.21 6.73.535 14.09.535 4.43 0 8.78-.231 12.62-.438 2.8-.152 5.21-.281 6.98-.281s5.09 0 5.09 3.293c0 3.32-3.43 4.172-6.75 4.996"/><path d="m3579.7 837.383c-.21 5.027-1.84 6.644-6.7 6.644-.9 0-2.62-.047-5.2-.113-7.49-.199-23.08-.605-47.48-.605-13.03 0-23.07.222-31.93.425-6.87.157-12.98.293-19.12.293-4.26 0-4.54-5.082-4.68-7.523l-2.03-18.418c0-1.727 1.35-3.652 3.29-3.652 3.13 0 3.85 2.754 4.27 4.402l.62 2.043c2.83 8.707 3.34 10.273 12.91 10.273l29.09.047c.24-.207.78-1.207.55-5.972-.02-.375-.03-.664-.03-.852v-93.484c0-5.555-4.5-7.145-8.47-8.551-2.95-1.043-5.74-2.027-5.74-4.754 0-2.578 1.2-3.832 3.66-3.832.23 0 .55.023 1.08.07 1.98.18 7.26.649 23.55.649 2.67 0 5.31-.192 7.85-.375 2.36-.176 4.62-.344 6.71-.344 1.17 0 1.87.469 2.26.863.89.91.87 2.156.85 2.789 0 3.301-3.1 3.992-5.84 4.602-4.29.953-8.72 1.941-8.72 10.14v91.692l-.03 2.586c-.02 2.047-.04 4.16.28 4.48.26.262 2.1.262 2.7.262l28.46-.016c10.09 0 10.48-4.05 10.87-7.972.23-2.403.55-5.688 4.4-5.688 1.4 0 2.22.574 2.65 1.055 1.15 1.269.96 3.16.82 4.484z"/><path d="m3695.08 844.027c-2.66 0-5.34-.183-7.92-.363-4.63-.328-9.42-.391-14.16-.004-2.19.184-4.46.367-6.69.367-3.49 0-5.26-1.414-5.26-4.191 0-3.023 3.3-3.609 6.2-4.125 4.4-.777 7.28-1.566 7.28-5.223 0-3.797-1.73-6.383-3-8.265l-19.07-30.864c-1.55-2.519-2.17-2.863-2.14-2.886-.11 0-.73.125-2.34 2.539l-21.77 34.73-.34.5c-1.06 1.559-2.65 3.903-2.65 6.047 0 1.887 1.68 2.856 4.24 4.113 2.06 1.024 4.21 2.082 4.21 4.332 0 .993-.48 3.293-4.91 3.293-.67 0-1.74-.093-3.11-.214-2.41-.215-5.71-.504-9.47-.504-7.45 0-11.54.261-14.83.476-2.07.133-3.76.242-5.67.242-2.19 0-3.83-2.214-3.83-4.191 0-2.391 2.34-3.008 4.62-3.602 2.95-.769 6.62-1.726 9.09-5.816l30.06-48.039.47-.703c1.35-2.004 3.41-5.024 3.41-7.641v-43.508c0-6.664-4.12-7.66-8.11-8.621-2.69-.648-5.74-1.383-5.74-4.5 0-3.652 3.05-3.652 4.19-3.652.52 0 1.52.07 2.9.168 2.9.207 7.75.551 13.28.551 4.03 0 9.4-.262 13.72-.473 2.75-.137 5-.246 6.06-.246 1.97 0 5.62 0 5.62 3.293 0 3.199-3.03 4.086-5.71 4.867-4.23 1.238-9.03 2.637-9.03 11.313v44.046c0 1.375.43 2.024 1.89 4.071.61.847 1.33 1.875 2.19 3.215l25.18 39.191c.53.84 1.05 1.699 1.57 2.559 2.24 3.707 4.36 7.214 7.98 9.355.24.145.58.285.94.441 1.55.661 4.12 1.77 4.12 4.274 0 1.687-1.51 3.648-3.47 3.648"/><path d="m3811.06 836.727c34.85 0 55.68-32.055 55.68-63.051 0-31.086-18.83-52.801-45.79-52.801-27.08 0-55.86 22.41-55.86 63.949 0 25 14.38 51.903 45.97 51.903zm5.4 8.918c-38.47 0-67.48-28.391-67.48-66.032 0-40.144 25.89-67.117 64.42-67.117 41.54 0 69.45 27.336 69.45 68.016 0 37.133-28.55 65.133-66.39 65.133"/><path d="m3973.19 844.027c-3.12 0-9.63-.226-15.37-.422-4.6-.156-8.75-.296-10.35-.296-2.41 0-4.99.07-8.52.168-7.66.218-19.24.55-42.35.55-4.1 0-7.78-.277-7.78-3.648 0-3.043 3.73-3.774 5.74-4.16.3-.059.57-.11.92-.192 7.85-1.164 8.43-7.359 8.43-16.683v-82.879c0-12.246-5.04-14.094-8.72-15.442-2.06-.757-4.4-1.613-4.4-4.335 0-1.254 1.05-3.114 3.29-3.114 1.24 0 2.91.129 5 .289 3.38.258 8.01.61 13.7.61 13.02 0 16.89-.539 18.54-.774.56-.082.91-.125 1.23-.125 3.61 0 5.45 1.352 5.45 4.012 0 2.562-2.66 3.148-5.47 3.766-5.09 1.125-11.42 2.523-11.42 12.773v36.316c0 .438-.03.887-.05 1.332-.05 1.028-.11 2.192.26 2.575.21.222.77.355 1.53.355h26.61c8.16 0 9.1-4.851 10.01-9.539.57-2.941 1.21-6.281 4.55-6.281 1.67 0 3.47 1.008 3.47 3.832 0 2.469-.1 4.887-.19 7.289-.08 2.316-.17 4.613-.17 6.91 0 2.797.08 5.68.17 8.629.09 3.113.19 6.301.19 9.527 0 2.364-1.09 4.91-3.47 4.91-2.53 0-3.23-2.468-3.86-4.64-1.18-4.113-2.8-9.742-14.3-9.742h-19.42c-2.43 0-4.73 0-5.09.355-.26.266-.25 1.938-.24 3.422v35.02c-.01 4.378-.01 7.027 1.01 7.976 1.13 1.051 4.46 1.129 9.44 1.129l4.95-.012c.83 0 1.82.016 2.92.035 1.38.02 2.94.043 4.6.043 4.55 0 18.4 0 21.82-4.468 1.02-1.465 1.16-3.961 1.29-6.164.19-3.227.42-7.243 4.25-7.243 2.64 0 5.09 2.778 5.09 22.891 0 3.609-1.11 5.445-3.29 5.445"/><path d="m3192.85 1159.6v-209.002h-89.59v321.192h241.49c-5.02-4.99-3.19-12.46-10.02-22.25-8.86-11.82-17.56-6.31-24.79-14.99-6.62-8.04-3.75-16.46-10-24.79-8.88-11.86-22.49-7.5-32.28-20-7.95-10.01-7.51-20.15-15.02-30.16z"/><path d="m2976.92 1271.8c-5.02-5.01-3.63-12.97-10.43-22.73-8.86-11.82-17.58-6.31-24.76-15-6.65-8.02-3.75-16.42-10-24.75-8.88-11.84-22.25-7.51-32.25-19.99-7.95-10-7.49-19.76-14.99-29.76h116.95v-104.46h-96.95c-8.04 0-14.5-.88-20 4.99-4.2 4.5-5 8.83-4.99 14.99l-.01 196.71h-104.23l-.01-226.68c-.04-26.42 17.26-52.241 27.24-62.015 12.51-12.48 38.13-32.476 67.24-32.476h136.5l82.21 94.491.03 226.68z"/></g></svg>