<svg height="81.773331" viewBox="0 0 740.23999 81.773331" width="740.23999" xmlns="http://www.w3.org/2000/svg"><g transform="matrix(.13333333 0 0 -.13333333 0 81.773333)"><g fill="#231f20"><path d="m4753.09 12.1836c-5.29 1.2109-10.77 2.457-11.41 13.2812l-3.41 120.8162c-.58 17.457 6.26 19.082 11.76 20.383 3.01.715 6.76 1.606 6.76 5.856 0 2.722-2.01 4.941-4.46 4.941-1.92 0-3.43-.215-5.03-.441-1.84-.262-3.75-.536-6.66-.536-.48 0-2.03.164-3.85.352-2.84.293-6.07.625-7.78.633-3.51 0-5.45-4.133-7.01-7.461-.33-.699-.63-1.356-.96-1.949l-57.97-116.4418-.4-.8125c-2.18-4.5195-4.44-9.1719-5.62-10.8594-.64.8125-1.65 2.7344-2.62 4.6055l-58.58 124.9102c-.25.539-.46 1.148-.68 1.766-.87 2.484-2.19 6.234-6.28 6.234-2.3 0-4.58-.254-6.79-.5-4.56-.52-8.81-.461-13.02.008-2.19.242-4.46.492-6.74.492-5.35 0-6.16-2.941-6.16-4.699 0-3.715 3.01-4.77 5.66-5.703 6.11-2.145 17.48-6.145 17.48-46.176 0-18.528-1.52-37.2111-3.45-60.8596-.75-9.2265-1.57-19.2382-2.39-30.3398-.98-14.6367-6.54-16.1914-11-17.4414-2.8-.7813-6.3-1.7578-6.3-6.32032 0-3.00391 1.75-4.949224 4.46-4.949224 1.68 0 3.32.136724 5.39.308594 3.34.28125 7.91.66797 15.8.66797 4.34 0 10.01-.35156 14.57-.63281 3.05-.1875 5.58-.343754 6.86-.343754 2.64 0 8.12 0 8.12 4.707034 0 4.53911-4.09 5.63671-7.69 6.60161-6.67 1.7968-14.98 4.0273-14.24 23.7734l2.92 85.3553c.06.586.14 1.043.23 1.387.18-.234.37-.578.56-1.078l51.85-108.5588.33-.836c1.09-2.78904 2.92-7.45701 6.39-7.45701 2.73 0 4.74 3.36719 8.21 10.90231.47 1.0157.85 1.8555 1.16 2.4141l50.43 102.8044c2.03 4.278 3.49 5.59 4.14 5.985.4-.832 1.02-3.032 1.03-7.364l2.43-94.4684c.13-9.6406-4.36-11.4414-8.7-13.1836-3-1.1992-6.41-2.56247-6.41-6.76559 0-1.94532 1.24-4.218754 4.71-4.218754 2.92 0 6.23.222654 9.71.453124 9.43.62891 19.82.3711 27.06-.09375 3.06-.1914 5.64-.359374 7.56-.359374 2.74 0 7.86 0 7.86 4.460934 0 4.96481-4.34 5.95701-7.83 6.75001"/><path d="m4888.99 83.5547c-.02-.0156-.52-.3516-2.76-.3516h-48.23c-1.12 0-1.64.1407-1.78.1407h-.04c.01.1523.09.5625.49 1.371l27.5 59.1372c.05.105.1.199.15.293.02-.047.04-.098.07-.153l23.85-58.6678c.54-1.4101.64-1.875.75-1.7695zm64.74-72.6016c-4.49.7696-10.07 1.7266-13.7 7.2813-4 6.0898-6.63 13.1953-9.18 20.0625-.92 2.5-1.84 4.9648-2.8 7.3476l-50.64 125.3905c-.12.305-.26.746-.42 1.262-1.15 3.605-2.89 9.062-6.59 9.062-3.68 0-4.59-1.992-11.66-17.468-2.14-4.668-4.86-10.645-8.44-18.282l-58.22-124.234c-3.46-7.5703-8.51-9.1797-12.2-10.3555-2.7-.8632-5.76-1.83981-5.76-5.33981 0-2.76953 1.73-4.707034 4.21-4.707034 3.21 0 6.51.250004 9.71.488284 6.52.48828 13.32.47656 19.86.0039 3.39-.24218 6.89-.492184 10.38-.492184l2.35-.042968c4.14 0 6.24 1.921872 6.24 5.718752 0 4.08986-4.01 4.80466-7.23 5.38286-4.95.8828-10.06 1.7968-10.06 10.6953 0 2.8398.9 6.2304 1.52 7.6836l15.58 34.0703c1.8 3.7773 4.68 3.9609 9.61 3.9609h53.59c5.38 0 6.43-2.4297 8.83-7.9687l7.79-19.9375c.56-1.5313 1.27-3.3008 2.02-5.1914 2.41-6.0157 5.4-13.504 5.4-17.2461 0-3.4532-2.71-4.6172-7.18-6.1211-3.48-1.1719-7.43-2.50394-7.43-6.54301 0-2.96093 2.48-4.460934 7.38-4.460934 3.36 0 6.74.250004 10.01.500004 8.12.60547 16.54.38672 24.6-.00782 4.93-.24218 10.03-.492184 15.07-.492184 1.49 0 5.44 0 5.44 4.218754 0 4.375-4.29 5.10939-8.08 5.76169"/><path d="m5070.97 127.699c0-30.2146-24.36-32.5623-31.83-32.5623-1.98 0-4.06-.039-6.15-.0742-2.1-.0352-4.2-.0742-6.23-.0742-10.37 0-11.94 1.2187-12.15 1.5351v61.8676c0 6.679 2.29 6.996 9.53 6.996l2.33-.004c13.38 0 44.5-3.672 44.5-37.684zm56.39-117.0271c-4.62 1-13.22 2.8594-24.43 19.9883l-39.34 59.5976c17.86 8.1016 29.69 25.1212 29.69 43.0472 0 39.984-37.66 44.3-53.85 44.3-2.14 0-3.83-.07-4.91-.113l-.99-.031c-6.19 0-12.56-.231-19.3-.473-6.96-.246-14.15-.504-21.37-.504-7.64 0-9.99.371-11.71.649-1.17.18-2.1.328-3.88.328-3.86 0-6.89-2.168-6.89-4.941 0-4.766 4.55-5.625 8.22-6.309 5.96-1.121 12.72-2.387 12.72-15.371v-123.9767c0-10.4024-5.92-12.8008-11.15-14.9219-3.26-1.3203-6.63-2.67968-6.63-6.26171 0-2.64063 1.96-4.707034 4.46-4.707034 4.68 0 9.42.250004 13.99.492184 4.53.23829 9.2.48438 13.78.48438 15.12 0 22.08-.55078 25.42-.82031 1.2-.09375 2.01-.156254 2.58-.156254l1.67-.035156c3.91 0 4.5 2.51172 4.5 4.01172 0 4.8125-5.08 5.94138-9.99 7.03518-7.55 1.6719-15.34 3.4023-15.34 14.6367v51.3945c0 .3555-.03.75-.05 1.168-.09 1.2578-.12 2.1914.35 2.6953.32.3438 1.28.9297 4.01.9297l7.12.0117c16.16 0 16.16 0 21.15-8.1172.7-1.1367 1.49-2.4258 2.41-3.8554l27.07-42.6641c9.56-14.3398 19.67-27.210944 38.21-27.210944 15.69 0 17.86 2.378904 17.86 4.949224 0 3.58984-2.86 4.20702-5.38 4.75002"/><path d="m5277.37 168.465c-.3 6.808-2.5 8.996-9.08 8.996-1.22 0-3.55-.063-7.04-.152-10.15-.27-31.26-.825-64.32-.825-17.65 0-31.26.309-43.26.579-9.31.21-17.59.398-25.91.398-5.77 0-6.15-6.898-6.33-10.215l-2.76-24.93c0-2.339 1.83-4.949 4.46-4.949 4.25 0 5.21 3.738 5.78 5.973l.84 2.758c3.84 11.797 4.53 13.922 17.49 13.922l39.41.066c.33-.281 1.06-1.641.75-8.094-.03-.5-.05-.902-.05-1.152v-126.6525c0-7.5234-6.09-9.6797-11.46-11.582-4-1.4141-7.78-2.75003-7.78-6.44534 0-3.49219 1.62-5.187504 4.95-5.187504.31 0 .75.035154 1.47.097654 2.69.24219 9.84.87891 31.9.87891 3.62 0 7.19-.26172 10.64-.51953 3.2-.23047 6.25-.457034 9.08-.457034 1.59 0 2.54.636724 3.07 1.167974 1.2 1.23437 1.16 2.91796 1.15 3.78125 0 4.47262-4.21 5.41012-7.91 6.23442-5.81 1.2929-11.82 2.6289-11.82 13.7382v124.2145l-.02 3.52c-.03 2.766-.06 5.625.36 6.055.35.355 2.84.355 3.66.355l38.55-.019c13.67 0 14.21-5.493 14.73-10.801.32-3.254.76-7.707 5.97-7.707 1.52 0 2.73.484 3.58 1.426 1.56 1.71 1.3 4.281 1.12 6.082z"/><path d="m5350.51 12.2031c-7.34 1.8321-12.53 3.7266-12.53 11.4961v130.7968c0 10.117 5.75 11.668 10.83 13.035 3.14.852 6.71 1.813 6.71 5.473 0 4.457-3.85 4.457-6.65 4.457-3.85 0-7.72-.25-11.46-.492-8.1-.539-16.52-.446-24.49 0-4.39.242-8.94.492-13.5.492-3.95 0-4.46-2.508-4.46-4.699 0-3.477 3.64-4.391 7.17-5.27 5.82-1.461 12.43-3.105 12.56-12.996v-124.7069c0-14.086-6.71-15.8594-12.11-17.2852-3.23-.8516-6.89-1.8203-6.89-5.85546 0-5 3.61-5.675784 7.14-5.675784 1.15 0 2.48.101564 4.28.250004 3.64.28906 9.14.72656 19.1.72656 6 0 11.9-.31641 17.1-.59766 3.78-.20312 7.05-.378904 9.45-.378904 2.41 0 6.89 0 6.89 4.460934 0 4.4961-4.64 5.65231-9.14 6.76951"/><path d="m5547.35 177.461c-2.7 0-6.38-.207-10.37-.43-4.58-.254-9.79-.547-14.23-.547-3.9 0-7.66.254-11.31.496-3.54.235-7.2.481-10.86.481-2.81 0-4.7-1.793-4.7-4.457 0-4.262 4.36-5.352 8.57-6.402 7.8-1.95 18.47-4.618 18.47-24.286v-100.6129c-.04.0508-.08.0977-.13.1524l-116.15 129.2925c-.28.332-.59.747-.93 1.2-1.61 2.16-3.81 5.113-6.94 5.113-1.95 0-3.93-.254-5.85-.508-3.9-.504-7.19-.473-10.82 0-1.92.254-3.9.508-5.98.508-2.04 0-5.67-1.488-5.67-4.457 0-4.258 3.95-5.231 7.78-6.172 8.11-1.992 21.69-5.328 21.69-39.375v-89.8711c0-21.2265-8.34-23.6875-14.43-25.4882-3.28-.9688-7.01-2.0704-7.01-6.41801 0-3.03516 1.85-4.707034 5.19-4.707034.54 0 2.16.093754 4.4.226564 4.74.28125 12.66.75 18.5.75 6.96 0 12.22-.33594 16.46-.61328 3.08-.19531 5.69-.363284 8.14-.363284 1.1 0 4.7.375004 4.7 5.187504 0 4.05074-4.18 4.72654-7.86 5.32424-6.36 1.0351-13.58 2.2031-13.58 14.6523v99.6213c0 1.582.09 2.555.18 3.137.51-.45 1.31-1.29 2.53-2.805.31-.391.54-.676.58-.703l104.75-117.90262c4.85-5.3125 7.97-7.48438 10.75-7.48438 4.22 0 4.22 5.51563 4.22 12.4961v141.0239c0 9.808 4.58 11.796 8.62 13.55 2.7 1.164 5.75 2.485 5.75 6.18 0 2.52-1.8 4.211-4.46 4.211"/><path d="m5551.79 269.133h-5551.79v11.25h5551.79z"/><path d="m3813.41 576.473c0 2.34 1.35 15.054-3.35 15.379h-54.66c-20.8 0-21.46-5.012-27.5-23.407-1.01-3.343-1.34-7.691-5.7-7.691-2.01 0-3.35 2.34-3.35 4.012l3.68 32.445c.34 4.012 0 13.039 6.04 13.039 26.16 0 51.98-1.336 95.24-1.336 60.7 0 91.55 1.336 98.26 1.336 7.71 0 9.39-2.008 9.73-9.699l1.67-26.75c.34-3.352.67-7.356-3.69-7.356-12.41 0 5.7 25.407-28.51 25.407h-47.95c-15.09 0-13.41 1.343-13.41-16.379v-170.547c0-28.098 27.16-17.063 27.16-27.422 0-1.012.34-4.016-3.02-4.016-8.05 0-17.44 1.336-27.16 1.336-37.56 0-43.93-1.336-45.94-1.336-3.03 0-4.03 1-4.03 4.34 0 8.027 26.49 4.688 26.49 24.754z"/><path d="m3998.07 512.938c0-11.372-.67-11.372 12.74-11.372h36.22c34.88 0 25.82 26.75 33.87 26.75 2.68 0 3.69-3.675 3.69-6.355 0-11.703-.67-23.074-.67-33.77 0-8.699.67-17.39.67-26.421 0-3.008-1.34-4.344-3.69-4.344-10.4 0 1.01 29.422-27.16 29.422h-49.64c-7.04 0-6.03-5.684-6.03-10.696v-61.531c0-19.73-2.68-27.758 25.48-27.758 77.47 0 88.87 34.442 93.23 34.442 2.35 0 2.68-3.34 2.68-4.012 0-12.039-8.71-23.746-16.76-32.438-10.74-12.039-18.11-11.367-32.87-11.367-25.48 0-50.97 2.008-76.46 1.336-13.41-.336-27.5-1.336-40.91-1.336-3.02 0-5.03.664-5.03 3.34.67 4.016 4.02 3.344 14.76 8.692 8.71 4.015 9.38 13.382 9.38 29.101v152.488c0 15.047 0 31.102-18.11 33.778-2.68.664-10.05 1.336-10.05 5.347 0 2.68 2.01 4.016 11.74 4.016 63.37 0 80.81-1.336 94.9-1.336 6.7 0 37.56 1.336 47.95 1.336 2.69 0 3.36-3.344 3.36-7.355 0-37.122-4.7-39.801-6.71-39.801-8.05 0-2.69 16.054-8.05 23.746-8.72 11.371-43.59 9.363-57.01 9.363-32.19 0-31.52 1.344-31.52-21.066z"/><path d="m4165.9 544.137c0 69.25-40.39 49.941-40.39 62.261 0 1.997 3.33 3.329 5 3.329 5.35 0 10.36-1.332 15.7-1.332 5.01 0 10.35 1.332 15.35 1.332 3.68 0 6.68-5.329 8.69-7.661l159.25-176.793c2.01-2.332 3.34-3.66 4.01-3.66s1 1.004 1 3.66v139.168c0 43.622-37.05 30.965-37.05 41.957 0 2.332 1.67 3.329 3.67 3.329 10.01 0 19.69-1.332 30.38-1.332 11.35 0 25.71 1.332 33.72 1.332 2.01 0 3.34-.997 3.34-2.993 0-8.664-19.7-2.668-19.7-26.976v-192.77c0-9.652-.34-14.32-3-14.32-2.34 0-5.68 1.672-12.69 9.328l-143.57 161.137c-.67.672-4.68 6.328-7.01 6.328-1.34 0-2.34-.992-2.34-7.656v-136.172c0-29.961 29.39-18.309 29.39-27.305 0-1.664-.34-4.32-3.68-4.32-8.01 0-17.36 1.328-33.72 1.328-11.69 0-29.05-1.328-31.38-1.328-4.01 0-4.35 1.996-4.35 3.66 0 11.652 29.38-3 29.38 43.609z"/><path d="m4422.59 544.137c0 69.25-40.4 49.941-40.4 62.261 0 1.997 3.34 3.329 5.01 3.329 5.34 0 10.35-1.332 15.69-1.332 5.01 0 10.35 1.332 15.36 1.332 3.68 0 6.68-5.329 8.68-7.661l159.26-176.793c2-2.332 3.33-3.66 4.01-3.66.67 0 .99 1.004.99 3.66v139.168c0 43.622-37.05 30.965-37.05 41.957 0 2.332 1.67 3.329 3.67 3.329 10.01 0 19.69-1.332 30.38-1.332 11.35 0 25.71 1.332 33.73 1.332 2 0 3.33-.997 3.33-2.993 0-8.664-19.7-2.668-19.7-26.976v-192.77c0-9.652-.33-14.32-3-14.32-2.34 0-5.67 1.672-12.69 9.328l-143.56 161.137c-.68.672-4.68 6.328-7.01 6.328-1.34 0-2.34-.992-2.34-7.656v-136.172c0-29.961 29.38-18.309 29.38-27.305 0-1.664-.34-4.32-3.67-4.32-8.02 0-17.36 1.328-33.73 1.328-11.68 0-29.04-1.328-31.38-1.328-4.01 0-4.34 1.996-4.34 3.66 0 11.652 29.38-3 29.38 43.609z"/><path d="m4702.88 512.84c0-11.317-.67-11.317 12.68-11.317h36.05c34.72 0 25.7 26.625 33.71 26.625 2.68 0 3.67-3.66 3.67-6.324 0-11.652-.66-22.969-.66-33.617 0-8.656.66-17.309.66-26.301 0-2.992-1.33-4.32-3.67-4.32-10.35 0 1.01 29.285-27.03 29.285h-49.41c-7.01 0-6-5.656-6-10.648v-61.243c0-19.64-2.67-27.628 25.36-27.628 77.11 0 88.46 34.281 92.8 34.281 2.33 0 2.67-3.328 2.67-3.996 0-11.985-8.68-23.633-16.69-32.285-10.68-11.985-18.03-11.317-32.71-11.317-25.37 0-50.74 2-76.11 1.328-13.35-.332-27.37-1.328-40.72-1.328-3.01 0-5.01.66-5.01 3.328.67 3.996 4 3.325 14.69 8.649 8.67 3.996 9.35 13.324 9.35 28.968v151.782c0 14.976 0 30.957-18.03 33.621-2.67.66-10.01 1.328-10.01 5.324 0 2.664 2 3.996 11.68 3.996 63.09 0 80.44-1.332 94.47-1.332 6.67 0 37.38 1.332 47.73 1.332 2.67 0 3.34-3.328 3.34-7.324 0-36.945-4.68-39.613-6.68-39.613-8.01 0-2.67 15.98-8.01 23.636-8.68 11.317-43.39 9.317-56.75 9.317-32.04 0-31.37 1.336-31.37-20.969z"/><path d="m4844.33 432.941c-1.33 6.661.34 10.325 3.67 10.325 4.68 0 4.68-3.996 6.35-10.985 4-15.312 24.03-49.945 70.11-49.945 31.71 0 62.75 17.644 62.75 52.602 0 64.253-135.54 28.304-135.54 115.195 0 42.277 35.73 62.582 74.12 62.582 40.39 0 51.42-11.981 56.09-11.981 3 0 3.67 3.664 7.01 3.664 2 0 3.67-1.003 4.01-4.664l5-45.273c.34-2.664-.33-5-3.67-5-3.67 0-6.01 6.988-7.02 9.992-10 28.629-34.38 43.281-63.76 43.281-26.37 0-54.42-12.656-54.42-43.281 0-62.594 135.54-25.973 135.54-117.851 0-27.969-19.69-69.914-95.47-69.914-24.71 0-55.09 12.32-56.42 18.304z"/><path d="m5020.09 432.941c-1.33 6.661.34 10.325 3.67 10.325 4.68 0 4.68-3.996 6.35-10.985 4.01-15.312 24.03-49.945 70.11-49.945 31.71 0 62.76 17.644 62.76 52.602 0 64.253-135.54 28.304-135.54 115.195 0 42.277 35.72 62.582 74.11 62.582 40.4 0 51.42-11.981 56.09-11.981 3.01 0 3.67 3.664 7.01 3.664 2.01 0 3.67-1.003 4.01-4.664l5-45.273c.34-2.664-.33-5-3.67-5-3.67 0-6.01 6.988-7.01 9.992-10.01 28.629-34.39 43.281-63.77 43.281-26.37 0-54.42-12.656-54.42-43.281 0-62.594 135.55-25.973 135.55-117.851 0-27.969-19.69-69.914-95.48-69.914-24.71 0-55.09 12.32-56.42 18.304z"/><path d="m5250.38 512.84c0-11.317-.67-11.317 12.68-11.317h36.04c34.73 0 25.71 26.625 33.72 26.625 2.67 0 3.67-3.66 3.67-6.324 0-11.652-.66-22.969-.66-33.617 0-8.656.66-17.309.66-26.301 0-2.992-1.33-4.32-3.67-4.32-10.35 0 1.01 29.285-27.04 29.285h-49.4c-7.01 0-6-5.656-6-10.648v-61.243c0-19.64-2.68-27.628 25.36-27.628 77.11 0 88.46 34.281 92.8 34.281 2.34 0 2.66-3.328 2.66-3.996 0-11.985-8.67-23.633-16.68-32.285-10.69-11.985-18.03-11.317-32.71-11.317-25.37 0-50.74 2-76.11 1.328-13.35-.332-27.37-1.328-40.72-1.328-3.01 0-5.01.66-5.01 3.328.67 3.996 4 3.325 14.69 8.649 8.67 3.996 9.34 13.324 9.34 28.968v151.782c0 14.976 0 30.957-18.03 33.621-2.66.66-10 1.328-10 5.324 0 2.664 2 3.996 11.68 3.996 63.08 0 80.44-1.332 94.46-1.332 6.67 0 37.39 1.332 47.73 1.332 2.68 0 3.35-3.328 3.35-7.324 0-36.945-4.68-39.613-6.68-39.613-8.02 0-2.68 15.98-8.02 23.636-8.67 11.317-43.38 9.317-56.74 9.317-32.04 0-31.37 1.336-31.37-20.969z"/><path d="m5431.02 512.84c0-11.317-.67-11.317 12.68-11.317h36.05c34.72 0 25.7 26.625 33.71 26.625 2.68 0 3.67-3.66 3.67-6.324 0-11.652-.66-22.969-.66-33.617 0-8.656.66-17.309.66-26.301 0-2.992-1.33-4.32-3.67-4.32-10.35 0 1.01 29.285-27.03 29.285h-49.41c-7.01 0-6-5.656-6-10.648v-61.243c0-19.64-2.67-27.628 25.36-27.628 77.11 0 88.46 34.281 92.8 34.281 2.34 0 2.67-3.328 2.67-3.996 0-11.985-8.68-23.633-16.69-32.285-10.68-11.985-18.03-11.317-32.71-11.317-25.37 0-50.74 2-76.11 1.328-13.35-.332-27.37-1.328-40.72-1.328-3.01 0-5 .66-5 3.328.66 3.996 3.99 3.325 14.68 8.649 8.67 3.996 9.34 13.324 9.34 28.968v151.782c0 14.976 0 30.957-18.02 33.621-2.67.66-10.01 1.328-10.01 5.324 0 2.664 2 3.996 11.68 3.996 63.09 0 80.44-1.332 94.46-1.332 6.68 0 37.39 1.332 47.73 1.332 2.68 0 3.35-3.328 3.35-7.324 0-36.945-4.68-39.613-6.68-39.613-8.01 0-2.67 15.98-8.01 23.636-8.68 11.317-43.39 9.317-56.75 9.317-32.04 0-31.37 1.336-31.37-20.969z"/><path d="m581.973 576.469c0 2.34 1.336 15.047-3.348 15.383h-54.504c-20.73 0-21.398-5.02-27.418-23.411-1.004-3.339-1.34-7.691-5.683-7.691-2.008 0-3.344 2.344-3.344 4.012l3.676 32.437c.339 4.012 0 13.043 6.019 13.043 26.082 0 51.828-1.34 94.965-1.34 60.523 0 91.289 1.34 97.977 1.34 7.691 0 9.363-2.008 9.695-9.699l1.672-26.75c.336-3.344.668-7.355-3.676-7.355-12.375 0 5.684 25.414-28.426 25.414h-47.812c-15.047 0-13.379 1.336-13.379-16.387v-170.535c0-28.09 27.086-17.059 27.086-27.422 0-1.004.336-4.016-3.008-4.016-8.027 0-17.391 1.34-27.086 1.34-37.453 0-43.809-1.34-45.813-1.34-3.011 0-4.011 1.008-4.011 4.352 0 8.019 26.418 4.679 26.418 24.746z"/><path d="m738.469 581.484c-.332 24.407-29.09 17.723-29.09 25.079 0 3.007 2.68 3.679 5.351 3.679 12.375 0 24.411-1.34 36.79-1.34 10.363 0 20.73 1.34 31.093 1.34 5.688 0 6.352-2.008 6.352-3.344 0-6.687-24.074-.335-24.074-25.414v-72.226c0-4.684 0-6.024 5.019-6.024h122.379c3.348 0 2.68 8.364 2.68 9.7v68.55c0 23.075-25.086 17.387-25.086 25.079 0 2.007.672 3.679 5.687 3.679 11.032 0 28.426-1.34 34.778-1.34 12.375 0 17.386 1.34 24.078 1.34 8.691 0 9.359-3.344 9.359-5.351 0-6.02-22.402-.332-22.402-23.407v-177.226c0-24.406 30.43-18.395 30.43-26.75 0-1.004-1.34-4.016-3.68-4.016-9.028 0-19.395 1.34-31.43 1.34-21.398 0-30.769-1.34-37.121-1.34-3.012 0-8.023-1-8.023 4.352 0 8.019 23.41 3.34 23.41 24.41v80.254c0 5.347 1.336 8.355-2.68 8.355h-123.387c-4.011 0-4.011-2.004-4.011-5.683v-83.262c0-22.738 31.769-15.383 31.769-25.746 0-1.672-2.344-2.68-5.351-2.68-4.348 0-28.758 1.34-46.485 1.34-23.738 0-27.418-1.34-28.758-1.34-2.671 0-3.675 1.672-3.675 5.02 0 9.703 26.078-1.34 26.078 31.765z"/><path d="m1015.36 512.934c0-11.368-.67-11.368 12.71-11.368h36.11c34.77 0 25.75 26.75 33.77 26.75 2.68 0 3.68-3.679 3.68-6.355 0-11.703-.67-23.074-.67-33.773 0-8.692.67-17.383.67-26.415 0-3.007-1.34-4.347-3.68-4.347-10.36 0 1 29.429-27.08 29.429h-49.49c-7.02 0-6.02-5.687-6.02-10.703v-61.523c0-19.731-2.67-27.758 25.41-27.758 77.24 0 88.61 34.445 92.96 34.445 2.34 0 2.67-3.347 2.67-4.011 0-12.039-8.69-23.746-16.71-32.442-10.7-12.039-18.06-11.371-32.77-11.371-25.42 0-50.83 2.012-76.24 1.34-13.379-.332-27.422-1.34-40.793-1.34-3.012 0-5.02.672-5.02 3.348.668 4.012 4.012 3.344 14.711 8.691 8.695 4.016 9.363 13.383 9.363 29.098v152.48c0 15.043 0 31.094-18.054 33.77-2.676.668-10.032 1.34-10.032 5.351 0 2.672 2.004 4.012 11.704 4.012 63.201 0 80.581-1.34 94.631-1.34 6.69 0 37.45 1.34 47.81 1.34 2.68 0 3.35-3.344 3.35-7.359 0-37.113-4.68-39.789-6.69-39.789-8.02 0-2.67 16.047-8.02 23.738-8.7 11.371-43.47 9.367-56.85 9.367-32.1 0-31.43 1.332-31.43-21.07z"/><path d="m1269.44 462.777c0-53.5 34.77-77.914 79.92-77.914 62.86 0 77.24 41.465 77.24 80.922v108.344c0 34.105-31.1 20.062-31.1 32.769 0 1.672 2.34 3.344 3.34 3.344 13.05 0 26.09-1.34 39.13-1.34 6.35 0 12.37 1.34 18.39 1.34 1.67 0 4.35-1.672 4.35-3.679 0-9.364-19.74-2.004-19.74-32.77v-103.66c0-16.387 4.02-98.981-93.29-98.981-87.94 0-104.66 49.161-104.66 100.653v112.687c0 19.731-27.08 11.707-27.08 22.406 0 2.34 5.68 3.344 7.36 3.344 8.69 0 17.05-1.34 26.08-1.34 10.7 0 21.4 1.34 31.76 1.34 1.67 0 10.7.668 10.7-3.344 0-9.367-22.4 0-22.4-24.078z"/><path d="m1513.22 544.367c0 69.551-40.46 50.156-40.46 62.531 0 2.004 3.34 3.344 5.01 3.344 5.35 0 10.37-1.34 15.72-1.34 5.01 0 10.37 1.34 15.38 1.34 3.68 0 6.69-5.351 8.69-7.691l159.51-177.559c2-2.34 3.34-3.676 4.01-3.676s1.01 1 1.01 3.676v139.77c0 43.808-37.12 31.101-37.12 42.136 0 2.34 1.67 3.344 3.68 3.344 10.03 0 19.72-1.34 30.42-1.34 11.38 0 25.75 1.34 33.78 1.34 2 0 3.34-1.004 3.34-3.012 0-8.691-19.72-2.671-19.72-27.082v-193.613c0-9.695-.34-14.379-3.02-14.379-2.34 0-5.68 1.672-12.7 9.364l-143.79 161.843c-.67.668-4.68 6.356-7.02 6.356-1.34 0-2.34-1-2.34-7.692v-136.761c0-30.102 29.42-18.395 29.42-27.422 0-1.672-.33-4.352-3.68-4.352-8.02 0-17.38 1.34-33.77 1.34-11.7 0-29.09-1.34-31.43-1.34-4.01 0-4.35 2.012-4.35 3.68 0 11.707 29.43-3.008 29.43 43.808z"/><path d="m1759.34 581.484c-.33 24.407-27.08 17.723-27.08 25.079 0 3.007.67 3.679 3.34 3.679 12.38 0 24.42-1.34 36.78-1.34 10.37 0 20.74 1.34 31.1 1.34 5.35 0 6.36-.672 6.36-3.344 0-8.027-24.08-.335-24.08-25.414v-179.566c0-22.738 29.76-15.047 29.76-25.078 0-2.34-1-3.348-6.69-3.348-7.69 0-22.07 1.34-36.45 1.34-20.39 0-27.41-1.34-32.1-1.34-6.02 0-7.02 1.672-7.02 5.02 0 9.703 26.08-1.34 26.08 31.765z"/><path d="m1847.96 584.492c-8.36 20.067-25.75 13.711-25.75 21.067 0 3.011 1.67 4.683 4.68 4.683 10.37 0 20.73-1.34 30.77-1.34 9.03 0 21.74 1.34 26.42 1.34 2 0 4.68-1.34 4.68-3.344.33-4.679-13.71-5.019-13.71-17.054 0-4.684 1.67-10.031 3.01-13.043l58.52-137.766c7.35-17.719 9.69-25.41 13.37-25.41 3.34 0 4.35 5.352 6.02 9.359l58.18 143.454c2.01 5.015 6.02 15.714 4.68 22.734 0 15.387-21.4 9.031-21.4 16.719 0 3.347 1.67 4.351 5.01 4.351 7.36 0 14.72-1.34 22.08-1.34 16.04 0 21.06 1.34 25.74 1.34 3.68 0 5.68-1.34 5.68-4.351 0-7.352-9.36 1.007-18.72-21.399l-83.26-196.953c-3.68-8.359-6.02-19.394-11.03-19.394-5.35 0-9.37 14.046-12.37 21.07z"/><path d="m2118.82 512.934c0-11.368-.67-11.368 12.71-11.368h36.11c34.78 0 25.75 26.75 33.78 26.75 2.67 0 3.67-3.679 3.67-6.355 0-11.703-.66-23.074-.66-33.773 0-8.692.66-17.383.66-26.415 0-3.007-1.33-4.347-3.67-4.347-10.37 0 1 29.429-27.09 29.429h-49.5c-7.02 0-6.01-5.687-6.01-10.703v-61.523c0-19.731-2.68-27.758 25.41-27.758 77.25 0 88.62 34.445 92.96 34.445 2.34 0 2.68-3.347 2.68-4.011 0-12.039-8.69-23.746-16.72-32.442-10.7-12.039-18.06-11.371-32.77-11.371-25.41 0-50.83 2.012-76.25 1.34-13.37-.332-27.41-1.34-40.79-1.34-3.01 0-5.01.672-5.01 3.348.66 4.012 4.01 3.344 14.71 8.691 8.69 4.016 9.36 13.383 9.36 29.098v152.48c0 15.043 0 31.094-18.05 33.77-2.68.668-10.04 1.34-10.04 5.351 0 2.672 2.01 4.012 11.71 4.012 63.19 0 80.59-1.34 94.63-1.34 6.69 0 37.45 1.34 47.82 1.34 2.67 0 3.34-3.344 3.34-7.359 0-37.113-4.68-39.789-6.68-39.789-8.03 0-2.68 16.047-8.03 23.738-8.69 11.371-43.47 9.367-56.84 9.367-32.11 0-31.44 1.332-31.44-21.07z"/><path d="m2304.75 501.898c0-6.351 20.73-4.679 36.45-4.679 14.37 0 46.47 6.015 46.47 47.484 0 40.793-31.09 54.504-63.86 54.504-12.04 0-19.06.668-19.06-12.375zm121.72-91.953c24.07-36.785 40.46-24.414 40.46-32.437 0-4.016-18.73-4.016-21.73-4.016-24.42 0-37.46 17.063-50.17 36.121l-37.11 58.516c-12.04 18.726-7.03 17.719-44.47 17.719-10.7 0-8.7-6.02-8.7-9.364v-70.55c0-28.762 34.78-18.395 34.78-29.762 0-3.348-3.01-2.68-5.69-2.68-3.01 0-10.7 1.34-38.45 1.34-12.71 0-25.42-1.34-38.12-1.34-2 0-3.34 1.672-3.34 3.68 0 8.359 24.4 3.68 24.4 29.094v170.203c0 32.101-28.75 18.39-28.75 29.761 0 2.004 2.67 4.012 6.69 4.012 6.02 0 4.34-1.34 21.4-1.34 19.39 0 38.45 1.34 55.84 1.34 5.35 0 79.24 6.688 79.24-57.851 0-26.082-18.72-48.485-42.12-57.848z"/><path d="m2468.27 432.684c-1.34 6.683.34 10.363 3.68 10.363 4.68 0 4.68-4.012 6.36-11.031 4-15.383 24.07-50.161 70.22-50.161 31.76 0 62.86 17.723 62.86 52.833 0 64.539-135.76 28.425-135.76 115.699 0 42.465 35.78 62.863 74.23 62.863 40.46 0 51.49-12.039 56.17-12.039 3.02 0 3.68 3.68 7.03 3.68 2.01 0 3.67-1.004 4.01-4.68l5.02-45.477c.33-2.675-.34-5.015-3.68-5.015-3.68 0-6.02 7.019-7.02 10.031-10.04 28.758-34.44 43.469-63.87 43.469-26.41 0-54.51-12.707-54.51-43.469 0-62.867 135.76-26.086 135.76-118.371 0-28.09-19.72-70.227-95.62-70.227-24.75 0-55.18 12.371-56.52 18.395z"/><path d="m2671.92 581.484c-.33 24.407-27.09 17.723-27.09 25.079 0 3.007.68 3.679 3.35 3.679 12.37 0 24.41-1.34 36.78-1.34 10.37 0 20.73 1.34 31.1 1.34 5.35 0 6.35-.672 6.35-3.344 0-8.027-24.08-.335-24.08-25.414v-179.566c0-22.738 29.76-15.047 29.76-25.078 0-2.34-1-3.348-6.68-3.348-7.7 0-22.07 1.34-36.45 1.34-20.39 0-27.41-1.34-32.1-1.34-6.02 0-7.02 1.672-7.02 5.02 0 9.703 26.08-1.34 26.08 31.765z"/><path d="m2836.45 576.469c0 2.34 1.34 15.047-3.35 15.383h-54.5c-20.73 0-21.4-5.02-27.42-23.411-1.01-3.339-1.34-7.691-5.69-7.691-2 0-3.34 2.344-3.34 4.012l3.68 32.437c.34 4.012 0 13.043 6.02 13.043 26.08 0 51.82-1.34 94.96-1.34 60.52 0 91.28 1.34 97.98 1.34 7.68 0 9.36-2.008 9.69-9.699l1.67-26.75c.34-3.344.67-7.355-3.68-7.355-12.37 0 5.69 25.414-28.42 25.414h-47.82c-15.04 0-13.37 1.336-13.37-16.387v-170.535c0-28.09 27.09-17.059 27.09-27.422 0-1.004.33-4.016-3.02-4.016-8.02 0-17.38 1.34-27.08 1.34-37.45 0-43.8-1.34-45.8-1.34-3.02 0-4.02 1.008-4.02 4.352 0 8.019 26.42 4.679 26.42 24.746z"/><path d="m2991.28 589.172c-8.7 14.379-25.08 10.367-25.08 16.051 0 2.34 2 5.019 4.35 5.019 9.03 0 15.38-1.34 38.11-1.34 11.04 0 20.07 1.34 23.42 1.34 2.34 0 6.35-.336 6.35-3.344 0-5.687-15.72-6.019-15.72-15.718 0-5.348 4.02-10.7 6.02-13.707l40.46-64.539c2.68-4.016 4.68-6.02 6.69-6.02 1.67 0 3.68 2.344 6.35 6.691l34.44 55.844c2.34 3.676 7.03 9.36 7.03 18.391 0 16.383-25.08 9.359-25.08 17.383 0 4.347 3.35 5.019 7.02 5.019 8.03 0 16.39-1.34 24.41-1.34 9.7 0 19.4 1.34 29.09 1.34 2.01 0 3.68-2.344 3.68-4.012 0-3.679-5.69-5.019-8.03-6.355-9.02-5.352-13.37-14.715-18.72-23.074l-46.82-72.895c-5.34-8.359-8.02-10.031-8.02-15.047v-81.921c0-29.094 27.42-19.735 27.42-30.098 0-3.012-3.01-3.348-7.69-3.348-5.01 0-24.41 1.34-36.78 1.34-15.05 0-27.09-1.34-30.09-1.34-3.02 0-5.02.336-5.02 4.016 0 9.363 25.74.668 25.74 24.41v80.922c0 6.355-5.01 13.039-7.68 17.055z"/><path d="m3256.05 502.902c0-61.859 40.46-121.718 106.68-121.718 48.82 0 87.94 39.129 87.94 100.984 0 60.863-41.13 120.051-106.33 120.051-56.19 0-88.29-46.481-88.29-99.317zm-24.4-9.695c0 69.551 54.16 120.043 122.72 120.043 68.21 0 120.71-49.152 120.71-118.371 0-75.234-51.83-123.727-126.39-123.727-72.57 0-117.04 51.5-117.04 122.055"/><path d="m3536.29 512.934c0-11.368-.67-11.368 12.71-11.368h36.11c34.78 0 25.76 26.75 33.78 26.75 2.68 0 3.68-3.679 3.68-6.355 0-11.703-.67-23.074-.67-33.773 0-8.692.67-17.383.67-26.415 0-3.007-1.34-4.347-3.68-4.347-10.37 0 1 29.429-27.09 29.429h-49.49c-7.69 0-6.02-5.687-6.02-10.703v-67.547c0-31.765 31.43-23.074 31.43-30.761 0-4.684-5.02-4.684-7.36-4.684s-5.68 1.672-36.78 1.672c-17.05 0-28.75-1.672-34.77-1.672-2.67 0-3.35 2.344-3.35 3.012 0 9.359 24.42-.336 24.42 36.781v154.156c0 15.043 0 31.094-18.06 33.77-2.68.668-10.04 1.34-10.04 5.351 0 2.672 2.02 4.012 11.71 4.012 63.19 0 80.59-1.34 94.63-1.34 6.68 0 37.45 1.34 47.82 1.34 2.67 0 3.35-3.344 3.35-7.359 0-37.113-4.68-39.789-6.69-39.789-8.03 0-2.68 16.047-8.03 23.738-8.69 11.371-43.47 9.367-56.85 9.367-32.1 0-31.43 1.332-31.43-21.07z"/></g><g fill="#f47216"><path d="m318.688 527.629v-159.484h-68.356v245.097h184.273c-3.832-3.808-2.433-9.508-7.648-16.98-6.762-9.024-13.402-4.813-18.914-11.438-5.055-6.14-2.867-12.562-7.633-18.918-6.773-9.051-17.164-5.722-24.633-15.261-6.07-7.641-5.73-15.375-11.461-23.016z"/><path d="m153.918 613.25c-3.832-3.824-2.77-9.898-7.957-17.348-6.766-9.015-13.418-4.812-18.891-11.449-5.078-6.113-2.863-12.527-7.632-18.879-6.774-9.039-16.981-5.73-24.6099-15.258-6.0664-7.632-5.7187-15.074-11.4375-22.703h89.2384v-79.718h-73.9806c-6.1289 0-11.0664-.672-15.2578 3.808-3.2109 3.434-3.8203 6.742-3.8086 11.442l-.0078 150.105h-79.5351375l-.0117187-172.98c-.0273438-20.161 13.1718562-39.864 20.7890562-47.321 9.543-9.523 29.0977-24.781 51.3125-24.781h104.1521l62.739 72.102.019 172.98z"/></g></g></svg>