<svg height="147.14667" viewBox="0 0 244.39999 147.14667" width="244.39999" xmlns="http://www.w3.org/2000/svg"><g transform="matrix(.13333333 0 0 -.13333333 0 147.14667)"><g fill="#231f20"><path d="m692.887 9.05859c-3.934.90235-8.004 1.83201-8.485 9.87111l-2.535 89.7893c-.429 12.972 4.653 14.179 8.742 15.148 2.235.531 5.024 1.192 5.024 4.352 0 2.023-1.488 3.672-3.317 3.672-1.421 0-2.546-.161-3.734-.328-1.371-.196-2.789-.395-4.953-.395-.356 0-1.508.117-2.856.258-2.117.219-4.515.465-5.785.469-2.605 0-4.047-3.071-5.207-5.543-.246-.52-.472-1.008-.715-1.446l-43.086-86.5349-.292-.6094c-1.625-3.3633-3.301-6.8125-4.18-8.0703-.477.5977-1.223 2.0274-1.945 3.418l-43.54 92.8356c-.179.403-.339.856-.5 1.313-.648 1.844-1.632 4.633-4.668 4.633-1.71 0-3.41-.188-5.05-.371-3.383-.387-6.543-.344-9.672.007-1.633.176-3.317.364-5.008.364-3.98 0-4.578-2.188-4.578-3.493 0-2.761 2.23-3.546 4.199-4.238 4.543-1.594 12.992-4.566 12.992-34.3202 0-13.7695-1.129-27.6484-2.562-45.2304-.559-6.8594-1.164-14.2891-1.774-22.5508-.73-10.8672-4.859-12.0273-8.175-12.95704-2.086-.58203-4.68-1.3125-4.68-4.70312 0-2.22656 1.301-3.667971 3.312-3.667971 1.246 0 2.465.097656 4 .230469 2.485.210942 5.883.488282 11.746.488282 3.227 0 7.442-.25781 10.829-.468751 2.265-.140625 4.148-.25 5.101-.25 1.957 0 6.031 0 6.031 3.488281 0 3.38281-3.035 4.19141-5.714 4.91016-4.957 1.33989-11.133 2.99219-10.582 17.67189l2.168 63.4297c.042.4414.105.7812.175 1.0312.129-.1719.27-.4219.414-.7929l38.532-80.67974.25-.6289c.808-2.07032 2.164-5.53907 4.75-5.53907 2.023 0 3.515 2.5 6.101 8.10941.348.75.629 1.3711.856 1.789l37.48 76.4024c1.512 3.1797 2.598 4.1562 3.078 4.4492.297-.6211.758-2.25.762-5.4727l1.809-70.207c.097-7.1719-3.243-8.5-6.469-9.80077-2.227-.89063-4.758-1.91016-4.758-5.03125 0-1.4375.918-3.128911 3.5-3.128911 2.168 0 4.629.160156 7.219.328121 7.004.47266 14.726.28125 20.105-.070309 2.274-.136718 4.192-.257812 5.617-.257812 2.043 0 5.848 0 5.848 3.308591 0 3.69141-3.23 4.42969-5.82 5.01953"/><path d="m793.883 62.1016c-.016-.0118-.391-.2618-2.055-.2618h-35.84c-.836 0-1.215.1016-1.324.1016-.012 0-.019 0-.019 0 0 .1172.054.418.351 1.0195l20.438 43.9491c.043.082.082.153.117.223.015-.039.031-.074.051-.113l17.722-43.5981c.406-1.0508.481-1.4024.559-1.3203zm48.117-53.96097c-3.336.57812-7.484 1.28906-10.18 5.41017-2.972 4.5273-4.929 9.8086-6.824 14.9101-.687 1.8594-1.371 3.6993-2.086 5.4688l-37.637 93.1833c-.085.231-.187.555-.308.942-.856 2.679-2.145 6.734-4.899 6.734-2.73 0-3.406-1.48-8.664-12.98-1.586-3.473-3.617-7.914-6.273-13.59l-43.27-92.3284c-2.566-5.6289-6.32-6.82029-9.062-7.69919-2.004-.64063-4.285-1.36328-4.285-3.97266 0-2.04687 1.285-3.488281 3.129-3.488281 2.386 0 4.843.179687 7.218.359371 4.844.35938 9.899.35938 14.758 0 2.52-.179684 5.125-.359371 7.711-.359371l1.754-.039063c3.074 0 4.637 1.429684 4.637 4.257814 0 3.03906-2.981 3.57031-5.375 4-3.676.65234-7.477 1.33208-7.477 7.94138 0 2.1211.668 4.6289 1.133 5.7188l11.574 25.3125c1.336 2.8086 3.477 2.9492 7.149 2.9492h39.824c3.996 0 4.777-1.8125 6.562-5.9219l5.786-14.8203c.421-1.1406.945-2.4492 1.503-3.8594 1.793-4.4687 4.012-10.039 4.012-12.8086 0-2.5703-2.012-3.4414-5.332-4.55074-2.59-.87891-5.527-1.8711-5.527-4.8711 0-2.19922 1.847-3.308591 5.484-3.308591 2.5 0 5.012.179687 7.445.371091 6.032.44922 12.29.28907 18.278-.01172 3.668-.179684 7.457-.359371 11.203-.359371 1.105 0 4.043 0 4.043 3.128911 0 3.25-3.191 3.80078-6.004 4.28125"/><path d="m929.129 94.9102c0-22.461-18.106-24.1993-23.656-24.1993-1.469 0-3.016-.0312-4.575-.0625-1.554-.0195-3.117-.0468-4.625-.0468h-.003c-7.707 0-8.868.8984-9.028 1.1367v45.9807c0 4.965 1.703 5.199 7.082 5.199l1.735-.004c9.941 0 33.07-2.726 33.07-28.0038zm41.906-86.98051c-3.43.75-9.824 2.12891-18.152 14.85941l-29.238 44.289c13.269 6.0235 22.066 18.6719 22.066 31.9922 0 29.7187-27.988 32.9297-40.02 32.9297-1.589 0-2.851-.055-3.652-.086l-.73-.023c-4.606 0-9.34-.172-14.352-.352-5.168-.184-10.516-.371-15.883-.371-5.668 0-7.422.273-8.699.48-.867.133-1.559.243-2.883.243-2.871 0-5.121-1.614-5.121-3.672 0-3.543 3.387-4.18 6.109-4.688 4.434-.832 9.458-1.773 9.458-11.426v-92.1362c0-7.7305-4.407-9.5079-8.29-11.08989-2.421-.98047-4.925-1.98828-4.925-4.66016 0-1.95703 1.457-3.488281 3.312-3.488281 3.477 0 6.996.179687 10.399.359371 3.363.17969 6.839.35938 10.238.35938 11.242 0 16.406-.41016 18.894-.609376.895-.070313 1.493-.109375 1.918-.109375l1.239-.03125c2.91 0 3.347 1.871091 3.347 2.980471 0 3.58203-3.777 4.42187-7.429 5.23047-5.606 1.23824-11.399 2.53124-11.399 10.87894v38.1914c0 .2695-.019.5586-.039.8711-.066.9375-.09 1.6289.262 2 .238.2578.953.6992 2.984.6992h5.293c12.008 0 12.008 0 15.715-6.0313.523-.8398 1.109-1.8007 1.793-2.8593l20.113-31.711c7.106-10.6601 14.621-20.218731 28.403-20.218731 11.66 0 13.269 1.757811 13.269 3.667971 0 2.67187-2.125 3.13281-4 3.53125"/><path d="m1082.53 125.203c-.23 5.063-1.87 6.688-6.75 6.688-.91 0-2.64-.047-5.24-.114-7.54-.199-23.23-.609-47.8-.609-13.12 0-23.228.227-32.146.426-6.922.16-13.074.297-19.262.297-4.289 0-4.566-5.129-4.703-7.59l-2.051-18.531c0-1.735 1.363-3.68 3.313-3.68 3.16 0 3.875 2.781 4.3 4.445l.625 2.047c2.848 8.766 3.364 10.348 12.997 10.348l29.287.047c.24-.207.79-1.219.56-6.012-.02-.375-.04-.672-.04-.86v-94.1245c0-5.5899-4.52-7.1914-8.52-8.60941-2.97-1.05078-5.77-2.04296-5.77-4.79296 0-2.58985 1.2-3.847661 3.67-3.847661.23 0 .56.019531 1.09.070312 2 .179688 7.32.648439 23.71.648439 2.69 0 5.34-.1875 7.91-.37891 2.38-.171872 4.65-.339841 6.75-.339841 1.18 0 1.89.468751 2.28.871091.89.91016.86 2.16016.85 2.79688 0 3.33203-3.12 4.03125-5.88 4.64062-4.31.96094-8.78 1.94924-8.78 10.21094v92.313l-.02 2.617c-.02 2.054-.04 4.179.27 4.5.26.265 2.12.265 2.72.265l28.65-.015c10.16 0 10.56-4.082 10.95-8.032.24-2.414.56-5.722 4.44-5.722 1.13 0 2.02.355 2.66 1.058 1.15 1.27.96 3.18.83 4.52z"/><path d="m1136.88 9.07031c-5.45 1.35939-9.31 2.76949-9.31 8.55079v97.2029c0 7.52 4.27 8.672 8.04 9.688 2.34.633 4.99 1.347 4.99 4.066 0 3.313-2.86 3.313-4.94 3.313-2.86 0-5.74-.188-8.52-.364-6.01-.402-12.27-.332-18.19 0-3.27.176-6.65.364-10.04.364-2.93 0-3.31-1.864-3.31-3.493 0-2.585 2.7-3.261 5.32-3.914 4.33-1.086 9.24-2.312 9.34-9.66v-92.6834c0-10.4687-4.99-11.7812-9-12.83982-2.4-.64062-5.12-1.35156-5.12-4.35156 0-3.71875 2.68-4.218751 5.31-4.218751.85 0 1.84.070312 3.18.179687 2.7.218754 6.79.539064 14.19.539064 4.46 0 8.84-.23047 12.71-.4375 2.81-.152345 5.24-.281251 7.02-.281251 1.79 0 5.13 0 5.13 3.308591 0 3.33985-3.46 4.19922-6.8 5.03125"/><path d="m1283.17 131.891c-2.01 0-4.74-.153-7.71-.317-3.4-.191-7.27-.406-10.58-.406-2.89 0-5.69.184-8.4.363-2.63.18-5.35.36-8.07.36-2.09 0-3.49-1.332-3.49-3.313 0-3.168 3.24-3.976 6.37-4.758 5.79-1.449 13.72-3.433 13.72-18.05v-74.77c-.03.0313-.06.0703-.09.1094l-86.32 96.0896c-.21.246-.44.555-.69.891-1.2 1.605-2.83 3.801-5.16 3.801-1.45 0-2.93-.188-4.35-.375-2.9-.375-5.35-.352-8.04 0-1.43.187-2.9.375-4.45.375-1.51 0-4.21-1.106-4.21-3.313 0-3.164 2.94-3.887 5.78-4.586 6.03-1.48 16.12-3.961 16.12-29.2615v-66.7891c0-15.7812-6.2-17.6133-10.72-18.95312-2.44-.70703-5.21-1.52734-5.21-4.76953 0-2.25 1.37-3.488281 3.86-3.488281.4 0 1.6.070312 3.26.167969 3.53.203122 9.42.550782 13.75.550782 5.17 0 9.09-.25 12.24-.44922 2.29-.148437 4.22-.269531 6.04-.269531.82 0 3.5.281251 3.5 3.847661 0 3.01171-3.1 3.52343-5.84 3.96093-4.73.76953-10.09 1.64064-10.09 10.89064v74.0312c0 1.1797.06 1.8985.13 2.3399.38-.3399.97-.961 1.88-2.0899.23-.289.4-.5.43-.5195l77.85-87.62109c3.61-3.94922 5.92-5.57031 7.99-5.57031 3.13 0 3.13 4.10156 3.13 9.28906v104.80894c0 7.293 3.41 8.769 6.41 10.07 2.01.863 4.27 1.848 4.27 4.594 0 1.875-1.33 3.129-3.31 3.129"/><path d="m1832.99 187.281h-1832.9704687v9.375h1832.9704687z"/><path d="m94.5664 453.945c0 2.34 1.3438 15.055-3.3516 15.383h-54.664c-20.793 0-21.461-5.015-27.50002-23.41-1.0039-3.344-1.33984-7.691-5.69922-7.691-2.01172 0-3.35156 2.343-3.35156 4.011l3.6875 32.446c.33203 4.011 0 13.039 6.03906 13.039 26.15624 0 51.97654-1.336 95.23844-1.336 60.695 0 91.547 1.336 98.258 1.336 7.715 0 9.39-2.008 9.726-9.7l1.676-26.75c.336-3.347.664-7.355-3.687-7.355-12.411 0 5.699 25.41-28.512 25.41h-47.949c-15.09 0-13.414 1.344-13.414-16.383v-170.547c0-28.093 27.164-17.062 27.164-27.421 0-1.008.336-4.016-3.024-4.016-8.051 0-17.437 1.336-27.164 1.336-37.5546 0-43.9257-1.336-45.9374-1.336-3.0235 0-4.0274 1-4.0274 4.344 0 8.023 26.4922 4.683 26.4922 24.75z"/><path d="m279.227 390.41c0-11.371-.676-11.371 12.738-11.371h36.215c34.883 0 25.824 26.754 33.871 26.754 2.687 0 3.687-3.68 3.687-6.359 0-11.704-.664-23.071-.664-33.77 0-8.699.664-17.387.664-26.422 0-3.008-1.336-4.34-3.687-4.34-10.399 0 1.012 29.418-27.16 29.418h-49.637c-7.039 0-6.027-5.683-6.027-10.695v-61.527c0-19.735-2.688-27.762 25.476-27.762 77.473 0 88.871 34.441 93.235 34.441 2.347 0 2.675-3.339 2.675-4.011 0-12.039-8.715-23.746-16.761-32.434-10.735-12.043-18.114-11.371-32.864-11.371-25.488 0-50.972 2.008-76.461 1.336-13.414-.336-27.5-1.336-40.914-1.336-3.023 0-5.027.664-5.027 3.344.668 4.011 4.019 3.34 14.754 8.687 8.715 4.016 9.387 13.387 9.387 29.106v152.484c0 15.047 0 31.102-18.11 33.777-2.679.664-10.054 1.336-10.054 5.352 0 2.676 2.011 4.012 11.738 4.012 63.375 0 80.812-1.336 94.898-1.336 6.703 0 37.563 1.336 47.953 1.336 2.688 0 3.36-3.34 3.36-7.356 0-37.121-4.699-39.797-6.711-39.797-8.047 0-2.684 16.051-8.047 23.743-8.719 11.371-43.594 9.363-57.012 9.363-32.191 0-31.515 1.344-31.515-21.067z"/><path d="m447.059 421.609c0 69.25-40.399 49.942-40.399 62.262 0 2 3.336 3.328 5.004 3.328 5.352 0 10.356-1.328 15.695-1.328 5.012 0 10.352 1.328 15.356 1.328 3.68 0 6.683-5.324 8.683-7.656l159.258-176.793c2.004-2.332 3.336-3.664 4.008-3.664s1 1.004 1 3.664v139.164c0 43.621-37.055 30.965-37.055 41.957 0 2.332 1.668 3.328 3.672 3.328 10.012 0 19.692-1.328 30.379-1.328 11.352 0 25.711 1.328 33.727 1.328 2.004 0 3.336-.996 3.336-2.992 0-8.66-19.7-2.668-19.7-26.977v-192.765c0-9.656-.335-14.32-3.003-14.32-2.336 0-5.672 1.671-12.692 9.328l-143.562 161.136c-.672.668-4.68 6.329-7.008 6.329-1.344 0-2.34-.997-2.34-7.661v-136.172c0-29.96 29.383-18.308 29.383-27.304 0-1.66-.336-4.321-3.672-4.321-8.016 0-17.363 1.329-33.727 1.329-11.683 0-29.047-1.329-31.382-1.329-4.008 0-4.344 1.997-4.344 3.661 0 11.656 29.383-3 29.383 43.613z"/><path d="m703.742 421.609c0 69.25-40.398 49.942-40.398 62.262 0 2 3.336 3.328 5.004 3.328 5.351 0 10.355-1.328 15.695-1.328 5.012 0 10.352 1.328 15.355 1.328 3.68 0 6.684-5.324 8.688-7.656l159.258-176.793c2-2.332 3.336-3.664 4.004-3.664.672 0 1 1.004 1 3.664v139.164c0 43.621-37.055 30.965-37.055 41.957 0 2.332 1.668 3.328 3.672 3.328 10.012 0 19.691-1.328 30.379-1.328 11.351 0 25.711 1.328 33.726 1.328 2.004 0 3.336-.996 3.336-2.992 0-8.66-19.699-2.668-19.699-26.977v-192.765c0-9.656-.336-14.32-3.004-14.32-2.336 0-5.672 1.671-12.691 9.328l-143.563 161.136c-.672.668-4.679 6.329-7.008 6.329-1.343 0-2.339-.997-2.339-7.661v-136.172c0-29.96 29.382-18.308 29.382-27.304 0-1.66-.336-4.321-3.671-4.321-8.016 0-17.364 1.329-33.723 1.329-11.688 0-29.047-1.329-31.387-1.329-4.008 0-4.344 1.997-4.344 3.661 0 11.656 29.383-3 29.383 43.613z"/><path d="m984.031 390.313c0-11.317-.668-11.317 12.684-11.317h36.045c34.72 0 25.7 26.625 33.72 26.625 2.67 0 3.67-3.66 3.67-6.324 0-11.652-.66-22.969-.66-33.613 0-8.661.66-17.309.66-26.301 0-2.992-1.33-4.324-3.67-4.324-10.35 0 1 29.285-27.04 29.285h-49.405c-7.008 0-6.004-5.656-6.004-10.649v-61.242c0-19.64-2.672-27.629 25.359-27.629 77.12 0 88.47 34.281 92.81 34.281 2.33 0 2.66-3.324 2.66-3.996 0-11.984-8.67-23.632-16.68-32.285-10.69-11.984-18.03-11.312-32.72-11.312-25.36 0-50.73 1.996-76.105 1.328-13.347-.336-27.371-1.328-40.722-1.328-3.008 0-5.012.66-5.012 3.324.672 3.996 4.008 3.328 14.692 8.648 8.675 3.996 9.347 13.325 9.347 28.969v151.781c0 14.977 0 30.957-18.027 33.621-2.668.661-10.008 1.329-10.008 5.325 0 2.668 2.004 3.996 11.684 3.996 63.081 0 80.441-1.328 94.461-1.328 6.67 0 37.39 1.328 47.73 1.328 2.67 0 3.34-3.328 3.34-7.321 0-36.949-4.67-39.617-6.68-39.617-8.01 0-2.67 15.981-8.01 23.637-8.67 11.316-43.39 9.316-56.75 9.316-32.037 0-31.369 1.34-31.369-20.968z"/><path d="m1125.48 310.414c-1.33 6.66.34 10.324 3.68 10.324 4.67 0 4.67-3.996 6.34-10.984 4.01-15.313 24.03-49.945 70.11-49.945 31.71 0 62.76 17.648 62.76 52.601 0 64.258-135.54 28.305-135.54 115.195 0 42.278 35.72 62.583 74.11 62.583 40.4 0 51.42-11.977 56.09-11.977 3.01 0 3.67 3.66 7.01 3.66 2.01 0 3.68-1.004 4.01-4.664l5.01-45.273c.33-2.664-.34-4.996-3.68-4.996-3.67 0-6.01 6.988-7.01 9.988-10.01 28.629-34.39 43.281-63.77 43.281-26.37 0-54.41-12.656-54.41-43.281 0-62.59 135.54-25.973 135.54-117.852 0-27.969-19.69-69.914-95.48-69.914-24.71 0-55.08 12.32-56.42 18.309z"/><path d="m1301.25 310.414c-1.34 6.66.33 10.324 3.67 10.324 4.67 0 4.67-3.996 6.34-10.984 4.01-15.313 24.03-49.945 70.11-49.945 31.71 0 62.76 17.648 62.76 52.601 0 64.258-135.54 28.305-135.54 115.195 0 42.278 35.72 62.583 74.11 62.583 40.4 0 51.42-11.977 56.09-11.977 3.01 0 3.67 3.66 7.02 3.66 2 0 3.67-1.004 4-4.664l5.01-45.273c.33-2.664-.34-4.996-3.67-4.996-3.68 0-6.01 6.988-7.02 9.988-10.01 28.629-34.38 43.281-63.76 43.281-26.37 0-54.42-12.656-54.42-43.281 0-62.59 135.54-25.973 135.54-117.852 0-27.969-19.69-69.914-95.47-69.914-24.72 0-55.09 12.32-56.43 18.309z"/><path d="m1531.53 390.313c0-11.317-.67-11.317 12.68-11.317h36.05c34.72 0 25.7 26.625 33.71 26.625 2.68 0 3.67-3.66 3.67-6.324 0-11.652-.66-22.969-.66-33.613 0-8.661.66-17.309.66-26.301 0-2.992-1.33-4.324-3.67-4.324-10.35 0 1.01 29.285-27.03 29.285h-49.41c-7.01 0-6-5.656-6-10.649v-61.242c0-19.64-2.67-27.629 25.36-27.629 77.11 0 88.46 34.281 92.8 34.281 2.34 0 2.67-3.324 2.67-3.996 0-11.984-8.68-23.632-16.69-32.285-10.68-11.984-18.03-11.312-32.71-11.312-25.37 0-50.74 1.996-76.11 1.328-13.35-.336-27.37-1.328-40.72-1.328-3.01 0-5 .66-5 3.324.66 3.996 3.99 3.328 14.68 8.648 8.67 3.996 9.35 13.325 9.35 28.969v151.781c0 14.977 0 30.957-18.03 33.621-2.67.661-10.01 1.329-10.01 5.325 0 2.668 2 3.996 11.68 3.996 63.09 0 80.44-1.328 94.47-1.328 6.67 0 37.38 1.328 47.73 1.328 2.67 0 3.34-3.328 3.34-7.321 0-36.949-4.68-39.617-6.68-39.617-8.01 0-2.67 15.981-8.01 23.637-8.68 11.316-43.39 9.316-56.75 9.316-32.04 0-31.37 1.34-31.37-20.968z"/><path d="m1712.17 390.313c0-11.317-.67-11.317 12.68-11.317h36.05c34.72 0 25.7 26.625 33.72 26.625 2.67 0 3.67-3.66 3.67-6.324 0-11.652-.67-22.969-.67-33.613 0-8.661.67-17.309.67-26.301 0-2.992-1.34-4.324-3.67-4.324-10.35 0 1 29.285-27.04 29.285h-49.41c-7 0-6-5.656-6-10.649v-61.242c0-19.64-2.67-27.629 25.36-27.629 77.12 0 88.46 34.281 92.81 34.281 2.33 0 2.66-3.324 2.66-3.996 0-11.984-8.67-23.632-16.69-32.285-10.68-11.984-18.02-11.312-32.71-11.312-25.37 0-50.74 1.996-76.1 1.328-13.36-.336-27.38-1.328-40.73-1.328-3.01 0-5 .66-5 3.324.66 3.996 4 3.328 14.68 8.648 8.68 3.996 9.35 13.325 9.35 28.969v151.781c0 14.977 0 30.957-18.03 33.621-2.67.661-10.01 1.329-10.01 5.325 0 2.668 2.01 3.996 11.69 3.996 63.08 0 80.44-1.328 94.46-1.328 6.67 0 37.39 1.328 47.73 1.328 2.67 0 3.34-3.328 3.34-7.321 0-36.949-4.67-39.617-6.68-39.617-8.01 0-2.67 15.981-8.01 23.637-8.67 11.316-43.39 9.316-56.75 9.316-32.04 0-31.37 1.34-31.37-20.968z"/><path d="m117.148 669.195c-.214 5.024-1.843 6.641-6.703 6.641-.902 0-2.617-.047-5.191-.113-7.4923-.2-23.0821-.61-47.4845-.61-13.0312 0-23.0703.227-31.9257.426-6.875.156-12.9844.297-19.13286.297-4.25781 0-4.53516-5.094-4.67188-7.543l-2.03515375-18.402c0-1.723 1.35156375-3.653 3.29297375-3.653 3.13281 0 3.84375 2.762 4.26562 4.407l.625 2.039c2.8281 8.707 3.3359 10.277 12.9063 10.277l29.0859.047c.2461-.207.7851-1.211.5586-5.977-.0195-.371-.0352-.664-.0352-.847v-93.489c0-5.55-4.4961-7.144-8.4648-8.547-2.9492-1.043-5.7383-2.031-5.7383-4.757 0-2.578 1.1953-3.828 3.6484-3.828.2344 0 .5586.023 1.086.07 1.9883.18 7.2656.648 23.5469.648 2.6757 0 5.3085-.191 7.8554-.383 2.3633-.171 4.6172-.335 6.7071-.335 1.1718 0 1.875.468 2.2617.863.8867.91.8593 2.148.8515 2.789 0 3.301-3.1054 3.992-5.8398 4.601-4.293.954-8.7266 1.942-8.7266 10.141v91.688l-.0195 2.597c-.0195 2.043-.043 4.153.2695 4.469.2617.262 2.0977.262 2.7032.262l28.457-.012c10.0902 0 10.4842-4.055 10.8712-7.977.234-2.398.558-5.687 4.41-5.687 1.395 0 2.207.574 2.641 1.055 1.144 1.265.957 3.16.824 4.488z"/><path d="m254.445 553.68c-4.789 1.3-10.218 2.781-10.218 9.914v95.289c0 7.07 4.293 8.238 7.75 9.18 2.011.546 4.296 1.167 4.296 3.402 0 1.992-1.128 4.371-6.527 4.371-1.57 0-2.973-.133-4.594-.289-2.148-.203-4.586-.434-8.351-.434-1.453 0-4.004.133-6.903.285-3.929.204-8.378.438-11.793.438-1.125 0-4.546 0-4.546-3.473 0-2.617 2.621-3.414 5.156-4.183 3.902-1.192 8.324-2.539 8.324-9.297l.012-37.246c.074-2.16-.117-3.008-.25-3.332h-65.504c-.801 0-1.094.066-1.125.027-.082.262-.082 1.031-.082 1.715v38.836c0 7.754 4.637 9.023 8.363 10.047 2.254.613 4.582 1.25 4.582 3.613 0 1.227-.637 3.293-4.91 3.293-2.836 0-5.691-.188-8.453-.363-5.973-.395-12.192-.321-18.07 0-3.247.175-6.606.363-9.973.363-4.051 0-4.367-2.66-4.367-3.473 0-2.582 2.73-3.218 5.617-3.894 4.652-1.082 9.922-2.309 10.019-9.586v-92.051c0-10.398-4.953-11.707-8.933-12.758-2.387-.629-5.086-1.344-5.086-4.32 0-3.649 2.172-4.191 3.469-4.191.183 0 .433.027.832.085 1.211.172 4.422.633 14.629.633 6.343 0 14.308-.32 19.582-.531 2.644-.109 4.629-.187 5.41-.187 3.019 0 4.371 1.472 4.371 2.933 0 3.406-3.672 4.328-7.219 5.223-5.773 1.453-9.863 2.922-9.863 8.617v44.769c0 .579 0 1.372.008 1.485 0 0 .156.078.66.078l66.394-.027c.012-.301-.015-.762-.039-1.153-.035-.539-.074-1.148-.074-1.82v-43.148c0-5.957-3.809-7.309-7.488-8.618-2.504-.89-5.094-1.812-5.094-4.511 0-1.852.867-2.786 1.59-3.239.891-.558 1.926-.632 2.726-.632l1.493.043c1.23 0 2.664.089 4.523.21 3.387.215 8.031.508 15.43.508 3.422 0 6.543-.199 9.562-.394 2.614-.168 5.051-.324 7.336-.324 2.246 0 3.473 2.414 3.473 3.652 0 2.797-2.985 3.605-6.145 4.465"/><path d="m364.949 574.258c-1.133 0-1.875-.867-3.109-2.297-3.824-4.438-13.977-16.219-46.867-16.219-5.946 0-9.262.672-10.754 2.18-1.524 1.543-1.489 4.383-1.438 8.683l.02 35.645-.012.941c-.027 1.18-.055 2.516.391 2.973.281.289.898.348 1.363.348h26.609c8.164 0 9.106-4.852 10.008-9.539.574-2.95 1.219-6.282 4.555-6.282 1.676 0 3.469 1.008 3.469 3.829 0 2.468-.09 4.89-.18 7.289-.09 2.32-.176 4.613-.176 6.914 0 2.793.082 5.679.168 8.629.094 3.113.188 6.296.188 9.527 0 2.363-1.09 4.91-3.469 4.91-2.524 0-3.231-2.465-3.856-4.644-1.179-4.11-2.796-9.739-14.304-9.739h-19.414c-2.434 0-4.735 0-5.09.356-.258.261-.254 1.941-.25 3.426v35.007c0 4.383-.004 7.032 1.015 7.981 1.125 1.051 4.465 1.133 9.442 1.133l4.949-.012c.836 0 1.824.016 2.93.031 1.375.02 2.933.047 4.593.047 4.547 0 18.399 0 21.821-4.469 1.019-1.468 1.164-3.965 1.293-6.164.183-3.226.414-7.242 4.242-7.242 2.641 0 5.09 2.773 5.09 22.887 0 3.613-1.11 5.449-3.293 5.449-3.117 0-9.625-.227-15.363-.422-4.602-.156-8.754-.301-10.344-.301-2.406 0-5 .075-8.52.172-7.668.219-19.25.551-42.359.551-4.102 0-7.789-.281-7.789-3.648 0-3.043 3.746-3.774 5.754-4.165.301-.054.566-.105.918-.187 7.847-1.164 8.433-7.363 8.433-16.684v-81.98c0-8.41-.41-12.559-4.207-14.313-1.957-.976-3.445-1.574-4.57-2.019-2.27-.906-3.773-1.508-4.168-3.988 0-1.5.727-3.289 4.191-3.289 4.364 0 8.899.199 13.282.39 2.925.133 5.836.258 8.687.332 7.777.199 15.684-.07 23.336-.324 5.77-.195 11.738-.398 17.617-.398l2.246-.004c6.575 0 10.887.32 16.469 6.597 6.317 6.84 9.387 12.879 9.387 18.453 0 1.465-.785 3.649-2.934 3.649"/><path d="m558.516 675.836c-1.68 0-3.356-.188-4.973-.363-4.984-.547-10.297-.262-15.355 0-3.469.175-7.051.363-10.594.363-1.301 0-3.293-1.477-3.293-3.293 0-3.789 3.484-4.547 6.562-5.219 4.762-1.035 10.16-2.211 10.16-12.398v-58.25c0-27.879-13.468-42.016-40.039-42.016-25.972 0-41.476 15.102-41.476 40.399v64.539c0 6.812 3.535 7.707 6.953 8.566 2.269.574 5.094 1.285 5.094 4.379 0 2.199-2.008 3.312-5.965 3.312l-1.281-.019c-2.813 0-5.704-.188-8.496-.359-5.188-.325-10.618-.387-15.614 0-2.273.171-4.621.359-6.992.359-.055 0-5.449-.195-5.449-3.293 0-3.613 3.601-4.48 6.781-5.242 4.699-1.129 7.781-2.215 7.781-6.805v-60.582c0-23.875 5.989-55.609 57.766-55.609 16.695 0 29.617 4.484 38.394 13.328 13.458 13.555 13.309 33.746 13.262 40.379l-.004 56.734c0 9.731 3.715 11.539 6.696 12.992 1.832.891 3.91 1.903 3.91 4.625 0 2.09-2.305 3.473-3.828 3.473"/><path d="m699.969 675.836c-1.992 0-4.707-.152-7.653-.316-3.386-.192-7.226-.407-10.507-.407-2.871 0-5.657.188-8.344.364-2.613.175-5.313.359-8.016.359-2.074 0-3.469-1.324-3.469-3.293 0-3.145 3.219-3.949 6.329-4.727 5.75-1.437 13.629-3.406 13.629-17.925v-74.266c-.032.035-.063.074-.094.113l-85.739 95.438c-.207.242-.433.547-.683.883-1.188 1.593-2.813 3.777-5.125 3.777-1.442 0-2.902-.191-4.32-.375-2.879-.371-5.309-.352-7.981 0-1.418.184-2.887.375-4.418.375-1.504 0-4.187-1.102-4.187-3.293 0-3.141 2.922-3.859 5.746-4.555 5.984-1.472 16.008-3.933 16.008-29.062v-66.34c0-15.668-6.157-17.484-10.653-18.816-2.422-.711-5.172-1.524-5.172-4.735 0-2.238 1.364-3.472 3.832-3.472.403 0 1.594.066 3.246.164 3.497.211 9.348.554 13.653.554 5.137 0 9.027-.246 12.156-.453 2.27-.144 4.195-.265 6.004-.265.812 0 3.469.273 3.469 3.828 0 2.992-3.078 3.488-5.797 3.929-4.699.766-10.024 1.629-10.024 10.813v73.535c0 1.168.063 1.887.129 2.316.379-.332.965-.949 1.867-2.066.231-.289.403-.5.434-.523l77.316-87.028c3.583-3.922 5.879-5.523 7.934-5.523 3.113 0 3.113 4.07 3.113 9.222v104.094c0 7.242 3.383 8.711 6.368 10.004 1.988.859 4.238 1.832 4.238 4.563 0 1.859-1.324 3.109-3.289 3.109"/><path d="m763.355 553.852c-5.417 1.351-9.25 2.75-9.25 8.484v96.547c0 7.469 4.247 8.613 7.993 9.621 2.32.629 4.953 1.34 4.953 4.039 0 3.293-2.836 3.293-4.91 3.293-2.836 0-5.696-.188-8.457-.363-5.969-.395-12.18-.321-18.075 0-3.242.175-6.597.363-9.964.363-2.305 0-3.29-1.039-3.29-3.473 0-2.566 2.684-3.238 5.286-3.886 4.3-1.079 9.175-2.293 9.273-9.594v-92.051c0-10.398-4.953-11.707-8.934-12.758-2.386-.629-5.089-1.344-5.089-4.32 0-3.695 2.668-4.191 5.269-4.191.852 0 1.832.074 3.16.183 2.684.211 6.746.535 14.102.535 4.422 0 8.777-.23 12.621-.441 2.793-.149 5.203-.277 6.973-.277 1.777 0 5.089 0 5.089 3.289 0 3.32-3.429 4.171-6.75 5"/><path d="m904.691 675.836c-.929 0-1.878-.094-3.113-.211-2.191-.215-5.199-.512-10.73-.512-1.91 0-3.887.18-5.797.356-1.985.176-4.024.367-6.071.367-3.464 0-4.191-2.082-4.191-3.832 0-2.922 3.031-3.563 5.473-4.078 3.754-.793 6.031-1.52 6.062-5.192.313-1.644.145-4.957-2.437-11.382l-31.274-77.114c-.199-.484-.386-.996-.566-1.515-.266-.743-.887-2.481-1.258-2.606-.789.313-2.351 4.164-4.004 8.242-.547 1.34-1.156 2.84-1.851 4.516l-31.469 74.094c-.742 1.668-1.492 4.297-1.492 6.406 0 3.09 2.144 4.313 4.222 5.492 1.539.871 3.285 1.867 3.153 3.676 0 1.969-2.075 3.293-4.012 3.293-1.074 0-2.926-.129-5.07-.277-2.836-.2-6.36-.446-9.133-.446-2.629 0-5.258.172-8.039.356-2.774.176-5.645.367-8.5.367-2.438 0-4.012-1.574-4.012-4.012 0-2.672 2.41-3.371 4.543-3.984 3.102-.899 6.965-2.024 9.422-7.922l44.406-105c.32-.738.656-1.625 1.02-2.57 1.804-4.75 3.675-9.664 7.004-9.664 3.046 0 4.441 3.789 5.921 7.793.438 1.187.883 2.402 1.387 3.55l44.77 105.895c2.847 6.824 5.508 7.805 7.265 8.449 1.231.453 2.918 1.078 2.918 3.633 0 1.152-.445 3.832-4.547 3.832"/><path d="m1017.27 574.258c-1.13 0-1.88-.867-3.11-2.301-3.83-4.437-13.98-16.215-46.867-16.215-5.941 0-9.254.672-10.746 2.18-1.524 1.543-1.492 4.383-1.442 8.683l.024 35.645-.016.941c-.023 1.18-.054 2.512.399 2.973.281.289.89.348 1.359.348h26.606c8.164 0 9.101-4.852 10.011-9.539.571-2.946 1.211-6.282 4.555-6.282 1.672 0 3.467 1.008 3.467 3.829 0 2.468-.1 4.89-.19 7.289-.08 2.32-.17 4.613-.17 6.914 0 2.793.08 5.679.17 8.629.09 3.113.19 6.296.19 9.527 0 2.363-1.09 4.91-3.467 4.91-2.527 0-3.234-2.469-3.863-4.644-1.18-4.11-2.793-9.739-14.301-9.739h-19.41c-2.434 0-4.735 0-5.09.356-.262.261-.258 1.941-.254 3.426l.004 35.007c-.004 4.383-.008 7.032 1.012 7.981 1.125 1.051 4.468 1.133 9.433 1.133l4.953-.012c.836 0 1.828.016 2.926.031 1.379.02 2.938.047 4.598.047 4.551 0 18.394 0 21.816-4.469 1.023-1.468 1.163-3.961 1.293-6.164.19-3.226.42-7.242 4.25-7.242 2.64 0 5.09 2.773 5.09 22.887 0 3.613-1.11 5.449-3.29 5.449-3.12 0-9.628-.227-15.366-.422-4.602-.156-8.754-.301-10.348-.301-2.41 0-4.996.075-8.519.172-7.661.219-19.239.551-42.352.551-4.102 0-7.785-.281-7.785-3.648 0-3.043 3.738-3.774 5.75-4.165.301-.054.566-.105.918-.187 7.844-1.164 8.43-7.363 8.43-16.684v-81.98c0-8.41-.411-12.559-4.208-14.313-1.957-.976-3.445-1.566-4.566-2.019-2.273-.906-3.777-1.508-4.168-3.988 0-1.5.727-3.289 4.192-3.289 4.359 0 8.898.199 13.281.39 2.926.133 5.832.258 8.687.332 7.778.199 15.68-.07 23.332-.324 5.77-.195 11.742-.398 17.617-.398l2.243-.004c6.572 0 10.892.32 16.462 6.597 6.33 6.84 9.4 12.875 9.4 18.453 0 1.77-1.03 3.649-2.94 3.649"/><path d="m1102.9 639.102c0-22.301-17.99-24.036-23.5-24.036-1.46 0-3-.027-4.54-.054-1.54-.024-3.1-.055-4.6-.055-7.66 0-8.81.898-8.97 1.133v45.668c0 4.93 1.69 5.164 7.04 5.164l1.72-.004c9.88 0 32.85-2.707 32.85-27.816zm41.62-86.383c-3.41.738-9.75 2.113-18.03 14.754l-29.04 43.992c13.18 5.98 21.91 18.543 21.91 31.773 0 29.516-27.79 32.703-39.74 32.703-1.58 0-2.84-.05-3.63-.086l-.73-.019c-4.57 0-9.27-.172-14.24-.352-5.14-.179-10.45-.371-15.78-.371-5.63 0-7.37.274-8.64.477-.86.137-1.55.246-2.86.246-2.86 0-5.09-1.602-5.09-3.648 0-3.52 3.36-4.153 6.06-4.657 4.41-.828 9.4-1.765 9.4-11.347v-91.512c0-7.68-4.37-9.449-8.23-11.012-2.41-.976-4.9-1.98-4.9-4.625 0-1.949 1.45-3.472 3.3-3.472 3.45 0 6.94.183 10.32.363 3.34.176 6.79.355 10.17.355 11.16 0 16.3-.406 18.76-.605.89-.067 1.48-.113 1.91-.113l1.23-.028c2.89 0 3.32 1.852 3.32 2.961 0 3.555-3.75 4.387-7.37 5.192-5.31 1.175-11.33 2.511-11.33 10.808v37.934c0 .261-.02.55-.04.863-.07.926-.08 1.613.26 1.988.24.254.95.688 2.97.688l5.25.008c11.93 0 11.93 0 15.62-5.997.52-.839 1.1-1.785 1.78-2.843l19.98-31.492c7.05-10.586 14.52-20.082 28.2-20.082 11.59 0 13.18 1.753 13.18 3.652 0 2.648-2.11 3.105-3.97 3.504"/><path d="m1201.27 624.273c-16.21 4.7-30.2 8.758-30.2 22.922 0 16.153 14.98 21.879 27.82 21.879 15.97 0 27.97-8.152 32.92-22.355.69-2.078 2.13-6.41 5.19-6.41 1.43 0 2.25.589 2.68 1.082.69.781.96 1.89.78 3.273l-2.69 24.426c-.32 3.488-2.65 3.871-3.64 3.871-1.53 0-2.44-.871-3.03-1.445-.43-.407-.59-.536-.75-.536-.3 0-1.27.473-2.13.887-3.73 1.813-11.5 5.586-28.07 5.586-20.61 0-41.41-10.914-41.41-35.293 0-26.351 22.15-32.703 41.69-38.308 16.79-4.817 31.3-8.973 31.3-23.899 0-18.488-16.74-26.91-32.3-26.91-24.26 0-34.44 18.66-36.31 25.82l-.36 1.621c-.61 2.809-1.18 5.457-4.5 5.457-1.07 0-2.02-.445-2.67-1.25-1.05-1.277-1.32-3.386-.78-6.097l4.5-23.235c1.07-4.754 19.21-11.054 31.84-11.054 39.06 0 52.92 21.144 52.92 39.25 0 28.3-22.74 34.898-42.8 40.718"/><path d="m1301.47 553.852c-5.41 1.351-9.25 2.75-9.25 8.484v96.547c0 7.469 4.24 8.613 7.99 9.621 2.32.629 4.95 1.34 4.95 4.039 0 3.293-2.84 3.293-4.91 3.293-2.83 0-5.69-.188-8.45-.363-5.98-.379-12.2-.321-18.07 0-3.25.175-6.61.363-9.97.363-2.31 0-3.29-1.039-3.29-3.473 0-2.566 2.68-3.238 5.28-3.886 4.31-1.079 9.18-2.297 9.28-9.594v-92.051c0-10.398-4.96-11.707-8.94-12.758-2.38-.629-5.08-1.344-5.08-4.32 0-3.695 2.66-4.191 5.26-4.191.85 0 1.84.074 3.17.183 2.68.211 6.73.535 14.09.535 4.43 0 8.78-.23 12.62-.441 2.8-.149 5.21-.277 6.98-.277s5.09 0 5.09 3.289c0 3.32-3.43 4.171-6.75 5"/><path d="m1436.2 669.191c-.21 5.028-1.84 6.645-6.7 6.645-.9 0-2.62-.047-5.19-.113-7.5-.2-23.09-.61-47.49-.61-13.03 0-23.07.227-31.93.426-6.87.156-12.98.297-19.12.297-4.26 0-4.54-5.082-4.68-7.527l-2.03-18.418c0-1.723 1.35-3.653 3.29-3.653 3.13 0 3.85 2.758 4.27 4.403l.62 2.043c2.83 8.711 3.34 10.277 12.91 10.277l29.09.047c.24-.207.78-1.211.55-5.977-.02-.371-.03-.664-.03-.847v-93.489c0-5.55-4.5-7.144-8.47-8.547-2.95-1.043-5.74-2.031-5.74-4.757 0-2.578 1.2-3.828 3.66-3.828.23 0 .55.023 1.08.07 1.98.18 7.26.648 23.55.648 2.67 0 5.31-.191 7.85-.379 2.36-.175 4.62-.339 6.71-.339 1.17 0 1.87.468 2.26.863.89.91.87 2.152.85 2.789 0 3.301-3.1 3.992-5.84 4.601-4.29.954-8.72 1.942-8.72 10.141v91.688l-.03 2.589c-.02 2.047-.04 4.157.28 4.477.26.262 2.1.262 2.7.262l28.46-.012c10.09 0 10.48-4.055 10.87-7.977.23-2.398.55-5.687 4.4-5.687 1.4 0 2.22.574 2.65 1.058 1.15 1.27.96 3.161.82 4.485z"/><path d="m1551.58 675.836c-2.66 0-5.34-.188-7.92-.363-4.63-.328-9.42-.391-14.16-.004-2.19.179-4.46.367-6.69.367-3.49 0-5.26-1.414-5.26-4.191 0-3.028 3.3-3.614 6.2-4.125 4.4-.782 7.28-1.567 7.28-5.223 0-3.797-1.73-6.383-3-8.27l-19.07-30.863c-1.55-2.519-2.17-2.859-2.14-2.883-.11 0-.73.125-2.33 2.539l-21.78 34.731-.34.5c-1.06 1.554-2.64 3.898-2.64 6.047 0 1.882 1.67 2.851 4.23 4.113 2.06 1.023 4.21 2.082 4.21 4.332 0 .992-.48 3.293-4.91 3.293-.67 0-1.74-.094-3.11-.215-2.41-.215-5.71-.508-9.47-.508-7.45 0-11.54.262-14.83.477-2.06.137-3.76.246-5.67.246-2.19 0-3.83-2.215-3.83-4.191 0-2.391 2.34-3.008 4.62-3.602 2.95-.773 6.62-1.73 9.09-5.82l30.06-48.035.47-.704c1.35-2.004 3.41-5.023 3.41-7.64v-43.508c0-6.664-4.12-7.66-8.11-8.621-2.69-.649-5.74-1.387-5.74-4.5 0-3.652 3.05-3.652 4.19-3.652.52 0 1.52.066 2.9.164 2.9.211 7.75.554 13.28.554 4.03 0 9.41-.261 13.72-.472 2.75-.137 5-.246 6.06-.246 1.97 0 5.62 0 5.62 3.289 0 3.203-3.03 4.089-5.71 4.871-4.23 1.238-9.03 2.632-9.03 11.312v44.047c0 1.371.43 2.023 1.89 4.07.61.848 1.33 1.875 2.19 3.215l25.18 39.192c.53.839 1.05 1.699 1.57 2.558 2.24 3.707 4.36 7.211 7.98 9.356.24.144.58.281.94.437 1.55.664 4.12 1.774 4.12 4.278 0 1.683-1.51 3.648-3.47 3.648"/><path d="m1667.56 668.535c34.85 0 55.68-32.058 55.68-63.051 0-31.089-18.83-52.8-45.79-52.8-27.08 0-55.86 22.41-55.86 63.949 0 24.996 14.38 51.902 45.97 51.902zm5.4 8.918c-38.47 0-67.48-28.39-67.48-66.035 0-40.145 25.89-67.113 64.42-67.113 41.54 0 69.45 27.336 69.45 68.011 0 37.133-28.55 65.137-66.39 65.137"/><path d="m1829.69 675.836c-3.12 0-9.63-.227-15.37-.422-4.6-.156-8.75-.301-10.35-.301-2.41 0-4.99.075-8.52.172-7.66.219-19.24.551-42.35.551-4.1 0-7.78-.281-7.78-3.648 0-3.043 3.73-3.774 5.74-4.165.3-.054.57-.105.92-.187 7.85-1.164 8.43-7.363 8.43-16.684v-82.882c0-12.247-5.04-14.09-8.72-15.438-2.06-.758-4.4-1.613-4.4-4.336 0-1.258 1.05-3.113 3.29-3.113 1.24 0 2.91.129 5 .289 3.38.258 8.01.609 13.7.609 13.02 0 16.89-.543 18.54-.773.56-.082.91-.125 1.23-.125 3.62 0 5.45 1.351 5.45 4.008 0 2.562-2.66 3.152-5.47 3.769-5.09 1.125-11.42 2.524-11.42 12.774v36.316c0 .438-.03.887-.05 1.328-.05 1.027-.11 2.192.26 2.574.21.227.77.36 1.53.36h26.61c8.16 0 9.1-4.852 10.01-9.539.57-2.946 1.21-6.282 4.55-6.282 1.68 0 3.47 1.008 3.47 3.829 0 2.468-.1 4.89-.19 7.289-.08 2.32-.17 4.613-.17 6.914 0 2.793.08 5.679.17 8.629.09 3.113.19 6.296.19 9.527 0 2.363-1.09 4.91-3.47 4.91-2.53 0-3.23-2.469-3.86-4.644-1.18-4.11-2.8-9.739-14.3-9.739h-19.42c-2.43 0-4.73 0-5.09.356-.26.261-.25 1.937-.24 3.418v35.023c-.01 4.379-.01 7.027 1.01 7.977 1.13 1.047 4.46 1.129 9.44 1.129l4.95-.012c.83 0 1.83.016 2.93.031 1.37.02 2.93.047 4.59.047 4.55 0 18.4 0 21.82-4.469 1.02-1.468 1.16-3.961 1.29-6.164.19-3.226.42-7.242 4.25-7.242 2.64 0 5.09 2.773 5.09 22.887 0 3.613-1.11 5.449-3.29 5.449"/></g><g fill="#f47216"><path d="m1049.35 991.406v-209h-89.584v321.194h241.484c-5.02-4.99-3.19-12.46-10.02-22.25-8.86-11.83-17.56-6.31-24.79-14.99-6.62-8.05-3.75-16.46-10-24.79-8.88-11.86-22.49-7.5-32.28-20-7.95-10.01-7.51-20.15-15.02-30.164z"/><path d="m833.418 1103.61c-5.02-5.01-3.633-12.97-10.43-22.73-8.863-11.82-17.582-6.31-24.754-15-6.656-8.02-3.754-16.42-10-24.75-8.879-11.84-22.254-7.51-32.254-19.99-7.945-10-7.492-19.76-14.984-29.757h116.942v-104.469h-96.95c-8.035 0-14.504-.879-19.992 4.992-4.207 4.5-5.012 8.836-4.992 14.992l-.012 196.712h-104.23l-.012-226.688c-.035-26.414 17.262-52.238 27.242-62.008 12.504-12.484 38.129-32.476 67.242-32.476h136.493l82.214 94.484.028 226.688z"/></g></g></svg>