<svg height="81.7668" viewBox="0 0 740.24561 81.7668" width="740.24561" xmlns="http://www.w3.org/2000/svg"><g fill="#fff" transform="matrix(.13333333 0 0 -.13333333 -37.877066 135.55066)"><path d="m5037.17 415.559c-5.29 1.211-10.77 2.461-11.42 13.281l-3.4 120.816c-.59 17.457 6.26 19.082 11.76 20.383 3 .715 6.75 1.602 6.75 5.856 0 2.722-2 4.941-4.46 4.941-1.91 0-3.42-.215-5.02-.441-1.85-.262-3.76-.536-6.67-.536-.48 0-2.02.164-3.84.352-2.85.293-6.08.625-7.78.633-3.51 0-5.45-4.137-7.01-7.461-.33-.699-.63-1.356-.96-1.949l-57.98-116.442-.39-.812c-2.19-4.52-4.44-9.172-5.63-10.86-.64.813-1.64 2.735-2.61 4.606l-58.58 124.91c-.25.539-.46 1.148-.68 1.766-.87 2.48-2.19 6.234-6.28 6.234-2.3 0-4.59-.254-6.8-.5-4.55-.52-8.8-.461-13.01.008-2.19.242-4.46.492-6.74.492-5.35 0-6.16-2.945-6.16-4.699 0-3.715 3.01-4.77 5.65-5.703 6.12-2.145 17.49-6.149 17.49-46.176 0-18.528-1.52-37.211-3.45-60.86-.76-9.226-1.57-19.238-2.39-30.339-.99-14.637-6.54-16.188-11-17.438-2.81-.789-6.3-1.762-6.3-6.332 0-3 1.75-4.937 4.46-4.937 1.68 0 3.32.136 5.38.308 3.35.281 7.92.66 15.81.66 4.34 0 10.01-.351 14.56-.629 3.06-.191 5.59-.339 6.87-.339 2.64 0 8.12 0 8.12 4.699 0 4.539-4.09 5.64-7.69 6.609-6.67 1.789-14.98 4.02-14.24 23.77l2.91 85.355c.06.586.15 1.043.24 1.387.17-.234.37-.578.56-1.078l51.84-108.555.34-.84c1.09-2.789 2.91-7.461 6.39-7.461 2.72 0 4.73 3.371 8.21 10.91.47 1.012.85 1.852 1.15 2.411l50.43 102.804c2.04 4.278 3.5 5.59 4.15 5.985.4-.832 1.02-3.032 1.02-7.364l2.44-94.472c.13-9.641-4.37-11.442-8.71-13.184-3-1.199-6.4-2.558-6.4-6.769 0-1.938 1.23-4.207 4.71-4.207 2.92 0 6.23.218 9.71.449 9.43.629 19.82.371 27.06-.09 3.06-.199 5.64-.359 7.55-.359 2.75 0 7.87 0 7.87 4.457 0 4.961-4.34 5.961-7.83 6.75"/><path d="m5173.07 486.93c-.02-.016-.53-.352-2.77-.352h-48.22c-1.13 0-1.64.141-1.79.141h-.03c.01.152.08.558.48 1.371l27.5 59.133c.06.109.11.203.16.297.02-.047.04-.098.07-.153l23.85-58.668c.54-1.41.64-1.875.75-1.769zm64.74-72.602c-4.49.774-10.07 1.723-13.7 7.281-4 6.09-6.63 13.192-9.18 20.063-.93 2.5-1.84 4.965-2.81 7.348l-50.64 125.39c-.12.305-.25.742-.42 1.262-1.15 3.605-2.88 9.062-6.59 9.062-3.67 0-4.58-1.992-11.65-17.468-2.14-4.672-4.87-10.645-8.44-18.282l-58.23-124.234c-3.45-7.57-8.5-9.18-12.19-10.352-2.7-.867-5.77-1.839-5.77-5.347 0-2.762 1.73-4.699 4.22-4.699 3.21 0 6.51.25 9.71.488 6.51.48 13.32.469 19.86 0 3.39-.238 6.89-.488 10.37-.488l2.36-.051c4.14 0 6.24 1.929 6.24 5.719 0 4.089-4.01 4.812-7.23 5.39-4.95.879-10.06 1.789-10.06 10.692 0 2.839.9 6.226 1.52 7.687l15.57 34.066c1.8 3.778 4.68 3.961 9.62 3.961h53.59c5.38 0 6.43-2.429 8.83-7.968l7.78-19.938c.57-1.531 1.28-3.301 2.03-5.191 2.41-6.02 5.4-13.508 5.4-17.25 0-3.449-2.71-4.61-7.18-6.117-3.48-1.172-7.43-2.5-7.43-6.543 0-2.957 2.48-4.457 7.38-4.457 3.36 0 6.74.25 10.01.5 8.11.597 16.54.378 24.59-.012 4.94-.238 10.04-.488 15.08-.488 1.48 0 5.44 0 5.44 4.207 0 4.382-4.3 5.121-8.08 5.769"/><path d="m5355.05 531.074c0-30.215-24.37-32.562-31.84-32.562-1.97 0-4.05-.039-6.15-.074-2.09-.036-4.2-.075-6.22-.075h-.01c-10.37 0-11.93 1.219-12.14 1.535v61.868c0 6.679 2.29 6.996 9.52 6.996l2.34-.004c13.37 0 44.5-3.672 44.5-37.684zm56.38-117.023c-4.61 1-13.22 2.859-24.42 19.98l-39.34 59.602c17.85 8.101 29.69 25.117 29.69 43.047 0 39.984-37.66 44.3-53.85 44.3-2.14 0-3.84-.07-4.91-.113l-.99-.031c-6.2 0-12.56-.231-19.31-.473-6.95-.246-14.14-.504-21.37-.504-7.63 0-9.99.371-11.7.649-1.17.18-2.1.328-3.88.328-3.87 0-6.9-2.168-6.9-4.941 0-4.766 4.56-5.625 8.23-6.309 5.96-1.121 12.72-2.387 12.72-15.371v-123.977c0-10.398-5.92-12.797-11.15-14.918-3.26-1.32-6.63-2.691-6.63-6.269 0-2.641 1.96-4.699 4.46-4.699 4.68 0 9.41.25 13.99.488 4.52.242 9.2.48 13.77.48 15.13 0 22.08-.55 25.43-.82 1.2-.09 2-.148 2.58-.148l1.66-.043c3.92 0 4.51 2.511 4.51 4.011 0 4.821-5.08 5.95-10 7.039-7.54 1.672-15.33 3.403-15.33 14.641v51.391c0 .355-.03.75-.06 1.168-.09 1.257-.11 2.191.35 2.695.33.344 1.29.93 4.02.93l7.12.011c16.16 0 16.16 0 21.15-8.117.7-1.137 1.49-2.426 2.41-3.855l27.06-42.664c9.56-14.34 19.68-27.207 38.22-27.207 15.69 0 17.86 2.367 17.86 4.937 0 3.602-2.86 4.211-5.39 4.762"/><path d="m5561.45 571.84c-.3 6.808-2.51 8.996-9.08 8.996-1.22 0-3.55-.063-7.04-.152-10.15-.27-31.27-.825-64.33-.825-17.65 0-31.25.309-43.25.579-9.31.21-17.59.398-25.92.398-5.77 0-6.14-6.898-6.32-10.215l-2.76-24.93c0-2.339 1.83-4.949 4.45-4.949 4.25 0 5.22 3.738 5.79 5.973l.84 2.758c3.83 11.797 4.53 13.922 17.49 13.922l39.4.066c.33-.285 1.06-1.641.75-8.094-.02-.504-.04-.902-.04-1.152v-126.656c0-7.52-6.09-9.68-11.47-11.579-3.99-1.41-7.77-2.75-7.77-6.441 0-3.5 1.62-5.187 4.94-5.187.32 0 .76.027 1.47.097 2.7.242 9.85.871 31.9.871 3.63 0 7.2-.261 10.65-.511 3.2-.239 6.25-.457 9.08-.457 1.59 0 2.54.628 3.06 1.168 1.21 1.23 1.17 2.91 1.15 3.769 0 4.481-4.2 5.422-7.9 6.242-5.81 1.289-11.82 2.629-11.82 13.739v124.214l-.03 3.516c-.03 2.77-.06 5.629.37 6.059.35.355 2.84.355 3.66.355l38.55-.019c13.67 0 14.21-5.493 14.73-10.805.31-3.25.75-7.703 5.97-7.703 1.52 0 2.73.48 3.58 1.426 1.55 1.71 1.3 4.281 1.12 6.082z"/><path d="m5634.59 415.578c-7.34 1.832-12.53 3.723-12.53 11.492v130.801c0 10.117 5.75 11.672 10.82 13.035 3.15.852 6.71 1.813 6.71 5.473 0 4.457-3.84 4.457-6.65 4.457-3.84 0-7.71-.25-11.46-.492-8.09-.539-16.51-.446-24.48 0-4.39.242-8.94.492-13.5.492-3.95 0-4.46-2.512-4.46-4.699 0-3.481 3.64-4.391 7.16-5.27 5.83-1.461 12.43-3.105 12.57-12.996v-124.699c0-14.094-6.72-15.863-12.11-17.293-3.23-.848-6.89-1.82-6.89-5.859 0-5 3.61-5.668 7.14-5.668 1.15 0 2.48.097 4.28.25 3.64.277 9.14.718 19.1.718 5.99 0 11.89-.308 17.1-.59 3.78-.21 7.05-.378 9.45-.378 2.41 0 6.89 0 6.89 4.457 0 4.5-4.65 5.652-9.14 6.769"/><path d="m5831.42 580.836c-2.69 0-6.37-.207-10.36-.43-4.59-.254-9.79-.547-14.24-.547-3.89 0-7.66.254-11.3.496-3.54.235-7.2.481-10.86.481-2.81 0-4.7-1.793-4.7-4.457 0-4.262 4.36-5.352 8.57-6.402 7.8-1.95 18.47-4.618 18.47-24.286v-100.613c-.04.051-.09.098-.13.152l-116.15 129.293c-.28.332-.59.747-.93 1.2-1.61 2.16-3.81 5.113-6.94 5.113-1.95 0-3.94-.254-5.86-.508-3.89-.504-7.18-.473-10.81 0-1.92.254-3.91.508-5.98.508-2.04 0-5.68-1.488-5.68-4.457 0-4.258 3.96-5.231 7.79-6.172 8.11-1.992 21.68-5.328 21.68-39.375v-89.871c0-21.231-8.33-23.691-14.43-25.492-3.28-.969-7-2.071-7-6.418 0-3.031 1.84-4.699 5.19-4.699.54 0 2.16.089 4.39.218 4.75.289 12.67.75 18.5.75 6.96 0 12.23-.332 16.47-.609 3.08-.199 5.69-.359 8.13-.359 1.1 0 4.71.367 4.71 5.187 0 4.051-4.18 4.723-7.86 5.32-6.37 1.039-13.58 2.2-13.58 14.653v99.617c0 1.586.08 2.559.17 3.141.52-.45 1.32-1.29 2.53-2.805.32-.391.55-.676.59-.703l104.75-117.903c4.85-5.308 7.96-7.48 10.75-7.48 4.21 0 4.21 5.512 4.21 12.492v141.024c0 9.808 4.59 11.796 8.63 13.55 2.7 1.164 5.74 2.485 5.74 6.18 0 2.52-1.79 4.211-4.46 4.211"/><path d="m5835.87 672.508h-5551.792v11.25h5551.792z"/><path d="m4097.49 979.848c0 2.34 1.35 15.05-3.35 15.379h-54.66c-20.8 0-21.47-5.012-27.5-23.407-1.01-3.343-1.34-7.691-5.7-7.691-2.02 0-3.36 2.34-3.36 4.012l3.69 32.449c.33 4.01 0 13.04 6.04 13.04 26.16 0 51.98-1.34 95.24-1.34 60.7 0 91.55 1.34 98.26 1.34 7.71 0 9.39-2.01 9.72-9.7l1.68-26.754c.34-3.352.66-7.356-3.69-7.356-12.41 0 5.7 25.407-28.51 25.407h-47.95c-15.09 0-13.41 1.343-13.41-16.379v-170.547c0-28.098 27.16-17.063 27.16-27.422 0-1.012.34-4.016-3.02-4.016-8.05 0-17.44 1.336-27.17 1.336-37.55 0-43.92-1.336-45.94-1.336-3.02 0-4.02 1-4.02 4.34 0 8.027 26.49 4.688 26.49 24.754z"/><path d="m4282.15 916.309c0-11.368-.67-11.368 12.74-11.368h36.21c34.89 0 25.83 26.75 33.88 26.75 2.68 0 3.68-3.675 3.68-6.355 0-11.703-.66-23.074-.66-33.77 0-8.699.66-17.39.66-26.421 0-3.008-1.33-4.344-3.68-4.344-10.4 0 1.01 29.422-27.17 29.422h-49.63c-7.04 0-6.03-5.684-6.03-10.696v-61.531c0-19.73-2.69-27.758 25.48-27.758 77.47 0 88.87 34.442 93.23 34.442 2.35 0 2.68-3.34 2.68-4.012 0-12.039-8.72-23.746-16.76-32.438-10.74-12.039-18.12-11.367-32.87-11.367-25.49 0-50.97 2.008-76.46 1.336-13.41-.336-27.5-1.336-40.91-1.336-3.02 0-5.03.664-5.03 3.34.67 4.016 4.02 3.344 14.75 8.692 8.72 4.015 9.39 13.382 9.39 29.101v152.488c0 15.047 0 31.106-18.11 33.776-2.68.67-10.05 1.34-10.05 5.35 0 2.68 2.01 4.02 11.73 4.02 63.38 0 80.82-1.34 94.91-1.34 6.7 0 37.56 1.34 47.95 1.34 2.68 0 3.36-3.35 3.36-7.36 0-37.122-4.7-39.801-6.71-39.801-8.05 0-2.69 16.054-8.05 23.746-8.72 11.375-43.59 9.363-57.02 9.363-32.18 0-31.51 1.342-31.51-21.066z"/><path d="m4449.98 947.512c0 69.248-40.4 49.937-40.4 62.258 0 2 3.34 3.33 5.01 3.33 5.35 0 10.35-1.33 15.69-1.33 5.02 0 10.36 1.33 15.36 1.33 3.68 0 6.68-5.33 8.68-7.66l159.26-176.792c2.01-2.332 3.34-3.66 4.01-3.66s1 1.004 1 3.66v139.168c0 43.624-37.06 30.965-37.06 41.954 0 2.34 1.67 3.33 3.68 3.33 10.01 0 19.69-1.33 30.38-1.33 11.35 0 25.71 1.33 33.72 1.33 2 0 3.34-.99 3.34-2.99 0-8.66-19.7-2.67-19.7-26.977v-192.77c0-9.652-.34-14.32-3-14.32-2.34 0-5.68 1.672-12.7 9.328l-143.56 161.137c-.67.672-4.68 6.328-7.01 6.328-1.34 0-2.34-.992-2.34-7.656v-136.176c0-29.957 29.38-18.305 29.38-27.301 0-1.664-.33-4.32-3.67-4.32-8.01 0-17.36 1.328-33.72 1.328-11.69 0-29.05-1.328-31.39-1.328-4 0-4.34 1.996-4.34 3.66 0 11.652 29.38-3 29.38 43.609z"/><path d="m4706.67 947.512c0 69.248-40.4 49.937-40.4 62.258 0 2 3.34 3.33 5 3.33 5.35 0 10.36-1.33 15.7-1.33 5.01 0 10.35 1.33 15.35 1.33 3.68 0 6.68-5.33 8.69-7.66l159.26-176.792c2-2.332 3.33-3.66 4-3.66s1 1.004 1 3.66v139.168c0 43.624-37.05 30.965-37.05 41.954 0 2.34 1.67 3.33 3.67 3.33 10.01 0 19.69-1.33 30.38-1.33 11.35 0 25.71 1.33 33.72 1.33 2.01 0 3.34-.99 3.34-2.99 0-8.66-19.7-2.67-19.7-26.977v-192.77c0-9.652-.33-14.32-3-14.32-2.34 0-5.68 1.672-12.69 9.328l-143.57 161.137c-.67.672-4.67 6.328-7.01 6.328-1.34 0-2.33-.992-2.33-7.656v-136.176c0-29.957 29.38-18.305 29.38-27.301 0-1.664-.34-4.32-3.67-4.32-8.02 0-17.36 1.328-33.73 1.328-11.68 0-29.04-1.328-31.38-1.328-4.01 0-4.35 1.996-4.35 3.66 0 11.652 29.39-3 29.39 43.609z"/><path d="m4986.96 916.215c0-11.317-.67-11.317 12.68-11.317h36.04c34.73 0 25.71 26.625 33.72 26.625 2.67 0 3.67-3.66 3.67-6.328 0-11.648-.66-22.965-.66-33.613 0-8.656.66-17.309.66-26.301 0-2.992-1.33-4.32-3.67-4.32-10.35 0 1.01 29.285-27.04 29.285h-49.4c-7.01 0-6-5.656-6-10.648v-61.243c0-19.64-2.68-27.628 25.36-27.628 77.11 0 88.46 34.281 92.8 34.281 2.33 0 2.67-3.328 2.67-3.996 0-11.985-8.68-23.633-16.69-32.285-10.69-11.985-18.03-11.317-32.71-11.317-25.37 0-50.74 2-76.11 1.328-13.35-.332-27.37-1.328-40.72-1.328-3.01 0-5.01.66-5.01 3.328.67 3.992 4 3.325 14.69 8.649 8.67 3.996 9.34 13.324 9.34 28.968v151.782c0 14.976 0 30.953-18.02 33.623-2.67.66-10.01 1.33-10.01 5.32 0 2.67 2 3.99 11.68 3.99 63.09 0 80.44-1.32 94.46-1.32 6.67 0 37.39 1.32 47.73 1.32 2.68 0 3.35-3.32 3.35-7.32 0-36.941-4.68-39.609-6.68-39.609-8.01 0-2.68 15.98-8.01 23.636-8.68 11.313-43.39 9.317-56.75 9.317-32.04 0-31.37 1.336-31.37-20.969z"/><path d="m5128.41 836.316c-1.34 6.661.33 10.325 3.67 10.325 4.68 0 4.68-3.996 6.34-10.985 4.01-15.312 24.04-49.945 70.11-49.945 31.71 0 62.76 17.644 62.76 52.602 0 64.253-135.54 28.304-135.54 115.195 0 42.277 35.73 62.582 74.12 62.582 40.39 0 51.41-11.98 56.08-11.98 3.01 0 3.67 3.66 7.02 3.66 2 0 3.67-1 4.01-4.66l5-45.274c.33-2.664-.34-4.996-3.67-4.996-3.67 0-6.01 6.984-7.02 9.984-10.01 28.629-34.38 43.286-63.76 43.286-26.37 0-54.42-12.657-54.42-43.286 0-62.59 135.54-25.969 135.54-117.847 0-27.969-19.69-69.914-95.47-69.914-24.71 0-55.09 12.32-56.42 18.304z"/><path d="m5304.17 836.316c-1.33 6.661.34 10.325 3.67 10.325 4.68 0 4.68-3.996 6.35-10.985 4-15.312 24.03-49.945 70.11-49.945 31.71 0 62.75 17.644 62.75 52.602 0 64.253-135.54 28.304-135.54 115.195 0 42.277 35.73 62.582 74.12 62.582 40.39 0 51.42-11.98 56.08-11.98 3.01 0 3.68 3.66 7.02 3.66 2 0 3.67-1 4.01-4.66l5-45.274c.34-2.664-.33-4.996-3.67-4.996-3.67 0-6.01 6.984-7.02 9.984-10 28.629-34.38 43.286-63.76 43.286-26.37 0-54.42-12.657-54.42-43.286 0-62.59 135.54-25.969 135.54-117.847 0-27.969-19.69-69.914-95.47-69.914-24.71 0-55.09 12.32-56.42 18.304z"/><path d="m5534.45 916.215c0-11.317-.67-11.317 12.68-11.317h36.05c34.72 0 25.71 26.625 33.72 26.625 2.67 0 3.67-3.66 3.67-6.328 0-11.648-.66-22.965-.66-33.613 0-8.656.66-17.309.66-26.301 0-2.992-1.33-4.32-3.67-4.32-10.35 0 1 29.285-27.04 29.285h-49.41c-7 0-6-5.656-6-10.648v-61.243c0-19.64-2.67-27.628 25.37-27.628 77.11 0 88.46 34.281 92.8 34.281 2.34 0 2.66-3.328 2.66-3.996 0-11.985-8.67-23.633-16.68-32.285-10.69-11.985-18.03-11.317-32.71-11.317-25.37 0-50.74 2-76.11 1.328-13.35-.332-27.37-1.328-40.73-1.328-3 0-5 .66-5 3.328.66 3.992 4 3.325 14.68 8.649 8.68 3.996 9.35 13.324 9.35 28.968v151.782c0 14.976 0 30.953-18.03 33.623-2.66.66-10.01 1.33-10.01 5.32 0 2.67 2.01 3.99 11.69 3.99 63.08 0 80.44-1.32 94.46-1.32 6.67 0 37.39 1.32 47.73 1.32 2.67 0 3.34-3.32 3.34-7.32 0-36.941-4.67-39.609-6.68-39.609-8.01 0-2.67 15.98-8.01 23.636-8.67 11.313-43.39 9.317-56.75 9.317-32.04 0-31.37 1.336-31.37-20.969z"/><path d="m5715.1 916.215c0-11.317-.67-11.317 12.68-11.317h36.04c34.73 0 25.71 26.625 33.72 26.625 2.67 0 3.67-3.66 3.67-6.328 0-11.648-.66-22.965-.66-33.613 0-8.656.66-17.309.66-26.301 0-2.992-1.33-4.32-3.67-4.32-10.35 0 1.01 29.285-27.04 29.285h-49.4c-7.01 0-6-5.656-6-10.648v-61.243c0-19.64-2.68-27.628 25.36-27.628 77.11 0 88.46 34.281 92.8 34.281 2.34 0 2.66-3.328 2.66-3.996 0-11.985-8.67-23.633-16.68-32.285-10.69-11.985-18.03-11.317-32.71-11.317-25.37 0-50.74 2-76.11 1.328-13.35-.332-27.37-1.328-40.72-1.328-3.01 0-5.01.66-5.01 3.328.67 3.992 4 3.325 14.69 8.649 8.67 3.996 9.34 13.324 9.34 28.968v151.782c0 14.976 0 30.953-18.03 33.623-2.66.66-10 1.33-10 5.32 0 2.67 2 3.99 11.68 3.99 63.08 0 80.44-1.32 94.46-1.32 6.67 0 37.39 1.32 47.73 1.32 2.68 0 3.35-3.32 3.35-7.32 0-36.941-4.68-39.609-6.68-39.609-8.02 0-2.68 15.98-8.02 23.636-8.67 11.313-43.38 9.317-56.74 9.317-32.04 0-31.37 1.336-31.37-20.969z"/><path d="m866.047 979.844c0 2.34 1.34 15.047-3.344 15.383h-54.504c-20.73 0-21.398-5.02-27.418-23.411-1.004-3.339-1.34-7.687-5.683-7.687-2.008 0-3.344 2.34-3.344 4.008l3.676 32.433c.336 4.02 0 13.04 6.019 13.04 26.082 0 51.828-1.33 94.961-1.33 60.528 0 91.293 1.33 97.981 1.33 7.691 0 9.363-2 9.695-9.69l1.672-26.752c.336-3.344.668-7.355-3.676-7.355-12.375 0 5.684 25.414-28.426 25.414h-47.812c-15.051 0-13.379 1.336-13.379-16.387v-170.535c0-28.09 27.086-17.055 27.086-27.422 0-1.004.336-4.016-3.008-4.016-8.027 0-17.391 1.34-27.086 1.34-37.453 0-43.809-1.34-45.816-1.34-3.008 0-4.008 1.008-4.008 4.352 0 8.019 26.414 4.679 26.414 24.746z"/><path d="m1022.55 984.855c-.33 24.415-29.093 17.725-29.093 25.085 0 3.01 2.676 3.67 5.352 3.67 12.371 0 24.411-1.33 36.791-1.33 10.36 0 20.73 1.33 31.09 1.33 5.69 0 6.35-2 6.35-3.34 0-6.68-24.07-.33-24.07-25.415v-72.226c0-4.68 0-6.02 5.02-6.02h122.38c3.34 0 2.67 8.364 2.67 9.7v68.546c0 23.075-25.08 17.395-25.08 25.085 0 2.01.67 3.67 5.69 3.67 11.03 0 28.42-1.33 34.77-1.33 12.38 0 17.39 1.33 24.08 1.33 8.69 0 9.36-3.34 9.36-5.34 0-6.02-22.4-.34-22.4-23.415v-177.222c0-24.41 30.43-18.395 30.43-26.75 0-1.004-1.34-4.016-3.68-4.016-9.03 0-19.39 1.34-31.43 1.34-21.4 0-30.77-1.34-37.12-1.34-3.01 0-8.02-1-8.02 4.352 0 8.019 23.4 3.34 23.4 24.41v80.25c0 5.351 1.34 8.359-2.67 8.359h-123.39c-4.01 0-4.01-2.008-4.01-5.683v-83.262c0-22.738 31.77-15.383 31.77-25.746 0-1.672-2.34-2.68-5.35-2.68-4.35 0-28.76 1.34-46.49 1.34-23.74 0-27.42-1.34-28.75-1.34-2.677 0-3.681 1.672-3.681 5.02 0 9.703 26.081-1.34 26.081 31.765z"/><path d="m1299.44 916.309c0-11.368-.67-11.368 12.7-11.368h36.12c34.77 0 25.75 26.75 33.77 26.75 2.68 0 3.68-3.679 3.68-6.355 0-11.703-.67-23.074-.67-33.773 0-8.692.67-17.383.67-26.415 0-3.007-1.34-4.347-3.68-4.347-10.36 0 1 29.426-27.08 29.426h-49.49c-7.03 0-6.02-5.684-6.02-10.7v-61.527c0-19.727-2.68-27.754 25.41-27.754 77.24 0 88.61 34.445 92.96 34.445 2.34 0 2.67-3.347 2.67-4.011 0-12.039-8.69-23.746-16.71-32.442-10.7-12.039-18.06-11.371-32.77-11.371-25.42 0-50.83 2.008-76.25 1.34-13.37-.332-27.41-1.34-40.79-1.34-3.01 0-5.01.672-5.01 3.348.66 4.012 4.01 3.344 14.71 8.691 8.69 4.016 9.36 13.383 9.36 29.094v152.48c0 15.047 0 31.1-18.06 33.77-2.67.67-10.03 1.34-10.03 5.36 0 2.67 2.01 4 11.71 4 63.19 0 80.58-1.33 94.63-1.33 6.69 0 37.45 1.33 47.81 1.33 2.68 0 3.35-3.34 3.35-7.35 0-37.115-4.68-39.791-6.69-39.791-8.02 0-2.67 16.047-8.02 23.738-8.7 11.373-43.47 9.367-56.85 9.367-32.1 0-31.43 1.336-31.43-21.07z"/><path d="m1553.52 866.152c0-53.5 34.77-77.914 79.91-77.914 62.86 0 77.24 41.465 77.24 80.922v108.344c0 34.106-31.09 20.062-31.09 32.766 0 1.68 2.34 3.34 3.34 3.34 13.05 0 26.09-1.33 39.13-1.33 6.34 0 12.36 1.33 18.38 1.33 1.68 0 4.35-1.66 4.35-3.67 0-9.37-19.73-2.01-19.73-32.772v-103.66c0-16.387 4.02-98.981-93.29-98.981-87.94 0-104.66 49.161-104.66 100.653v112.687c0 19.733-27.08 11.707-27.08 22.403 0 2.34 5.68 3.34 7.35 3.34 8.7 0 17.05-1.33 26.08-1.33 10.7 0 21.4 1.33 31.77 1.33 1.67 0 10.7.68 10.7-3.34 0-9.36-22.4 0-22.4-24.075z"/><path d="m1797.3 947.742c0 69.548-40.46 50.156-40.46 62.528 0 2.01 3.34 3.34 5.01 3.34 5.35 0 10.37-1.33 15.71-1.33 5.02 0 10.38 1.33 15.39 1.33 3.67 0 6.69-5.34 8.69-7.68l159.51-177.563c2-2.34 3.34-3.676 4.01-3.676s1 1 1 3.676v139.77c0 43.813-37.11 31.097-37.11 42.133 0 2.34 1.67 3.34 3.68 3.34 10.02 0 19.72-1.33 30.42-1.33 11.37 0 25.75 1.33 33.78 1.33 2 0 3.34-1 3.34-3 0-8.7-19.73-2.68-19.73-27.087v-193.613c0-9.695-.33-14.379-3.01-14.379-2.34 0-5.68 1.672-12.7 9.364l-143.79 161.843c-.68.668-4.68 6.356-7.02 6.356-1.34 0-2.34-1-2.34-7.692v-136.761c0-30.102 29.42-18.395 29.42-27.422 0-1.672-.34-4.352-3.68-4.352-8.02 0-17.38 1.34-33.77 1.34-11.71 0-29.09-1.34-31.43-1.34-4.02 0-4.35 2.008-4.35 3.68 0 11.707 29.43-3.008 29.43 43.805z"/><path d="m2043.42 984.855c-.33 24.415-27.08 17.725-27.08 25.085 0 3.01.67 3.67 3.34 3.67 12.37 0 24.41-1.33 36.78-1.33 10.37 0 20.73 1.33 31.1 1.33 5.35 0 6.35-.66 6.35-3.34 0-8.02-24.07-.33-24.07-25.415v-179.562c0-22.738 29.76-15.047 29.76-25.078 0-2.34-1.01-3.348-6.69-3.348-7.69 0-22.07 1.34-36.45 1.34-20.39 0-27.41-1.34-32.1-1.34-6.02 0-7.02 1.672-7.02 5.02 0 9.703 26.08-1.34 26.08 31.765z"/><path d="m2132.03 987.867c-8.36 20.063-25.74 13.713-25.74 21.063 0 3.02 1.67 4.68 4.68 4.68 10.36 0 20.73-1.33 30.77-1.33 9.02 0 21.74 1.33 26.42 1.33 2 0 4.68-1.33 4.68-3.34.33-4.68-13.72-5.01-13.72-17.051 0-4.684 1.68-10.031 3.02-13.043l58.51-137.766c7.35-17.719 9.7-25.41 13.37-25.41 3.35 0 4.36 5.348 6.02 9.359l58.18 143.454c2.02 5.015 6.02 15.714 4.68 22.734 0 15.383-21.4 9.033-21.4 16.723 0 3.34 1.68 4.34 5.02 4.34 7.36 0 14.72-1.33 22.07-1.33 16.05 0 21.07 1.33 25.75 1.33 3.68 0 5.68-1.33 5.68-4.34 0-7.36-9.36 1-18.72-21.403l-83.26-196.953c-3.68-8.359-6.02-19.394-11.04-19.394-5.34 0-9.36 14.046-12.36 21.07z"/><path d="m2402.9 916.309c0-11.368-.67-11.368 12.7-11.368h36.12c34.77 0 25.75 26.75 33.77 26.75 2.68 0 3.68-3.679 3.68-6.355 0-11.703-.66-23.074-.66-33.773 0-8.692.66-17.383.66-26.415 0-3.007-1.34-4.347-3.68-4.347-10.36 0 1 29.426-27.08 29.426h-49.5c-7.02 0-6.01-5.684-6.01-10.7v-61.527c0-19.727-2.68-27.754 25.41-27.754 77.24 0 88.62 34.445 92.96 34.445 2.34 0 2.68-3.347 2.68-4.011 0-12.039-8.7-23.746-16.72-32.442-10.7-12.039-18.06-11.371-32.77-11.371-25.41 0-50.83 2.008-76.25 1.34-13.37-.332-27.41-1.34-40.79-1.34-3.01 0-5.02.672-5.02 3.348.67 4.012 4.02 3.344 14.72 8.691 8.69 4.016 9.36 13.383 9.36 29.094v152.48c0 15.047 0 31.1-18.06 33.77-2.67.67-10.03 1.34-10.03 5.36 0 2.67 2.01 4 11.71 4 63.19 0 80.59-1.33 94.63-1.33 6.69 0 37.45 1.33 47.82 1.33 2.67 0 3.34-3.34 3.34-7.35 0-37.115-4.68-39.791-6.68-39.791-8.03 0-2.68 16.047-8.03 23.738-8.69 11.373-43.47 9.367-56.85 9.367-32.1 0-31.43 1.336-31.43-21.07z"/><path d="m2588.83 905.273c0-6.351 20.73-4.679 36.44-4.679 14.38 0 46.48 6.015 46.48 47.484 0 40.793-31.1 54.502-63.86 54.502-12.04 0-19.06.67-19.06-12.373zm121.71-91.953c24.08-36.785 40.47-24.414 40.47-32.437 0-4.016-18.73-4.016-21.73-4.016-24.43 0-37.47 17.063-50.17 36.121l-37.12 58.516c-12.04 18.723-7.02 17.719-44.46 17.719-10.71 0-8.7-6.02-8.7-9.364v-70.55c0-28.762 34.78-18.395 34.78-29.762 0-3.348-3.02-2.68-5.69-2.68-3.01 0-10.7 1.34-38.45 1.34-12.71 0-25.42-1.34-38.12-1.34-2.01 0-3.34 1.672-3.34 3.68 0 8.359 24.4 3.68 24.4 29.094v170.203c0 32.106-28.76 18.39-28.76 29.766 0 2 2.68 4 6.7 4 6.02 0 4.34-1.33 21.4-1.33 19.38 0 38.44 1.33 55.84 1.33 5.34 0 79.24 6.69 79.24-57.844 0-26.082-18.72-48.485-42.13-57.848z"/><path d="m2752.35 836.059c-1.34 6.683.34 10.363 3.68 10.363 4.68 0 4.68-4.012 6.35-11.031 4.01-15.383 24.07-50.164 70.22-50.164 31.77 0 62.87 17.726 62.87 52.836 0 64.539-135.76 28.425-135.76 115.699 0 42.465 35.78 62.868 74.23 62.868 40.45 0 51.49-12.04 56.17-12.04 3.02 0 3.68 3.68 7.02 3.68 2.01 0 3.68-1.01 4.02-4.68l5.02-45.485c.33-2.671-.34-5.011-3.68-5.011-3.68 0-6.02 7.019-7.02 10.031-10.04 28.758-34.44 43.465-63.88 43.465-26.41 0-54.5-12.703-54.5-43.465 0-62.867 135.76-26.086 135.76-118.375 0-28.086-19.72-70.223-95.63-70.223-24.75 0-55.17 12.371-56.51 18.395z"/><path d="m2955.99 984.855c-.32 24.415-27.08 17.725-27.08 25.085 0 3.01.67 3.67 3.34 3.67 12.38 0 24.42-1.33 36.78-1.33 10.38 0 20.74 1.33 31.1 1.33 5.36 0 6.36-.66 6.36-3.34 0-8.02-24.08-.33-24.08-25.415v-179.562c0-22.738 29.76-15.047 29.76-25.078 0-2.34-1-3.348-6.68-3.348-7.7 0-22.08 1.34-36.46 1.34-20.39 0-27.41-1.34-32.1-1.34-6.01 0-7.02 1.672-7.02 5.02 0 9.703 26.08-1.34 26.08 31.765z"/><path d="m3120.52 979.844c0 2.34 1.34 15.047-3.34 15.383h-54.5c-20.73 0-21.4-5.02-27.42-23.411-1.01-3.339-1.34-7.687-5.69-7.687-2 0-3.34 2.34-3.34 4.008l3.68 32.433c.33 4.02 0 13.04 6.02 13.04 26.08 0 51.82-1.33 94.96-1.33 60.52 0 91.28 1.33 97.97 1.33 7.69 0 9.36-2 9.7-9.69l1.67-26.752c.34-3.344.67-7.355-3.68-7.355-12.37 0 5.69 25.414-28.42 25.414h-47.82c-15.04 0-13.37 1.336-13.37-16.387v-170.535c0-28.09 27.08-17.055 27.08-27.422 0-1.004.34-4.016-3.01-4.016-8.02 0-17.38 1.34-27.08 1.34-37.45 0-43.8-1.34-45.81-1.34-3.01 0-4.01 1.008-4.01 4.352 0 8.019 26.41 4.679 26.41 24.746z"/><path d="m3275.36 992.547c-8.7 14.383-25.08 10.363-25.08 16.053 0 2.34 2 5.01 4.34 5.01 9.03 0 15.38-1.33 38.12-1.33 11.04 0 20.07 1.33 23.41 1.33 2.34 0 6.36-.33 6.36-3.34 0-5.68-15.73-6.02-15.73-15.715 0-5.352 4.03-10.7 6.03-13.707l40.46-64.539c2.68-4.016 4.68-6.02 6.69-6.02 1.67 0 3.67 2.34 6.35 6.688l34.44 55.847c2.34 3.672 7.02 9.36 7.02 18.391 0 16.385-25.08 9.355-25.08 17.385 0 4.35 3.35 5.01 7.02 5.01 8.04 0 16.4-1.33 24.42-1.33 9.7 0 19.39 1.33 29.09 1.33 2.01 0 3.67-2.34 3.67-4 0-3.68-5.68-5.02-8.02-6.36-9.02-5.352-13.38-14.715-18.72-23.074l-46.82-72.895c-5.34-8.359-8.02-10.031-8.02-15.051v-81.917c0-29.094 27.42-19.735 27.42-30.098 0-3.012-3.02-3.348-7.7-3.348-5.01 0-24.4 1.34-36.78 1.34-15.04 0-27.08-1.34-30.09-1.34s-5.01.336-5.01 4.016c0 9.363 25.74.668 25.74 24.41v80.922c0 6.355-5.02 13.039-7.69 17.055z"/><path d="m3540.13 906.277c0-61.859 40.46-121.718 106.68-121.718 48.82 0 87.94 39.129 87.94 100.984 0 60.863-41.13 120.047-106.34 120.047-56.18 0-88.28-46.477-88.28-99.313zm-24.41-9.699c0 69.555 54.17 120.052 122.73 120.052 68.21 0 120.71-49.157 120.71-118.376 0-75.234-51.83-123.727-126.39-123.727-72.57 0-117.05 51.5-117.05 122.051"/><path d="m3820.37 916.309c0-11.368-.67-11.368 12.71-11.368h36.1c34.79 0 25.76 26.75 33.79 26.75 2.67 0 3.67-3.679 3.67-6.355 0-11.703-.66-23.074-.66-33.773 0-8.692.66-17.383.66-26.415 0-3.007-1.33-4.347-3.67-4.347-10.37 0 1 29.426-27.09 29.426h-49.5c-7.68 0-6.01-5.684-6.01-10.7v-67.547c0-31.765 31.43-23.074 31.43-30.761 0-4.684-5.02-4.684-7.36-4.684s-5.68 1.672-36.78 1.672c-17.05 0-28.76-1.672-34.78-1.672-2.67 0-3.34 2.34-3.34 3.012 0 9.359 24.41-.336 24.41 36.781v154.152c0 15.047 0 31.1-18.05 33.77-2.68.67-10.04 1.34-10.04 5.36 0 2.67 2.01 4 11.71 4 63.19 0 80.58-1.33 94.63-1.33 6.68 0 37.45 1.33 47.82 1.33 2.67 0 3.34-3.34 3.34-7.35 0-37.115-4.68-39.791-6.68-39.791-8.03 0-2.68 16.047-8.03 23.738-8.69 11.373-43.47 9.367-56.85 9.367-32.1 0-31.43 1.336-31.43-21.07z"/><path d="m602.766 931.004v-159.484h-68.36v245.1h184.274c-3.828-3.81-2.43-9.51-7.645-16.983-6.762-9.024-13.402-4.813-18.918-11.438-5.051-6.14-2.863-12.562-7.629-18.918-6.777-9.051-17.164-5.722-24.633-15.261-6.07-7.637-5.73-15.375-11.46-23.016z"/><path d="m437.992 1016.63c-3.828-3.83-2.769-9.9-7.957-17.353-6.762-9.015-13.414-4.812-18.887-11.449-5.078-6.113-2.867-12.527-7.632-18.879-6.778-9.039-16.981-5.73-24.614-15.258-6.062-7.632-5.714-15.074-11.433-22.707h89.238v-79.714h-73.98c-6.133 0-11.067-.672-15.258 3.808-3.211 3.434-3.821 6.742-3.809 11.442l-.008 150.11h-79.539l-.008-172.985c-.027-20.161 13.172-39.864 20.79-47.321 9.543-9.523 29.093-24.781 51.312-24.781h104.152l62.739 72.102.019 172.985z"/></g></svg>