<svg height="65.510399" viewBox="0 0 75.659996 65.510399" width="75.659996" xmlns="http://www.w3.org/2000/svg"><g fill="#fff" transform="matrix(.13333333 0 0 -.13333333 -371.00666 128.5672)"><path d="m2894.77 479.871c-3.02.688-6.14 1.399-6.5 7.567l-1.95 68.859c-.33 9.949 3.57 10.875 6.71 11.617 1.71.406 3.85.914 3.85 3.336 0 1.551-1.14 2.816-2.54 2.816-1.1 0-1.96-.125-2.87-.253-1.05-.149-2.14-.301-3.8-.301-.27 0-1.15.09-2.19.199-1.62.164-3.46.355-4.43.359-2 0-3.11-2.355-4-4.25-.18-.398-.36-.773-.54-1.113l-33.05-66.363-.22-.461c-1.25-2.578-2.53-5.227-3.21-6.192-.36.461-.93 1.559-1.49 2.625l-33.39 71.192c-.14.305-.26.652-.38 1.004-.5 1.414-1.25 3.554-3.58 3.554-1.31 0-2.61-.144-3.87-.285-2.6-.297-5.02-.261-7.42.004-1.25.141-2.54.281-3.84.281-3.05 0-3.51-1.675-3.51-2.679 0-2.117 1.71-2.719 3.22-3.25 3.48-1.223 9.96-3.5 9.96-26.317 0-10.558-.86-21.207-1.96-34.683-.43-5.262-.9-10.965-1.36-17.293-.56-8.344-3.73-9.227-6.27-9.942-1.6-.445-3.59-1-3.59-3.601 0-1.711 1-2.821 2.54-2.821.96 0 1.89.079 3.07.176 1.9.16 4.51.379 9 .379 2.48 0 5.71-.195 8.31-.359 1.74-.106 3.18-.196 3.91-.196 1.5 0 4.62 0 4.62 2.684 0 2.586-2.32 3.211-4.38 3.762-3.8 1.023-8.53 2.297-8.11 13.551l1.66 48.644c.03.336.08.598.13.789.1-.133.21-.328.32-.613l29.55-61.871.19-.477c.62-1.59 1.66-4.25 3.65-4.25 1.55 0 2.69 1.918 4.67 6.215.27.578.49 1.059.66 1.375l28.74 58.594c1.16 2.437 2 3.183 2.36 3.41.23-.477.59-1.73.59-4.199l1.38-53.84c.08-5.492-2.48-6.52-4.95-7.512-1.71-.683-3.65-1.465-3.65-3.859 0-1.106.7-2.403 2.68-2.403 1.66 0 3.55.125 5.53.258 5.38.36 11.3.211 15.42-.05 1.75-.114 3.22-.208 4.31-.208 1.57 0 4.49 0 4.49 2.543 0 2.829-2.48 3.395-4.47 3.848"/><path d="m2972.22 520.547c-.01-.008-.3-.199-1.57-.199h-27.49c-.64 0-.93.078-1.01.078-.01 0-.02 0-.02 0 0 .086.04.32.27.781l15.68 33.703c.03.063.06.113.08.168.02-.027.03-.055.04-.086l13.6-33.437c.3-.805.36-1.067.42-1.008zm36.9-41.379c-2.56.437-5.74.984-7.8 4.148-2.29 3.473-3.79 7.524-5.24 11.438-.53 1.422-1.05 2.828-1.6 4.187l-28.86 71.461c-.07.176-.14.426-.24.719-.65 2.059-1.64 5.168-3.75 5.168-2.1 0-2.62-1.137-6.65-9.957-1.21-2.66-2.77-6.066-4.81-10.418l-33.18-70.805c-1.97-4.316-4.85-5.234-6.95-5.902-1.54-.492-3.29-1.047-3.29-3.043 0-1.578.99-2.684 2.4-2.684 1.83 0 3.72.145 5.54.278 3.71.277 7.59.273 11.32.004 1.93-.137 3.93-.282 5.91-.282l1.34-.027c2.36 0 3.56 1.098 3.56 3.262 0 2.332-2.28 2.738-4.12 3.07-2.82.5-5.74 1.024-5.74 6.094 0 1.621.52 3.551.87 4.379l8.88 19.418c1.02 2.152 2.67 2.258 5.48 2.258h30.54c3.07 0 3.66-1.383 5.03-4.543l4.44-11.364c.32-.871.73-1.879 1.16-2.957 1.37-3.429 3.07-7.699 3.07-9.828 0-1.969-1.54-2.633-4.09-3.488-1.98-.668-4.24-1.43-4.24-3.731 0-1.687 1.42-2.543 4.21-2.543 1.92 0 3.84.145 5.71.286 4.62.343 9.42.222 14.01-.004 2.82-.137 5.72-.282 8.6-.282.84 0 3.09 0 3.09 2.403 0 2.496-2.44 2.914-4.6 3.285"/><path d="m3075.94 545.703c0-17.219-13.89-18.555-18.14-18.555-1.13 0-2.32-.023-3.51-.043-1.19-.019-2.39-.042-3.55-.042-5.91 0-6.8.695-6.92.875v35.261c0 3.805 1.3 3.985 5.43 3.985h1.33c7.62 0 25.36-2.094 25.36-21.481zm32.14-66.695c-2.64.57-7.54 1.629-13.93 11.39l-22.42 33.969c10.18 4.617 16.92 14.317 16.92 24.531 0 22.79-21.46 25.25-30.69 25.25-1.22 0-2.18-.039-2.8-.062l-.56-.02c-3.53 0-7.16-.132-11-.269-3.97-.141-8.06-.285-12.18-.285-4.35 0-5.69.211-6.67.367-.67.105-1.2.187-2.21.187-2.21 0-3.93-1.238-3.93-2.816 0-2.715 2.6-3.203 4.68-3.598 3.4-.636 7.26-1.359 7.26-8.757v-70.657c0-5.929-3.38-7.297-6.36-8.504-1.86-.754-3.78-1.531-3.78-3.57 0-1.508 1.12-2.684 2.54-2.684 2.67 0 5.37.145 7.98.282 2.58.136 5.24.273 7.85.273 8.62 0 12.58-.312 14.49-.465.68-.054 1.14-.09 1.47-.09l.95-.019c2.23 0 2.56 1.43 2.56 2.285 0 2.742-2.89 3.387-5.69 4.008-4.3.957-8.74 1.941-8.74 8.348v29.289c0 .199-.02.425-.03.664-.05.718-.07 1.25.2 1.535.18.195.73.531 2.29.531l4.05.008c9.21 0 9.21 0 12.06-4.625.4-.652.85-1.387 1.37-2.199l15.43-24.317c5.44-8.172 11.21-15.508 21.78-15.508 8.94 0 10.17 1.356 10.17 2.821 0 2.047-1.63 2.398-3.06 2.707"/><path d="m3193.57 568.938c-.17 3.882-1.43 5.128-5.17 5.128-.7 0-2.03-.035-4.01-.086-5.79-.156-17.82-.468-36.67-.468-10.05 0-17.81.172-24.65.328-5.3.121-10.02.226-14.77.226-3.29 0-3.5-3.933-3.6-5.82l-1.58-14.211c0-1.332 1.05-2.82 2.54-2.82 2.43 0 2.97 2.133 3.3 3.406l.48 1.57c2.19 6.723 2.58 7.934 9.97 7.934l22.46.035c.18-.156.6-.93.42-4.609-.01-.285-.02-.516-.02-.656v-72.184c0-4.285-3.47-5.516-6.54-6.602-2.27-.804-4.43-1.566-4.43-3.671 0-1.989.93-2.958 2.82-2.958.18 0 .43.02.84.055 1.53.141 5.61.5 18.18.5 2.07 0 4.1-.148 6.06-.293 1.83-.133 3.57-.262 5.18-.262.91 0 1.45.364 1.75.668.68.704.66 1.661.65 2.153 0 2.551-2.39 3.082-4.5 3.554-3.32.735-6.74 1.497-6.74 7.829v70.793l-.01 2.003c-.02 1.579-.04 3.211.2 3.454.2.203 1.62.203 2.09.203l21.97-.012c7.79 0 8.1-3.129 8.4-6.156.18-1.852.43-4.391 3.4-4.391.87 0 1.55.274 2.04.813.88.976.74 2.437.64 3.464z"/><path d="m3235.26 479.883c-4.19 1.043-7.15 2.121-7.15 6.551v74.543c0 5.765 3.28 6.652 6.17 7.429 1.8.485 3.83 1.032 3.83 3.117 0 2.543-2.19 2.543-3.79 2.543-2.19 0-4.4-.14-6.53-.281-4.62-.305-9.41-.254-13.96 0-2.5.141-5.09.281-7.69.281-2.25 0-2.54-1.429-2.54-2.679 0-1.981 2.07-2.5 4.08-3 3.32-.832 7.09-1.774 7.16-7.41v-71.071c0-8.031-3.82-9.039-6.9-9.851-1.84-.489-3.93-1.039-3.93-3.34 0-2.848 2.06-3.235 4.07-3.235.66 0 1.42.059 2.44.145 2.07.16 5.21.41 10.89.41 3.41 0 6.78-.18 9.74-.34 2.16-.113 4.02-.215 5.39-.215s3.93 0 3.93 2.543c0 2.563-2.65 3.219-5.21 3.86"/><path d="m3347.44 574.066c-1.54 0-3.63-.117-5.91-.246-2.61-.144-5.58-.308-8.11-.308-2.22 0-4.37.14-6.45.281-2.01.133-4.1.273-6.18.273-1.61 0-2.68-1.023-2.68-2.543 0-2.425 2.48-3.046 4.88-3.648 4.45-1.109 10.53-2.629 10.53-13.84v-57.34c-.03.028-.05.055-.08.086l-66.19 73.688c-.16.187-.34.426-.53.683-.92 1.231-2.17 2.914-3.96 2.914-1.11 0-2.24-.144-3.34-.289-2.21-.285-4.09-.269-6.16 0-1.09.145-2.22.289-3.41.289-1.16 0-3.23-.847-3.23-2.543 0-2.425 2.25-2.976 4.43-3.515 4.63-1.133 12.36-3.035 12.36-22.442v-51.218c0-12.098-4.75-13.5-8.22-14.528-1.87-.55-3.99-1.179-3.99-3.656 0-1.73 1.05-2.684 2.96-2.684.31 0 1.23.055 2.5.129 2.7.161 7.22.426 10.54.426 3.97 0 6.97-.187 9.39-.347 1.75-.114 3.24-.208 4.63-.208.63 0 2.68.215 2.68 2.958 0 2.308-2.38 2.695-4.47 3.035-3.63.59-7.74 1.254-7.74 8.347v56.778c0 .902.05 1.457.1 1.789.29-.258.74-.735 1.44-1.598.18-.223.31-.387.33-.402l59.7-67.196c2.77-3.027 4.54-4.265 6.13-4.265 2.4 0 2.4 3.144 2.4 7.121v80.375c0 5.59 2.61 6.723 4.92 7.723 1.53.664 3.27 1.414 3.27 3.523 0 1.434-1.02 2.398-2.54 2.398"/><path d="m3198.65 852.457v-208.242h-89.26v320.023h240.61c-5-4.972-3.18-12.414-9.98-22.168-8.83-11.781-17.5-6.281-24.7-14.937-6.6-8.012-3.74-16.399-9.97-24.699-8.84-11.817-22.41-7.473-32.16-19.926-7.93-9.977-7.48-20.078-14.96-30.051z"/><path d="m2983.5 964.254c-5-4.992-3.61-12.93-10.39-22.652-8.83-11.774-17.52-6.286-24.66-14.95-6.63-7.984-3.74-16.355-9.97-24.652-8.84-11.801-22.17-7.484-32.13-19.922-7.92-9.965-7.47-19.683-14.93-29.644h116.52v-104.09h-96.6c-8.01 0-14.45-.875-19.92 4.972-4.19 4.489-4.99 8.805-4.98 14.942l-.01 195.996h-103.85l-.01-225.867c-.04-26.321 17.2-52.047 27.14-61.782 12.46-12.437 37.99-32.359 67-32.359h136l81.91 94.141.03 225.867z"/></g></svg>